<svg xmlns="http://www.w3.org/2000/svg" width="56" height="62" viewBox="0 0 56 62" fill="none"><g><path d="M35.5917 13.9688L29.1851 18.6226L31.6317 26.1547H39.55L41.9966 18.6226L35.5917 13.9688Z" stroke-width="2" stroke-linecap="round" stroke-linejoin="round"></path><path d="M31.6316 26.1548L27.2346 32.4339" stroke-width="2" stroke-linecap="round" stroke-linejoin="round"></path><path d="M19.7812 30.7144L27.2347 32.434L31.2559 38.6274" stroke-width="2" stroke-linecap="round" stroke-linejoin="round"></path><path d="M35.5898 39.1219C46.1169 39.1219 54.6507 30.588 54.6507 20.061C54.6507 9.53388 46.1169 1 35.5898 1C25.0627 1 16.5288 9.53388 16.5288 20.061C16.5288 30.588 25.0627 39.1219 35.5898 39.1219Z" stroke-width="2" stroke-linecap="round" stroke-linejoin="round"></path><path d="M35.5901 13.9882V6.32324" stroke-width="2" stroke-linecap="round" stroke-linejoin="round"></path><path d="M43.9693 2.93457L35.5914 6.32315L27.2117 2.93457" stroke-width="2" stroke-linecap="round" stroke-linejoin="round"></path><path d="M39.5496 26.1548L43.9465 32.4339" stroke-width="2" stroke-linecap="round" stroke-linejoin="round"></path><path d="M39.9258 38.6274L43.947 32.434L51.4005 30.7144" stroke-width="2" stroke-linecap="round" stroke-linejoin="round"></path><path d="M41.9966 18.6227L49.4011 16.6392" stroke-width="2" stroke-linecap="round" stroke-linejoin="round"></path><path d="M54.387 23.252L49.4011 16.6391L50.4497 8.11963" stroke-width="2" stroke-linecap="round" stroke-linejoin="round"></path><path d="M29.1846 18.6227L21.78 16.6392" stroke-width="2" stroke-linecap="round" stroke-linejoin="round"></path><path d="M20.7315 8.11963L21.7801 16.6391L16.7942 23.252" stroke-width="2" stroke-linecap="round" stroke-linejoin="round"></path></g><g><path d="M10.7156 40.951L19.9016 39.751C20.4022 39.7513 20.8948 39.8768 21.3345 40.1162L28.6307 44.0745H35.8727C36.3009 44.0741 36.725 44.158 37.1207 44.3214C37.5164 44.4849 37.8761 44.7248 38.1791 45.0273C38.4821 45.3298 38.7224 45.689 38.8866 46.0845C39.0507 46.48 39.1353 46.9039 39.1356 47.332C39.1346 48.1966 38.7904 49.0254 38.1786 49.6363C37.5667 50.2471 36.7373 50.59 35.8727 50.5895H25.2124" stroke-width="2" stroke-linecap="round" stroke-linejoin="round"></path><path d="M11.2776 53.9461C14.3866 53.9461 21.8837 60.9999 26.5165 60.9999C30.2022 60.9999 46.5247 53.7963 53.0467 50.8482C53.7776 50.5191 54.3538 49.9212 54.6555 49.1786C54.9571 48.436 54.9611 47.6057 54.6667 46.8602C54.3628 46.0925 53.7675 45.4763 53.0109 45.146C52.2542 44.8156 51.3977 44.7979 50.6281 45.0968L38.0192 49.7839" stroke-width="2" stroke-linecap="round" stroke-linejoin="round"></path><path d="M5.31572 39.3999H10.7157V56.7999H1.11572" stroke-width="2" stroke-linecap="round" stroke-linejoin="round"></path></g></svg>