<svg xmlns="http://www.w3.org/2000/svg" width="228" height="86" viewBox="0 0 228 86" fill="none"><path d="M120.918 21.8484H110.093L99.3875 31.5022H95.2743V21.8484H87.3984V47.7234H95.2743V37.7878H99.2309L110.907 47.7234H122.351L106.061 34.645L120.918 21.8484Z" fill="white"></path><path d="M153.542 21.8484H137.096V27.7083H153.542V21.8484Z" fill="white"></path><path d="M132.631 37.5938H152.34V31.7777H132.631V21.8484H124.875V47.7234H153.817V41.8635H132.631V37.5938Z" fill="white"></path><path d="M184.545 31.972C183.224 31.8969 179.731 31.7779 179.036 31.7779H171.705C169.144 31.7403 168.987 31.7028 168.524 31.5838C168.046 31.5132 167.611 31.2682 167.302 30.8961C166.994 30.524 166.833 30.0509 166.853 29.5679C166.853 28.0967 167.548 27.6897 169.645 27.6897H190.192V21.6357H174.885C169.413 21.6357 166.195 21.8674 164.136 22.3745C160.417 23.2635 159.127 25.2418 159.127 29.8872C159.127 33.4182 159.978 35.4716 161.844 36.442C163.509 37.2935 165.488 37.5689 170.258 37.5689H177.395C181.471 37.6065 181.471 37.6065 182.323 37.8757C182.725 37.9729 183.079 38.2105 183.321 38.5457C183.563 38.8809 183.677 39.2916 183.643 39.7038C183.643 41.7573 182.56 41.8324 174.434 41.8324H159.096V47.8864H174.804C180.438 47.8864 184.27 47.6547 186.21 47.229C190.011 46.4152 191.407 44.3179 191.407 39.5473C191.407 34.376 189.478 32.2036 184.545 31.972Z" fill="white"></path><path d="M227.411 21.8484H196.841V27.702H215.885L196.34 41.7821V47.7234H227.392V41.8635H207.628L227.411 27.7834V21.8484Z" fill="white"></path><path d="M94.2544 61.046V63.738C93.418 64.3165 92.429 64.6346 91.4121 64.6521C90.9278 64.6758 90.4438 64.6009 89.9893 64.432C89.5348 64.2631 89.1193 64.0037 88.7681 63.6694C88.4169 63.3351 88.1372 62.933 87.946 62.4875C87.7548 62.0419 87.656 61.5621 87.6558 61.0773C87.6558 59.0488 89.296 57.5212 91.481 57.5212C92.5108 57.5198 93.5082 57.8811 94.2982 58.5417L93.403 59.6749C92.8796 59.1878 92.1958 58.9094 91.481 58.8923C90.8998 58.8923 90.3425 59.1232 89.9316 59.5341C89.5206 59.945 89.2898 60.5024 89.2898 61.0835C89.2898 61.6647 89.5206 62.222 89.9316 62.6329C90.3425 63.0439 90.8998 63.2747 91.481 63.2747C91.961 63.2526 92.4297 63.1221 92.852 62.8928V61.0522L94.2544 61.046Z" fill="white"></path><path d="M99.833 62.58H98.224V64.5646H96.6401V57.5527H99.6828C101.517 57.5527 102.563 58.4292 102.563 59.9818C102.598 60.4482 102.491 60.9142 102.256 61.3188C102.022 61.7233 101.67 62.0473 101.248 62.2482L102.738 64.5646H100.947L99.833 62.58ZM99.6828 61.2527C100.559 61.2527 101.06 60.8583 101.06 60.0507C101.06 59.2431 100.559 58.88 99.6828 58.88H98.224V61.2527H99.6828Z" fill="white"></path><path d="M111.928 61.0772C111.968 61.8274 111.782 62.5724 111.394 63.2159C111.007 63.8594 110.435 64.3719 109.753 64.6871C109.071 65.0024 108.311 65.106 107.569 64.9845C106.828 64.8629 106.14 64.5219 105.594 64.0055C105.049 63.489 104.671 62.8208 104.509 62.0872C104.347 61.3536 104.409 60.5883 104.686 59.8902C104.963 59.1921 105.444 58.5932 106.065 58.1709C106.687 57.7486 107.42 57.5223 108.171 57.5212C108.653 57.5011 109.134 57.5778 109.586 57.7469C110.038 57.9159 110.451 58.1738 110.801 58.5054C111.151 58.8369 111.431 59.2354 111.625 59.6771C111.819 60.1189 111.921 60.595 111.928 61.0772ZM106.012 61.0772C106.01 61.3633 106.065 61.647 106.173 61.9119C106.281 62.1769 106.44 62.418 106.641 62.6215C106.842 62.8249 107.081 62.9868 107.345 63.0978C107.609 63.2088 107.892 63.2668 108.178 63.2684C108.61 63.2721 109.034 63.1473 109.396 62.9098C109.758 62.6723 110.041 62.3327 110.209 61.9342C110.377 61.5356 110.424 61.096 110.342 60.6711C110.26 60.2463 110.054 59.8552 109.75 59.5475C109.446 59.2398 109.057 59.0293 108.634 58.9428C108.21 58.8562 107.769 58.8975 107.369 59.0613C106.969 59.2252 106.626 59.5042 106.384 59.8631C106.142 60.222 106.013 60.6446 106.012 61.0772Z" fill="white"></path><path d="M120.167 61.6472C120.167 63.5254 118.959 64.6523 117.037 64.6523C115.115 64.6523 113.85 63.5003 113.85 61.6472V57.5715H115.434V61.6472C115.417 61.8627 115.447 62.0794 115.522 62.2824C115.596 62.4853 115.713 62.67 115.865 62.8237C116.017 62.9775 116.201 63.0968 116.403 63.1736C116.605 63.2503 116.821 63.2828 117.037 63.2687C117.25 63.2815 117.464 63.2479 117.663 63.17C117.862 63.0922 118.042 62.972 118.191 62.8178C118.339 62.6637 118.452 62.4791 118.522 62.277C118.592 62.0749 118.617 61.86 118.596 61.6472V57.5715H120.18L120.167 61.6472Z" fill="white"></path><path d="M125.558 57.5715C127.343 57.5715 128.363 58.448 128.363 60.0006C128.363 61.5533 127.343 62.58 125.558 62.58H124.168V64.5646H122.584V57.5527L125.558 57.5715ZM124.168 61.2527H125.477C126.36 61.2527 126.86 60.8583 126.86 60.0507C126.86 59.2431 126.36 58.88 125.477 58.88H124.168V61.2527Z" fill="white"></path><path d="M11.8021 29.0918L0.589355 22.6121V40.3921L11.8021 46.8656V29.0918Z" fill="white"></path><path d="M62.6574 27.9335L73.8701 21.4601L58.4691 12.5701L47.2563 19.0498L62.6574 27.9335Z" fill="white"></path><path d="M38.228 72.5466V85.4998L53.6228 76.6097V63.6628L38.228 72.5466Z" fill="white"></path><path d="M12.4719 27.9339L48.7771 6.97345L37.5643 0.5L1.25293 21.4604L12.4719 27.9339Z" fill="white"></path><path d="M63.3213 29.0918V71.0127L74.534 64.5392V22.6121L63.3213 29.0918Z" fill="white"></path><path d="M36.8945 72.5466L0.589355 51.5862V64.5393L36.8945 85.4998V72.5466Z" fill="white"></path><path d="M37.5641 42.4205L52.9589 33.5368L37.5641 24.6467L22.1631 33.5368L37.5641 42.4205Z" fill="#DD8D14"></path><path d="M38.228 43.579V61.3528L53.6228 52.4628V34.689L38.228 43.579Z" fill="#FBD090"></path><path d="M21.4995 34.689V52.4628L36.8943 61.3528V43.579L21.4995 34.689Z" fill="#F2A93B"></path></svg>