<?xml version="1.0" encoding="utf-8"?>
<svg viewBox="0 0 320.96 370.663" xmlns="http://www.w3.org/2000/svg">
  <mask id="mask0_414_59" style="mask-type:alpha" maskUnits="userSpaceOnUse" x="6" y="21" width="1440" height="172">
    <rect width="1440" height="172" transform="matrix(1 0 0 -1 6 193)" fill="#F2A93B"/>
  </mask>
  <path d="M 299.683 370.586 L 234.183 364.454 C 237.595 363.554 238.141 362.286 238.141 362.286 C 238.141 362.286 239.777 360.567 234.707 358.097 C 229.637 355.626 224.979 349.733 221.883 349.788 C 218.787 349.842 215.699 350.674 213.704 350.569 C 215.864 349.802 217.918 348.791 219.823 347.557 C 219.823 347.557 209.731 349.723 204.264 346.897 C 207.098 345.945 209.863 344.816 212.54 343.516 C 212.54 343.516 212.323 340.289 207.892 340.671 C 203.462 341.054 200.75 342.934 196.417 342.872 C 194.257 342.933 192.102 342.628 190.054 341.971 C 193.242 340.459 196.552 339.191 199.953 338.18 C 202.87 337.567 205.836 337.191 208.821 337.056 C 209.801 336.725 213.846 328.317 232.883 303.826 C 236.132 299.646 241.993 293.021 246.151 288.191 C 250.31 283.361 253.792 277.426 253.637 273.462 C 253.483 269.498 250.049 251.553 241.535 244.857 C 233.022 238.162 228.699 234.519 228.699 234.519 C 232.853 236.113 236.781 238.191 240.395 240.703 C 245.246 244.328 248.958 244.644 248.958 244.644 C 248.958 244.644 246.063 238.398 245.064 235.761 C 244.065 233.124 232.411 226.434 228.541 225.236 C 224.671 224.038 208.724 231.601 205.153 235.989 C 205.745 234.303 206.664 232.738 207.864 231.373 C 211.424 227.553 221.897 222.889 221.897 222.889 C 221.897 222.889 201.615 226.947 194.24 234.708 C 194.24 234.708 203.874 221.892 219.079 217.483 C 224.818 215.898 230.82 215.352 236.772 215.871 C 232.751 208.357 219.215 190.086 219.183 190.037 C 206.319 186.534 179.338 189.331 179.338 189.331 C 184.132 186.67 198.373 185.282 206.01 184.703 C 209.01 184.479 210.997 184.386 210.997 184.386 L 210.988 182.462 C 210.952 177.093 209.677 153.39 206.254 141.541 C 201.483 124.954 196.075 111.865 196.075 111.865 C 201.673 118.324 206.768 125.159 211.321 132.318 C 216.412 140.33 218.85 154.155 218.85 154.155 C 218.513 127.881 199.792 96.05 199.792 96.05 C 210.442 105.226 219.49 118.753 225.327 130.09 C 225.944 106.124 220.502 84.886 211.513 78.189 C 214.679 80.341 222.281 85.96 226.057 92.759 C 226.057 92.759 234.84 83.077 239.091 79.32 C 242.634 76.194 246.47 73.382 250.552 70.918 C 250.552 70.918 250.346 70.312 249.977 69.333 C 250.851 68.531 251.812 67.711 252.896 66.878 C 258.505 62.668 259.854 60.151 259.854 60.151 C 257.445 61.223 254.895 61.981 252.272 62.404 C 255.374 60.61 258.292 58.547 260.99 56.239 C 264.457 53.095 266.541 51.121 266.541 51.121 C 264.98 54.282 263.806 57.473 263.806 57.473 C 269.602 55.658 274.688 52.232 278.406 47.641 C 283.943 40.807 292.584 31.496 296.075 27.913 C 298.868 24.92 301.497 21.793 303.952 18.545 C 303.81 20.637 303.779 22.735 303.862 24.831 C 305.015 23.759 310.481 20.234 311.137 19.843 C 313.069 18.958 317.417 18.825 318.176 18.373 C 319.053 17.629 319.616 16.61 319.762 15.503 C 318.884 16.158 317.8 16.516 316.683 16.521 C 317.405 15.498 318.918 15.659 318.804 12.962 C 318.657 11.924 318.16 10.959 317.386 10.212 C 317.386 10.212 317.686 15.635 315.472 15.664 L 310.249 15.882 C 310.249 15.882 313.466 14.967 314.408 13.648 C 315.351 12.329 314.595 8.54 313.696 7.614 C 312.796 6.688 309.823 5.582 310.308 5.479 C 310.793 5.377 315.021 4.504 316.635 4.349 C 318.248 4.193 319.558 3.296 318.027 2.322 C 316.497 1.348 310.799 1.113 310.799 1.113 C 308.154 0.46 304.216 3.395 302.512 5.201 C 300.808 7.007 301.178 10.303 300.123 14.117 C 299.068 17.93 291.236 24.011 291.236 24.011 C 292.271 22.094 293.069 20.071 293.614 17.98 C 293.614 17.98 285.289 24.418 276.32 26.449 C 267.352 28.48 255.133 37.762 249.282 42.811 C 246.167 45.256 242.609 47.142 238.781 48.377 C 243.535 50.974 245.316 57.82 245.989 60.849 C 246.069 61.349 246.191 61.843 246.353 62.325 C 246.353 62.325 242.793 57.025 238.882 54.422 C 236.683 52.959 234.332 51.712 231.865 50.703 C 230.748 50.24 229.602 49.84 228.436 49.504 L 210.051 53.66 C 209.642 52.884 209.04 52.214 208.298 51.707 C 207.911 54.842 204.656 63.738 199.107 68.393 C 197.837 69.395 196.498 70.316 195.099 71.148 C 193.219 71.713 191.69 68.977 192.184 68.053 C 192.462 67.506 195.122 67.256 195.122 67.256 C 194.37 66.904 193.568 66.655 192.741 66.519 C 191.272 66.408 189.839 66.16 189.839 66.16 C 191.216 65.583 192.688 65.236 194.189 65.134 C 195.702 65.11 197.211 64.984 198.705 64.758 C 198.705 64.758 196.855 63.946 195.099 63.326 C 193.624 62.86 192.106 62.527 190.565 62.333 L 191.752 61.438 C 193.132 60.524 194.566 59.685 196.045 58.924 L 193.539 49.231 C 192.721 48.592 191.77 48.125 190.747 47.86 C 188.618 47.164 186.532 46.351 184.501 45.428 L 191.239 45.939 L 189.723 34.362 C 192.162 34.955 194.673 35.239 197.19 35.207 C 199.94 34.918 206.636 31.578 206.636 31.578 L 209.863 40.388 C 209.863 40.388 210.013 35.427 209.835 33.339 C 209.657 31.251 208.236 23.321 207.382 21.715 C 206.159 19.848 204.444 18.315 202.406 17.269 C 192.664 12.543 176.665 12.604 170.099 21.643 C 168.109 24.378 166.388 28.558 168.017 35.462 C 169.051 39.863 169.982 41.127 169.982 41.127 C 169.982 41.127 166.193 41.152 165.901 42.579 C 165.651 45.412 166.396 48.243 168.02 50.632 C 169.448 52.25 171.028 53.743 172.739 55.092 L 173.672 58.513 C 173.992 59.647 174.388 60.761 174.857 61.847 C 171.874 64.591 168.448 66.867 164.709 68.587 C 158.626 71.034 149.842 75.374 149.37 75.605 C 147.295 76.487 145.341 77.607 143.554 78.941 C 147.021 77.964 151.046 77.03 154.383 76.286 C 158.292 75.424 161.245 74.895 161.245 74.895 C 161.245 74.895 160.106 75.643 158.116 76.79 C 154.95 78.604 151.678 80.248 148.317 81.713 C 141.137 84.854 132.038 91.766 127.665 96.092 L 116.199 108.329 C 116.199 108.329 118.013 109.278 120.346 110.73 C 118.297 115.315 113.54 125.65 111.252 128.443 C 108.271 132.065 104.946 136.575 104.946 136.575 L 108.011 136.159 C 110.597 136.407 113.058 137.336 115.115 138.842 C 115.115 138.842 105.163 142.398 98.815 149.287 C 92.467 156.175 91.569 165.657 91.569 165.657 C 90.262 164.213 86.797 160.531 84.981 158.597 C 84.831 158.933 84.691 159.282 84.554 159.608 C 84.416 159.933 84.319 160.077 84.213 160.312 C 84.723 163.827 85.692 169.58 86.901 171.908 C 89.794 177.574 96.02 182.126 96.032 182.127 C 96.045 182.128 82.812 175.329 79.34 170.14 C 80.298 173.94 81.867 177.576 83.99 180.923 C 83.383 180.734 82.79 180.507 82.214 180.244 C 79.86 179.053 77.762 177.455 76.026 175.533 C 75.541 178.973 76.14 180.699 77.918 182.074 C 79.995 183.668 80.209 184.901 82.529 185.344 C 84.85 185.787 83.807 185.696 86.763 187.589 C 89.719 189.482 88.669 186.285 91.763 187.401 C 94.858 188.516 95.239 186.749 95.239 186.749 C 95.239 186.749 97.538 188.465 98.695 187.208 C 99.852 185.952 99.703 183.808 100.797 179.962 C 101.891 176.117 100.694 176.107 98.884 173.675 C 97.073 171.243 95.181 168.318 95.181 168.318 C 96.181 165.588 97.841 163.118 100.029 161.107 C 103.754 157.658 109.995 154.643 113.682 151.782 C 117.7 148.611 118.061 145.637 120.545 142.835 C 123.265 138.406 122.731 137.207 125.43 133.019 C 125.907 132.29 132.299 127.479 131.533 125.706 C 129.82 121.737 127.769 117.907 125.4 114.254 C 126.099 114.806 126.771 115.378 127.383 115.946 C 131.534 119.9 135.784 124.696 135.784 124.696 C 135.784 124.696 139.917 120.896 143.512 117.819 C 150.182 112.722 156.569 107.3 162.647 101.575 C 162.647 101.575 156.201 113.834 152.882 119.712 L 152.707 120.047 C 157.841 117.122 163.28 113.479 163.28 113.479 C 163.28 113.479 149.586 130.982 145.913 141.643 C 145.331 145.504 146.216 157.891 144.352 164.923 C 145.056 164.686 145.784 164.464 146.521 164.265 C 155.819 161.806 168.012 162.975 168.012 162.975 C 164.155 163.324 160.35 164.077 156.667 165.22 C 149.013 167.467 141.006 170.985 137.583 174.202 L 137.211 174.405 C 135.542 176.293 134.018 178.292 132.65 180.387 C 136.254 178.304 140.221 176.847 144.364 176.084 L 144.191 176.245 C 150.877 175.029 157.645 174.269 164.445 173.969 C 175.361 173.476 189.04 176.867 193.699 178.125 C 194.751 178.401 195.346 178.586 195.346 178.586 L 194.387 178.513 C 180.671 176.719 170.911 176.256 156.758 179.064 C 151.507 180.289 146.345 181.832 141.303 183.686 L 141.18 183.549 C 141.18 183.549 137.099 185.001 132.981 186.6 C 131.113 187.316 129.191 188.074 127.742 188.741 C 126.869 189.1 126.019 189.508 125.196 189.961 C 123.33 191.083 120.507 197.892 118.519 203.211 C 111.591 211.469 103.524 220.916 103.524 220.916 C 103.524 220.916 93.338 231.883 91.183 235.266 C 87.164 236.599 83.267 238.241 79.529 240.175 C 79.529 240.175 84.572 234.277 90.996 232.702 C 90.996 232.702 85.276 230.703 82.414 232.05 C 82.414 232.05 84.291 227.905 90.417 227.257 C 90.417 227.257 86.471 220.746 81.106 217.279 C 79.297 216.027 77.713 214.506 76.416 212.775 C 75.756 209.155 78.132 208.791 79.667 205.801 C 81.609 202.043 80.467 199.222 76.864 197.615 C 73.26 196.009 62.067 197.767 62.067 197.767 C 62.067 197.767 68.004 194.741 72.514 194.724 C 65.202 193.501 57.997 191.757 50.961 189.507 C 42.176 186.615 34.975 186.382 28.078 188.188 C 22.281 189.706 25.099 195.842 28.081 198.294 C 30.27 200.014 32.614 201.549 35.086 202.881 C 35.086 202.881 33.846 198.604 39.255 196.905 C 39.255 196.905 36.768 201.19 37.613 204.788 L 39.767 206.192 C 39.634 204.571 40.061 202.953 40.983 201.582 C 41.905 200.211 43.273 199.163 44.88 198.595 C 44.88 198.595 41.62 204.362 42.28 207.831 L 46.167 209.552 C 46.167 209.552 47.053 201.368 52.845 199.907 C 52.845 199.907 49.199 206.919 51.11 210.622 C 52.033 212.431 53.908 213.523 56.917 214.204 C 57.706 215.046 58.398 215.964 58.983 216.945 C 60.746 220.231 60.864 232.153 65.018 240.998 C 69.171 249.843 76.324 263.099 84.794 266.106 C 93.264 269.113 103.227 264.851 111.566 258.982 L 119.225 253.062 C 114.942 251.235 111.217 248.409 108.397 244.847 C 108.397 244.847 112.959 246.085 115.677 247.184 C 118.87 248.155 122.136 248.895 125.448 249.397 C 125.448 249.397 115.807 241.874 112.631 238.968 C 110.758 237.273 109.673 231.454 109.089 226.936 C 115.237 233.429 124.814 243.3 129.035 246.413 C 137.085 252.366 141.081 252.079 141.081 252.079 C 141.081 252.079 158.995 234.954 164.817 231.409 C 164.817 231.409 148.854 232.353 136.68 231.823 C 136.68 231.823 155.128 227.637 164.653 224.374 C 164.653 224.374 151.737 221.632 145.54 222.529 C 145.54 222.529 161.638 219.996 173.074 216.078 C 184.511 212.16 205.865 206.978 212.297 207.64 C 212.297 207.64 188.914 211.821 180.331 219.711 C 180.331 219.711 188.664 218.976 193.257 220.008 C 193.257 220.008 176.587 229.324 174.259 231.871 C 174.259 231.871 185.798 245.425 192.376 252.75 C 198.955 260.075 209.434 262.876 209.434 262.876 C 209.434 262.876 206.86 259.204 204.66 251.249 C 203.861 248.346 203.549 245.342 203.737 242.348 C 204.59 245.87 206.011 249.246 207.951 252.356 C 210.481 256.836 220.971 269.059 221.827 270.793 C 228.891 266.427 233.885 266.898 233.885 266.898 C 230.686 268.464 223.492 274.222 223.492 274.222 C 223.492 274.222 211.396 286.11 207.223 293.279 C 203.051 300.449 197.372 315.629 194.906 319.37 C 194.906 319.37 210.87 300.591 216.415 293.525 C 216.415 293.525 206.858 310.647 199.603 321.326 C 192.711 331.476 188.554 337.454 186.674 340.046 C 185.297 341.877 184.099 343.629 182.11 346.491 C 182.005 346.541 181.918 346.619 181.859 346.715 C 180.882 348.002 179.985 349.342 179.175 350.73 C 178.885 351.141 178.654 351.588 178.488 352.057 C 178.158 352.785 174.034 358.51 178.862 361.101 C 97.259 356.16 96.918 356.145 91.188 355.849 C 86.212 360.896 79.473 364.057 72.224 364.745 C 64.974 365.434 57.708 363.602 51.776 359.591 C 58.04 363.043 65.441 364.139 72.516 362.663 C 79.591 361.188 85.825 357.248 89.985 351.622 C 94.145 345.997 95.928 339.096 94.982 332.283 C 94.035 325.471 90.428 319.243 84.875 314.832 C 84.68 314.817 64.728 312.503 53.764 325.589 C 53.764 325.589 55.859 315.237 63.37 309.769 C 63.874 309.394 64.401 309.047 64.949 308.73 C 63.839 309.144 62.76 309.619 61.703 310.13 C 51.746 314.902 44.389 324.183 43.012 340.511 C 41.552 334.256 42.021 327.733 44.365 321.724 C 45.374 319.064 46.724 316.531 48.385 314.183 C 44.878 316.785 42.051 320.119 40.125 323.927 C 38.2 327.735 37.227 331.913 37.284 336.136 C 37.34 340.358 38.424 344.512 40.451 348.272 C 42.478 352.032 45.393 355.298 48.969 357.814 L -0.271 370.586 L 299.683 370.586 Z" fill="#1C1C1D"/>
  <g mask="url(#mask0_414_59)" transform="matrix(1, 0, 0, 1, -10.271637, -20.038721)">
    <path d="M309.958 390.625L244.458 384.492C247.869 383.592 248.416 382.324 248.416 382.324C248.416 382.324 250.052 380.606 244.982 378.135C239.912 375.664 235.254 369.771 232.158 369.826C229.062 369.88 225.974 370.712 223.979 370.607C226.139 369.84 228.193 368.829 230.098 367.595C230.098 367.595 220.006 369.761 214.539 366.936C217.373 365.983 220.138 364.854 222.815 363.554C222.815 363.554 222.598 360.327 218.167 360.71C213.737 361.092 211.025 362.972 206.692 362.91C204.532 362.971 202.377 362.666 200.329 362.01C203.517 360.497 206.827 359.229 210.228 358.218C213.145 357.605 216.111 357.229 219.095 357.095C220.076 356.764 224.121 348.356 243.158 323.864C246.406 319.684 252.268 313.059 256.426 308.229C260.585 303.4 264.067 297.464 263.912 293.5C263.758 289.537 260.323 271.591 251.81 264.896C243.297 258.2 238.974 254.557 238.974 254.557C243.127 256.152 247.056 258.229 250.67 260.741C255.52 264.366 259.232 264.682 259.232 264.682C259.232 264.682 256.338 258.436 255.339 255.799C254.34 253.162 242.686 246.472 238.816 245.274C234.946 244.077 218.999 251.639 215.428 256.027C216.02 254.341 216.939 252.776 218.139 251.412C221.699 247.591 232.172 242.927 232.172 242.927C232.172 242.927 211.89 246.985 204.515 254.747C204.515 254.747 214.149 241.93 229.354 237.522C235.093 235.937 241.095 235.39 247.047 235.909C243.026 228.396 229.49 210.124 229.458 210.075C216.594 206.572 189.613 209.369 189.613 209.369C194.407 206.708 208.648 205.32 216.284 204.741C219.285 204.517 221.272 204.424 221.272 204.424L221.263 202.5C221.227 197.131 219.952 173.428 216.529 161.579C211.758 144.992 206.35 131.903 206.35 131.903C211.948 138.362 217.043 145.197 221.596 152.356C226.687 160.368 229.125 174.193 229.125 174.193C228.788 147.919 210.067 116.088 210.067 116.088C220.717 125.264 229.765 138.791 235.602 150.128C236.219 126.162 230.777 104.924 221.788 98.227C224.954 100.38 232.556 105.998 236.332 112.797C236.332 112.797 245.115 103.115 249.366 99.3583C252.909 96.2326 256.745 93.4204 260.827 90.9569C260.827 90.9569 260.621 90.3503 260.252 89.3719C261.126 88.5691 262.087 87.7497 263.171 86.9164C268.78 82.7065 270.129 80.1898 270.129 80.1898C267.72 81.2618 265.17 82.0195 262.547 82.4421C265.649 80.6487 268.567 78.585 271.265 76.2778C274.732 73.1338 276.816 71.1596 276.816 71.1596C275.255 74.3207 274.081 77.5114 274.081 77.5114C279.877 75.696 284.963 72.2705 288.68 67.6794C294.218 60.8449 302.859 51.5343 306.35 47.9517C309.143 44.9584 311.772 41.8314 314.227 38.583C314.085 40.6755 314.054 42.7735 314.137 44.869C315.29 43.7976 320.756 40.2722 321.412 39.8816C323.343 38.9968 327.692 38.8633 328.451 38.4109C329.328 37.6673 329.891 36.6481 330.037 35.5414C329.159 36.1964 328.075 36.5546 326.958 36.5593C327.68 35.5363 329.193 35.6975 329.079 33.0002C328.932 31.9622 328.435 30.9973 327.661 30.2503C327.661 30.2503 327.961 35.6735 325.747 35.7025L320.524 35.9203C320.524 35.9203 323.741 35.0056 324.683 33.6864C325.626 32.3672 324.87 28.5782 323.971 27.6524C323.071 26.7265 320.098 25.6201 320.583 25.5179C321.068 25.4156 325.296 24.5428 326.91 24.3872C328.523 24.2315 329.833 23.3342 328.302 22.3605C326.772 21.3867 321.074 21.1513 321.074 21.1513C318.428 20.4985 314.491 23.433 312.787 25.2391C311.083 27.0451 311.452 30.3412 310.398 34.1551C309.343 37.9689 301.511 44.0498 301.511 44.0498C302.546 42.1327 303.343 40.1089 303.889 38.0186C303.889 38.0186 295.563 44.456 286.595 46.4871C277.627 48.5183 265.408 57.8008 259.557 62.8499C256.442 65.2947 252.884 67.1807 249.056 68.4153C253.81 71.0128 255.591 77.8579 256.264 80.8874C256.344 81.3878 256.466 81.8814 256.628 82.3637C256.628 82.3637 253.067 77.0638 249.157 74.4608C246.958 72.997 244.607 71.7506 242.14 70.7413C241.023 70.2785 239.877 69.8781 238.71 69.5423L220.326 73.6981C219.917 72.9222 219.315 72.2522 218.573 71.7455C218.186 74.88 214.931 83.7766 209.382 88.4315C208.112 89.4336 206.773 90.354 205.374 91.1868C203.494 91.751 201.965 89.0159 202.459 88.0914C202.737 87.5447 205.397 87.2946 205.397 87.2946C204.645 86.9421 203.843 86.6939 203.016 86.5576C201.547 86.4461 200.114 86.1983 200.114 86.1983C201.491 85.621 202.963 85.274 204.464 85.1726C205.977 85.1482 207.486 85.0227 208.98 84.7968C208.98 84.7968 207.13 83.9842 205.374 83.3642C203.899 82.8981 202.381 82.5656 200.84 82.3711L202.027 81.4761C203.407 80.5629 204.841 79.7238 206.32 78.9626L203.814 69.2695C202.996 68.6303 202.045 68.1631 201.022 67.8987C198.893 67.202 196.807 66.3898 194.776 65.4661L201.514 65.9775L199.998 54.4009C202.437 54.9938 204.948 55.2778 207.465 55.2458C210.214 54.9561 216.911 51.6168 216.911 51.6168L220.138 60.426C220.138 60.426 220.288 55.4657 220.11 53.3777C219.932 51.2898 218.511 43.3594 217.657 41.7533C216.434 39.8862 214.719 38.3539 212.681 37.3078C202.938 32.5818 186.94 32.6423 180.374 41.6817C178.384 44.4164 176.663 48.5968 178.292 55.5001C179.326 59.9012 180.257 61.1656 180.257 61.1656C180.257 61.1656 176.468 61.1909 176.176 62.6174C175.925 65.4499 176.67 68.2816 178.295 70.6703C179.723 72.2887 181.302 73.7816 183.014 75.1309L183.947 78.551C184.267 79.6851 184.663 80.799 185.132 81.8858C182.149 84.6299 178.723 86.905 174.984 88.6253C168.901 91.0725 160.117 95.4122 159.645 95.643C157.57 96.5251 155.616 97.6457 153.829 98.9795C157.296 98.0026 161.321 97.0681 164.658 96.3247C168.567 95.4625 171.52 94.9333 171.52 94.9333C171.52 94.9333 170.381 95.6813 168.391 96.8282C165.225 98.6423 161.953 100.286 158.592 101.752C151.412 104.892 142.313 111.804 137.94 116.131L126.474 128.367C126.474 128.367 128.287 129.316 130.621 130.768C128.572 135.353 123.815 145.688 121.527 148.481C118.546 152.103 115.221 156.613 115.221 156.613L118.286 156.197C120.872 156.445 123.333 157.374 125.39 158.88C125.39 158.88 115.438 162.436 109.09 169.325C102.742 176.214 101.844 185.695 101.844 185.695C100.537 184.251 97.0719 180.569 95.2558 178.635C95.1052 178.972 94.9658 179.32 94.8284 179.646C94.691 179.972 94.5934 180.115 94.488 180.35C94.9978 183.866 95.9665 189.618 97.1752 191.946C100.069 197.613 106.295 202.164 106.307 202.165C106.32 202.166 93.0867 195.367 89.6147 190.179C90.5729 193.978 92.1411 197.614 94.2642 200.962C93.6573 200.772 93.0642 200.546 92.4889 200.282C90.1349 199.091 88.0362 197.493 86.3008 195.571C85.8151 199.011 86.4148 200.737 88.1926 202.112C90.2695 203.706 90.4832 204.939 92.8039 205.382C95.1247 205.825 94.0816 205.734 97.0375 207.627C99.9933 209.52 98.9435 206.323 102.038 207.439C105.133 208.555 105.514 206.787 105.514 206.787C105.514 206.787 107.813 208.503 108.97 207.246C110.127 205.99 109.978 203.846 111.072 200.001C112.166 196.155 110.969 196.145 109.159 193.713C107.348 191.281 105.456 188.356 105.456 188.356C106.456 185.626 108.116 183.156 110.304 181.145C114.029 177.696 120.27 174.681 123.957 171.821C127.975 168.649 128.336 165.675 130.82 162.873C133.54 158.444 133.006 157.245 135.705 153.057C136.182 152.329 142.574 147.518 141.808 145.744C140.095 141.775 138.044 137.945 135.675 134.292C136.374 134.844 137.046 135.416 137.658 135.984C141.809 139.938 146.059 144.734 146.059 144.734C146.059 144.734 150.192 140.934 153.787 137.857C160.457 132.76 166.844 127.338 172.922 121.613C172.922 121.613 166.475 133.872 163.157 139.751L162.982 140.085C168.116 137.16 173.555 133.517 173.555 133.517C173.555 133.517 159.861 151.02 156.188 161.681C155.605 165.542 156.491 177.929 154.627 184.961C155.331 184.725 156.059 184.502 156.796 184.303C166.094 181.845 178.287 183.013 178.287 183.013C174.429 183.363 170.625 184.115 166.942 185.258C159.287 187.505 151.281 191.023 147.857 194.24L147.486 194.443C145.817 196.332 144.293 198.331 142.925 200.425C146.529 198.342 150.496 196.885 154.639 196.122L154.466 196.283C161.152 195.067 167.92 194.307 174.72 194.007C185.636 193.515 199.315 196.905 203.974 198.163C205.026 198.44 205.621 198.624 205.621 198.624L204.662 198.551C190.946 196.757 181.186 196.294 167.033 199.102C161.782 200.327 156.62 201.871 151.578 203.724L151.455 203.587C151.455 203.587 147.374 205.039 143.256 206.638C141.387 207.354 139.466 208.112 138.017 208.779C137.144 209.138 136.294 209.546 135.471 209.999C133.604 211.121 130.782 217.93 128.794 223.249C121.866 231.507 113.799 240.955 113.799 240.955C113.799 240.955 103.613 251.921 101.458 255.304C97.4389 256.637 93.541 258.279 89.8033 260.214C89.8033 260.214 94.8461 254.315 101.271 252.74C101.271 252.74 95.5507 250.741 92.688 252.089C92.688 252.089 94.565 247.943 100.692 247.296C100.692 247.296 96.745 240.784 91.3805 237.318C89.5716 236.065 87.9877 234.544 86.6901 232.813C86.0302 229.193 88.4068 228.829 89.9419 225.84C91.8839 222.082 90.7413 219.26 87.1381 217.654C83.5349 216.047 72.3415 217.805 72.3415 217.805C72.3415 217.805 78.2781 214.779 82.788 214.762C75.476 213.539 68.2715 211.795 61.2357 209.546C52.4505 206.654 45.2494 206.42 38.3527 208.226C32.5554 209.745 35.3733 215.88 38.3554 218.332C40.5447 220.052 42.8887 221.587 45.3603 222.92C45.3603 222.92 44.1206 218.642 49.5298 216.943C49.5298 216.943 47.0425 221.228 47.8874 224.827L50.0415 226.23C49.9082 224.609 50.335 222.991 51.2575 221.62C52.1799 220.249 53.5477 219.201 55.1542 218.633C55.1542 218.633 51.8942 224.401 52.5545 227.869L56.4413 229.59C56.4413 229.59 57.3272 221.406 63.1196 219.945C63.1196 219.945 59.4735 226.958 61.3849 230.66C62.3075 232.469 64.1824 233.561 67.1917 234.242C67.9803 235.084 68.6727 236.003 69.2575 236.983C71.0207 240.269 71.139 252.191 75.2923 261.036C79.4456 269.881 86.5989 283.137 95.0689 286.144C103.539 289.151 113.502 284.889 121.841 279.02L129.5 273.1C125.217 271.273 121.492 268.447 118.671 264.885C118.671 264.885 123.234 266.123 125.952 267.222C129.145 268.193 132.411 268.933 135.723 269.435C135.723 269.435 126.082 261.913 122.906 259.006C121.033 257.311 119.948 251.492 119.364 246.974C125.512 253.467 135.089 263.338 139.31 266.451C147.36 272.405 151.355 272.117 151.355 272.117C151.355 272.117 169.27 254.992 175.092 251.447C175.092 251.447 159.129 252.391 146.955 251.861C146.955 251.861 165.403 247.676 174.928 244.412C174.928 244.412 162.012 241.67 155.815 242.567C155.815 242.567 171.912 240.034 183.349 236.116C194.786 232.198 216.14 227.016 222.572 227.678C222.572 227.678 199.189 231.86 190.606 239.749C190.606 239.749 198.939 239.014 203.532 240.047C203.532 240.047 186.862 249.362 184.534 251.909C184.534 251.909 196.073 265.463 202.651 272.788C209.23 280.113 219.709 282.914 219.709 282.914C219.709 282.914 217.135 279.242 214.935 271.287C214.136 268.384 213.824 265.381 214.012 262.386C214.865 265.908 216.286 269.284 218.226 272.394C220.756 276.874 231.246 289.097 232.102 290.831C239.166 286.465 244.16 286.937 244.16 286.937C240.961 288.502 233.767 294.26 233.767 294.26C233.767 294.26 221.671 306.148 217.498 313.318C213.326 320.487 207.647 335.667 205.181 339.408C205.181 339.408 221.145 320.629 226.69 313.563C226.69 313.563 217.133 330.685 209.878 341.364C202.986 351.515 198.829 357.492 196.949 360.084C195.572 361.915 194.374 363.667 192.385 366.529C192.28 366.579 192.193 366.657 192.134 366.753C191.156 368.04 190.26 369.381 189.45 370.768C189.16 371.18 188.929 371.626 188.763 372.095C188.433 372.823 184.309 378.548 189.137 381.139C107.534 376.198 107.193 376.183 101.463 375.888C96.4864 380.934 89.7472 384.095 82.498 384.784C75.2488 385.472 67.9827 383.64 62.05 379.629C68.3141 383.081 75.7155 384.177 82.7907 382.702C89.8659 381.226 96.0999 377.286 100.26 371.661C104.42 366.035 106.203 359.134 105.257 352.321C104.31 345.509 100.703 339.281 95.1491 334.87C94.9549 334.855 75.0026 332.541 64.0387 345.628C64.0387 345.628 66.1338 335.275 73.6449 329.808C74.1487 329.432 74.6757 329.085 75.2231 328.769C74.113 329.183 73.0344 329.657 71.9773 330.168C62.0202 334.94 54.664 344.221 53.2865 360.549C51.8261 354.294 52.2957 347.771 54.6392 341.762C55.6485 339.102 56.9988 336.569 58.6598 334.221C55.1523 336.823 52.3255 340.157 50.3999 343.965C48.4743 347.773 47.5018 351.951 47.5583 356.174C47.6147 360.397 48.6986 364.55 50.7255 368.31C52.7523 372.07 55.6673 375.336 59.2432 377.852L10.0031 390.624L309.958 390.625Z" fill="#F2A93B"/>
  </g>
</svg>