<svg width="400" height="165" viewBox="0 0 400 165" fill="none" xmlns="http://www.w3.org/2000/svg">
<path d="M0 41.2743L23.7032 55.0135V91.6621L0 77.9148V41.2743Z" fill="#A9AAAA"/>
<path d="M71.1084 164.959V137.473L102.71 119.149V146.635L71.1084 164.959Z" fill="white"/>
<path d="M118.508 55.0135V137.473L142.211 123.726V41.2743L118.508 55.0135Z" fill="white"/>
<path d="M0 123.725L71.1095 164.959V137.473L0 96.239V123.725Z" fill="#A9AAAA"/>
<path d="M71.1095 0.0405273L0 41.2743L23.7032 55.0135L94.8045 13.7878L71.1095 0.0405273Z" fill="#929191"/>
<path d="M86.9072 36.6891L110.61 22.95L142.212 41.2743L118.509 55.0134L86.9072 36.6891Z" fill="#929191"/>
<path d="M102.71 64.1755L71.1086 45.8512L39.499 64.1755L71.1086 82.4998L102.71 64.1755Z" fill="#929191"/>
<path d="M71.1084 82.5001V119.149L102.71 100.824V64.1758L71.1084 82.5001Z" fill="white"/>
<path d="M39.499 64.1758V100.824L71.1086 119.149V82.5001L39.499 64.1758Z" fill="#A9AAAA"/>
<path d="M232.693 44.9473H215.688L198.862 60.185H192.407V44.9473H180.032V85.7739H192.407V70.1045H198.618L216.97 85.7739H234.948L209.347 65.1447L232.693 44.9473Z" fill="white"/>
<path d="M283.951 44.9473H258.107V54.1909H283.951V44.9473Z" fill="white"/>
<path d="M251.1 69.795H282.061V60.6166H251.1V44.9473H238.912V85.7739H284.38V76.5302H251.1V69.795Z" fill="white"/>
<path d="M332.631 60.9181C330.563 60.7959 325.081 60.6167 323.979 60.6167H312.463C308.409 60.5516 308.198 60.4946 307.46 60.3073C306.71 60.1936 306.027 59.8057 305.544 59.2181C305.061 58.6305 304.81 57.8845 304.841 57.1229C304.841 54.8018 305.927 54.191 309.228 54.191H341.551V44.6379H317.475C308.879 44.6379 303.819 45.0044 300.592 45.8025C294.745 47.2115 292.669 50.3307 292.669 57.6767C292.669 63.2473 294.007 66.4887 296.934 68.0198C299.554 69.3636 302.668 69.7952 310.16 69.7952H321.375C327.774 69.8604 327.774 69.8604 329.12 70.2839C329.75 70.4372 330.306 70.8121 330.685 71.341C331.064 71.8698 331.243 72.5175 331.188 73.1669C331.188 76.4245 329.493 76.5223 316.721 76.5304H292.669V86.0509H317.353C326.192 86.0509 332.226 85.6844 335.275 85.0085C341.243 83.7298 343.441 80.4233 343.441 72.89C343.441 64.7133 340.392 61.2846 332.631 60.9181Z" fill="white"/>
<path d="M400 44.9473H351.977V54.1909H381.9L351.183 76.4081V85.7739H399.976V76.5302H368.917L400 54.3049V44.9473Z" fill="white"/>
<path d="M191.205 112.259H194.408V118.432C193.547 119.072 192.581 119.557 191.554 119.865C190.503 120.189 189.41 120.356 188.31 120.362C186.837 120.386 185.382 120.039 184.077 119.352C182.855 118.71 181.833 117.741 181.126 116.551C180.421 115.318 180.051 113.921 180.051 112.499C180.051 111.077 180.421 109.681 181.126 108.447C181.84 107.255 182.87 106.285 184.102 105.646C185.425 104.964 186.896 104.62 188.383 104.644C189.618 104.627 190.844 104.853 191.992 105.312C193.041 105.739 193.974 106.408 194.717 107.266L192.462 109.351C191.968 108.804 191.365 108.368 190.691 108.072C190.018 107.775 189.289 107.626 188.554 107.633C187.659 107.616 186.775 107.826 185.983 108.244C185.245 108.633 184.637 109.231 184.231 109.962C183.816 110.74 183.599 111.609 183.599 112.491C183.599 113.373 183.816 114.242 184.231 115.02C184.637 115.748 185.238 116.346 185.967 116.746C186.748 117.17 187.625 117.383 188.513 117.365C189.458 117.379 190.392 117.155 191.23 116.714L191.205 112.259Z" fill="white"/>
<path d="M208.859 120.101L205.94 115.866H202.697V120.101H199.193V104.904H205.746C206.945 104.875 208.136 105.103 209.241 105.572C210.185 105.967 210.985 106.644 211.535 107.51C212.084 108.377 212.356 109.391 212.314 110.418C212.352 111.443 212.074 112.454 211.516 113.313C210.958 114.172 210.149 114.837 209.2 115.215L212.598 120.101H208.859ZM207.976 108.447C207.27 107.938 206.409 107.696 205.543 107.763H202.721V113.065H205.575C206.443 113.134 207.306 112.888 208.008 112.372C208.267 112.116 208.473 111.811 208.614 111.474C208.755 111.137 208.827 110.775 208.827 110.41C208.827 110.044 208.755 109.683 208.614 109.346C208.473 109.009 208.267 108.703 208.008 108.447H207.976Z" fill="white"/>
<path d="M219.704 119.344C218.46 118.696 217.422 117.713 216.706 116.504C215.989 115.295 215.623 113.909 215.649 112.503C215.619 111.073 215.987 109.663 216.711 108.431C217.422 107.236 218.45 106.263 219.679 105.621C220.994 104.952 222.447 104.604 223.921 104.604C225.394 104.604 226.847 104.952 228.162 105.621C229.388 106.268 230.414 107.24 231.13 108.431C231.676 109.333 232.033 110.337 232.179 111.382C232.325 112.427 232.257 113.492 231.979 114.51C231.701 115.527 231.219 116.478 230.563 117.302C229.906 118.126 229.089 118.807 228.162 119.303C226.847 119.972 225.394 120.321 223.921 120.321C222.447 120.321 220.994 119.972 219.679 119.303L219.704 119.344ZM226.37 116.746C227.085 116.339 227.674 115.742 228.072 115.02C228.477 114.242 228.689 113.377 228.689 112.499C228.689 111.621 228.477 110.756 228.072 109.978C227.672 109.257 227.083 108.66 226.37 108.252C225.624 107.841 224.787 107.626 223.937 107.626C223.086 107.626 222.25 107.841 221.504 108.252C220.791 108.658 220.204 109.256 219.809 109.978C219.404 110.756 219.193 111.621 219.193 112.499C219.193 113.377 219.404 114.242 219.809 115.02C220.202 115.743 220.789 116.342 221.504 116.746C222.25 117.157 223.086 117.372 223.937 117.372C224.787 117.372 225.624 117.157 226.37 116.746Z" fill="white"/>
<path d="M238.036 118.562C237.404 117.872 236.917 117.059 236.607 116.175C236.296 115.29 236.167 114.351 236.227 113.415V104.905H239.731V113.285C239.731 116 240.855 117.357 243.104 117.357C243.568 117.388 244.034 117.316 244.467 117.146C244.9 116.976 245.29 116.711 245.61 116.372C246.259 115.478 246.567 114.379 246.478 113.277V104.905H249.916V113.415C250.02 114.347 249.915 115.291 249.608 116.177C249.302 117.063 248.802 117.869 248.144 118.535C247.487 119.201 246.69 119.711 245.81 120.027C244.931 120.344 243.993 120.458 243.064 120.362C242.148 120.415 241.232 120.283 240.368 119.973C239.505 119.664 238.712 119.184 238.036 118.562Z" fill="white"/>
<path d="M265.014 105.597C265.7 105.925 266.309 106.395 266.802 106.976C267.295 107.557 267.661 108.235 267.876 108.967C268.091 109.699 268.15 110.468 268.049 111.225C267.949 111.981 267.691 112.708 267.293 113.358C266.742 114.211 265.948 114.878 265.014 115.272C263.908 115.735 262.717 115.96 261.519 115.931H258.47V120.126H254.967V104.904H261.519C262.72 104.882 263.911 105.118 265.014 105.597ZM263.7 112.356C263.975 112.118 264.192 111.819 264.332 111.483C264.473 111.146 264.534 110.782 264.511 110.418C264.533 110.049 264.472 109.68 264.331 109.339C264.191 108.997 263.975 108.693 263.7 108.447C262.996 107.937 262.134 107.694 261.268 107.763H258.413V113.04H261.268C262.134 113.109 262.996 112.866 263.7 112.356Z" fill="white"/>
</svg>
