<svg width="400" height="265" viewBox="0 0 400 265" fill="none" xmlns="http://www.w3.org/2000/svg">
<path fill-rule="evenodd" clip-rule="evenodd" d="M207.21 39.8448L206.077 43.3009L205.998 43.4912C205.935 43.657 205.825 43.8003 205.681 43.9033C205.538 44.0062 205.368 44.0641 205.192 44.0697H185.21C185.133 44.0663 185.057 44.0467 184.987 44.0121C184.918 43.9775 184.856 43.9287 184.806 43.8688C184.757 43.8089 184.72 43.7392 184.698 43.6641C184.676 43.589 184.67 43.5102 184.68 43.4327C184.687 43.3479 184.705 43.2643 184.731 43.1837L184.797 43.0226L186.038 39.5007C186.095 39.3315 186.204 39.1847 186.348 39.081C186.493 38.9773 186.666 38.9218 186.843 38.9223H206.644C206.726 38.9213 206.808 38.9369 206.885 38.9681C206.961 38.9993 207.031 39.0455 207.09 39.1041C207.148 39.1627 207.195 39.2324 207.227 39.3093C207.259 39.3862 207.275 39.4687 207.275 39.552C207.267 39.6522 207.245 39.7509 207.21 39.8448M226.001 19.5921C226.002 18.7491 225.838 17.9142 225.519 17.1352C225.2 16.3562 224.732 15.6482 224.141 15.0518C223.551 14.4554 222.85 13.9823 222.078 13.6595C221.306 13.3368 220.478 13.1706 219.643 13.1706H182.365L178.947 23.4947H211.252C211.335 23.4947 211.417 23.5112 211.493 23.5433C211.569 23.5754 211.638 23.6225 211.696 23.6817C211.754 23.741 211.8 23.8112 211.831 23.8885C211.862 23.9657 211.878 24.0484 211.877 24.1317C211.877 24.2782 210.606 28.071 210.606 28.071C210.544 28.2368 210.434 28.3801 210.29 28.483C210.147 28.5859 209.977 28.6438 209.801 28.6494H181.814C179.397 28.6494 176.377 30.9046 175.354 33.936C174.33 36.9673 171.485 45.6513 171.485 45.6513C171.103 46.625 170.962 47.6783 171.076 48.7194C171.19 49.7604 171.554 50.7577 172.137 51.6241C172.721 52.4905 173.505 53.1999 174.423 53.6903C175.34 54.1807 176.362 54.4373 177.401 54.4377H209.235C210.85 54.4386 212.424 53.9312 213.74 52.9861C215.055 52.0411 216.045 50.7056 216.573 49.1658L225.551 21.9644C225.849 21.2096 226.002 20.4045 226.001 19.5921V19.5921ZM317.04 27.7561L318.172 24.3074L318.252 24.1097C318.315 23.944 318.425 23.8006 318.568 23.6977C318.711 23.5948 318.882 23.5369 319.057 23.5313H339.039C339.116 23.5337 339.192 23.5524 339.261 23.5862C339.331 23.6199 339.393 23.6681 339.443 23.7274C339.493 23.7867 339.53 23.856 339.551 23.9307C339.573 24.0054 339.579 24.0838 339.569 24.161C339.563 24.2459 339.546 24.3295 339.518 24.41L339.453 24.571L338.233 28.093C338.177 28.2616 338.07 28.4081 337.927 28.5119C337.783 28.6157 337.611 28.6715 337.435 28.6714H317.606C317.523 28.6724 317.441 28.6566 317.364 28.6248C317.287 28.5931 317.218 28.5461 317.16 28.4866C317.101 28.4272 317.056 28.3565 317.025 28.2788C316.994 28.2011 316.98 28.118 316.982 28.0344C316.986 27.9391 317.006 27.8452 317.04 27.7561V27.7561ZM312.373 43.4693C312.373 43.3228 313.65 39.5227 313.65 39.5227C313.71 39.3564 313.818 39.2122 313.961 39.109C314.103 39.0058 314.273 38.9484 314.449 38.9442H342.436C344.853 38.9442 347.872 36.6891 348.896 33.6577C349.919 30.6264 352.764 21.9424 352.764 21.9424C353.146 20.9693 353.287 19.9166 353.174 18.8761C353.06 17.8356 352.696 16.8389 352.114 15.9726C351.532 15.1064 350.748 14.3969 349.832 13.9059C348.915 13.415 347.894 13.1576 346.856 13.156H315.022C313.407 13.1551 311.832 13.6625 310.517 14.6075C309.201 15.5525 308.211 16.888 307.684 18.4278L298.698 45.6659C298.316 46.6391 298.176 47.6917 298.289 48.7322C298.402 49.7727 298.766 50.7695 299.349 51.6357C299.931 52.502 300.715 53.2114 301.631 53.7023C302.547 54.1933 303.569 54.4507 304.606 54.4524H341.862L345.281 44.1356H312.975C312.892 44.1328 312.81 44.1132 312.734 44.078C312.659 44.0428 312.591 43.9927 312.535 43.9306C312.478 43.8685 312.435 43.7957 312.407 43.7164C312.38 43.6372 312.368 43.5532 312.373 43.4693ZM366.743 13.1926C365.129 13.1928 363.554 13.7006 362.239 14.6455C360.924 15.5903 359.933 16.9252 359.405 18.4644L347.517 54.4524H361.082L371.57 24.1464C371.631 23.9806 371.739 23.837 371.881 23.7339C372.024 23.6308 372.193 23.573 372.368 23.5679H396.523L400 13.1999L366.743 13.1926ZM238.137 43.3814C238.145 43.2975 238.16 43.2143 238.18 43.1325L252.696 0.364319H238.732L223.555 45.6659C223.173 46.6396 223.032 47.6929 223.146 48.734C223.259 49.7751 223.624 50.7723 224.207 51.6387C224.79 52.5052 225.575 53.2145 226.492 53.7049C227.41 54.1953 228.432 54.4519 229.47 54.4524H254.09L257.523 44.0331H238.797C238.71 44.0382 238.623 44.025 238.542 43.9943C238.46 43.9636 238.386 43.916 238.324 43.8546C238.262 43.7933 238.213 43.7195 238.181 43.638C238.148 43.5565 238.133 43.4691 238.137 43.3814V43.3814ZM275.755 43.3814C275.766 43.2972 275.783 43.214 275.806 43.1325L290.322 0.364319H276.351L261.174 45.6659C260.791 46.6408 260.651 47.6954 260.765 48.7377C260.879 49.7799 261.245 50.778 261.83 51.6448C262.415 52.5116 263.202 53.2206 264.121 53.7101C265.04 54.1995 266.064 54.4543 267.104 54.4524H291.723L295.156 44.0331H276.387C276.303 44.0331 276.219 44.0161 276.142 43.9832C276.064 43.9503 275.994 43.9021 275.935 43.8413C275.876 43.7806 275.83 43.7087 275.799 43.6297C275.768 43.5507 275.753 43.4663 275.755 43.3814V43.3814ZM162.899 28.6201H139.949C139.866 28.6211 139.784 28.6055 139.708 28.5743C139.631 28.5431 139.561 28.4969 139.503 28.4383C139.444 28.3797 139.397 28.31 139.365 28.2331C139.334 28.1562 139.317 28.0737 139.317 27.9904C139.323 27.9056 139.34 27.8219 139.368 27.7415L140.674 24.0805C140.732 23.9124 140.839 23.7665 140.982 23.6629C141.125 23.5592 141.297 23.503 141.473 23.502H173.249L176.653 13.134H137.401C135.769 13.1385 134.177 13.6477 132.84 14.5929C131.503 15.5382 130.486 16.874 129.925 18.4205C128.902 21.4445 126.064 30.0846 126.064 30.0846C125.681 31.0583 125.541 32.1116 125.655 33.1527C125.768 34.1937 126.133 35.191 126.716 36.0574C127.299 36.9238 128.084 37.6332 129.001 38.1236C129.919 38.614 130.941 38.8706 131.979 38.871H155.278C155.36 38.871 155.442 38.8875 155.518 38.9196C155.595 38.9517 155.664 38.9988 155.722 39.058C155.78 39.1173 155.826 39.1876 155.857 39.2648C155.888 39.3421 155.903 39.4247 155.902 39.508C155.899 39.6082 155.879 39.7072 155.844 39.8009L154.603 43.4693C154.54 43.635 154.43 43.7784 154.287 43.8813C154.143 43.9842 153.973 44.0421 153.797 44.0477H121.317L117.927 54.4524H157.412C159.044 54.4478 160.636 53.9387 161.973 52.9934C163.309 52.0482 164.327 50.7123 164.888 49.1658L168.814 37.4505C169.112 36.6931 169.264 35.8856 169.264 35.0709C169.475 31.505 166.412 28.6201 162.899 28.6201ZM111.969 13.1706H16.771C15.1588 13.1729 13.5871 13.6808 12.2737 14.624C10.9603 15.5672 9.97014 16.8991 9.44027 18.4352L0.447449 45.6659C0.0652964 46.6391 -0.075242 47.6917 0.0380737 48.7322C0.151389 49.7727 0.515124 50.7695 1.0976 51.6357C1.68008 52.502 2.46364 53.2114 3.38006 53.7023C4.29647 54.1933 5.31796 54.4507 6.35556 54.4524H101.56C103.176 54.4543 104.751 53.9473 106.066 53.0021C107.382 52.057 108.372 50.7209 108.898 49.1805L117.884 21.979C118.266 21.0053 118.407 19.952 118.293 18.9109C118.179 17.8698 117.815 16.8726 117.232 16.0062C116.648 15.1398 115.864 14.4304 114.947 13.94C114.029 13.4496 113.007 13.193 111.969 13.1926V13.1706ZM107.214 31.754C107.168 31.6795 107.104 31.6181 107.028 31.5758C106.952 31.5335 106.866 31.5116 106.779 31.5124H65.8504C65.7273 31.5138 65.6085 31.5584 65.5145 31.6386C65.4204 31.7187 65.357 31.8294 65.3351 31.9517C65.3321 31.9833 65.3321 32.0152 65.3351 32.0469C65.3355 32.1568 65.3691 32.264 65.4313 32.3542C65.4935 32.4445 65.5815 32.5135 65.6835 32.5521L78.7118 37.4725C74.5747 40.1231 55.0939 51.1135 25.9452 44.9191L28.5364 41.5143C28.6065 41.4217 28.6447 41.3086 28.6453 41.1921C28.6433 41.1083 28.6235 41.0259 28.5872 40.9505C28.5444 40.8614 28.4772 40.7865 28.3936 40.7347C28.3101 40.6828 28.2135 40.656 28.1154 40.6576L9.2443 40.5917C9.13051 40.5894 9.01903 40.6242 8.92634 40.6908C8.83366 40.7575 8.76471 40.8524 8.7297 40.9617C8.69469 41.0709 8.69548 41.1886 8.73195 41.2974C8.76842 41.4062 8.83863 41.5002 8.9322 41.5655C17.3444 47.6428 37.3986 51.6187 57.6995 51.2307C74.9521 50.8938 102.845 43.3302 107.28 32.2446C107.31 32.1636 107.319 32.0766 107.308 31.9911C107.296 31.9055 107.264 31.8241 107.214 31.754V31.754ZM9.18623 35.6347H50.0858C50.2101 35.6349 50.3306 35.5911 50.4262 35.5108C50.5217 35.4305 50.5862 35.3188 50.6084 35.1954C50.6122 35.1637 50.6122 35.1318 50.6084 35.1002C50.6091 34.9919 50.5767 34.886 50.5157 34.7969C50.4546 34.7078 50.3679 34.6399 50.2672 34.6023L37.2026 29.6745C41.3397 27.0239 60.8133 16.0335 89.9692 22.2353L87.378 25.6328C87.3192 25.7129 87.2827 25.8074 87.2725 25.9066C87.2623 26.0058 87.2787 26.1059 87.32 26.1965C87.3632 26.2859 87.4302 26.3613 87.5135 26.4143C87.5969 26.4674 87.6932 26.4959 87.7917 26.4967L106.663 26.5553C106.775 26.5553 106.884 26.5196 106.974 26.4534C107.065 26.3871 107.132 26.2936 107.167 26.1864C107.201 26.0791 107.201 25.9635 107.167 25.8562C107.133 25.7488 107.065 25.6552 106.975 25.5888C98.5555 19.5042 78.5086 15.5283 58.2149 15.9164C40.955 16.2532 13.0621 23.8169 8.6201 34.9025C8.58806 34.9836 8.57624 35.0715 8.58568 35.1584C8.59512 35.2453 8.62552 35.3285 8.67423 35.4007C8.72294 35.473 8.78846 35.5321 8.86507 35.5729C8.94168 35.6137 9.02703 35.6349 9.11365 35.6347H9.18623Z" fill="white"/>
<path d="M12.3596 198.073C15.5062 198.079 18.6242 198.674 21.5556 199.826C22.3219 199.007 19.7471 198.281 20.4904 197.447C17.7393 196.883 15.0188 197.377 12.3367 198.073M91.4985 125.959C93.1768 137.029 92.2649 149.011 86.3641 158.737C79.2909 170.471 67.2059 178.235 54.7607 183.179C59.2131 180.228 64.0179 177.841 68.2021 174.542C78.241 167.026 85.6361 155.67 86.9925 143.008C84.9158 145.225 82.6091 147.296 79.6971 148.323C85.2911 141.887 89.3305 134.232 91.4985 125.959V125.959ZM81.2297 170.517C86.3357 166.972 90.8958 162.687 94.7631 157.802C93.3377 165.651 90.8395 173.762 85.0614 179.494C77.3981 187.111 66.248 189.869 55.7876 190.124C63.4509 188.795 71.3824 187.08 77.6126 182.097C82.0114 178.775 85.1073 174.109 87.7359 169.304C85.6086 169.909 83.4307 170.315 81.2297 170.517V170.517ZM80.6473 186.74C85.4599 184.77 90.4487 183.179 94.7478 180.089C91.3223 186.168 86.8393 192.225 80.1875 194.882C72.4476 198.104 63.7727 197.038 55.9408 194.759C62.6769 195.717 69.8191 196.535 76.2946 193.847C80.0572 192.441 83.1915 189.869 86.1725 187.204C84.3261 187.139 82.4844 186.977 80.655 186.717L80.6473 186.74ZM76.7544 198.776C80.9407 198.694 85.0844 197.911 89.0156 196.458C85.4522 200.545 81.1301 204.43 75.6738 205.543C69.5892 206.964 63.3282 205.164 57.7724 202.615C61.7496 203.334 65.6732 204.701 69.7578 204.415C73.5894 204.33 77.0226 202.685 80.4021 201.116C79.176 200.313 77.9575 199.54 76.762 198.753L76.7544 198.776ZM75.4822 210.139C79.2449 210.819 83.1455 210.41 86.7779 209.753C82.8543 211.082 79.5055 223.743 58.7073 210.688C64.8379 213.739 71.9954 215.601 78.5092 212.573C77.4977 211.746 76.4938 210.95 75.4822 210.139ZM57.7187 217.548C62.5466 220.924 68.2021 223.218 74.1948 222.422C73.5358 221.449 72.8665 220.483 72.187 219.525C75.4524 220.621 78.8558 221.242 82.2949 221.372C78.7008 223.017 74.8845 224.639 70.8613 224.462C65.7422 224.191 61.0676 221.348 57.7187 217.548ZM53.8871 221.688C56.8681 226.2 60.7151 231.175 66.5085 231.631L67.4358 229.854C69.4282 231.159 71.551 232.256 73.5664 233.515C70.049 233.755 66.2939 234.149 63.0524 232.449C58.5617 230.371 55.9408 225.929 53.8487 221.688H53.8871ZM40.5912 233.739C43.4803 235.516 46.423 237.741 50.0018 237.525C56.0558 237.455 62.1558 234.551 68.1025 237.069C64.8379 237.355 61.4814 237.208 58.3088 238.166C54.9369 239.116 51.5191 240.723 47.9403 239.981C44.5762 239.286 42.3461 236.428 40.5529 233.739H40.5912ZM44.4919 241.186C47.0821 242.083 49.8562 243.558 52.6226 242.477C55.6343 241.387 58.7533 240.46 61.9642 240.653C58.4314 241.696 55.1362 243.388 51.6647 244.585C48.7373 245.381 46.4307 243.04 44.4919 241.186ZM69.934 125.102C74.6469 118.473 78.5169 111.297 82.8927 104.452C85.7664 118.358 85.843 133.591 79.2373 146.461C73.007 158.528 62.2017 167.427 50.8907 174.372C60.2476 166.253 69.5125 157.501 74.8615 146.098C79.2859 137.272 80.5734 127.183 78.5092 117.515C68.9684 134.209 57.895 150.03 44.875 164.175C41.8097 167.613 41.3959 172.588 42.2695 176.945C43.7255 184.523 48.2469 191.12 49.3657 198.791C51.3812 208.169 49.8179 217.532 39.618 215.377L39.2348 215.269C38.4732 215.086 37.7212 214.864 36.9818 214.604C34.8591 214.056 32.6444 213.832 31.0734 215.67C28.6595 219.093 29.2266 223.666 29.8243 227.567C31.357 237.038 39.8786 244.076 48.8906 245.899C61.2132 248.332 80.3944 238.011 105.798 242.979C195.85 259.889 281.357 261.102 371.968 244.091C381.317 242.353 390.513 239.881 400 238.684C301.389 272.21 210.9 270.889 112.626 248.201C101.898 245.961 91.0004 243.566 79.8733 243.751C75.5129 243.751 71.2521 244.524 66.9913 245.211C66.225 245.343 65.405 245.466 64.6157 245.574C60.3089 246.347 53.7798 247.892 48.4844 246.849C39.8862 245.435 33.0965 239.294 27.5636 232.905C21.8468 226.455 17.655 218.799 14.4747 210.788L14.1988 209.514C12.2907 206.609 11.1335 203.874 7.15626 202.206C4.81129 200.823 2.2824 202.121 0.0677091 203.071C-0.698621 197.826 5.21745 196.891 8.84219 195.454C15.3407 192.472 22.5825 193.978 29.1806 195.709C28.2993 196.62 27.4027 197.501 26.4908 198.389C30.8972 204.106 37.4953 209.815 45.1432 208.208L45.9096 208.023C47.6951 203.635 47.1587 201.943 45.8636 198.529C43.9478 190.201 39.2042 182.847 33.9088 176.218C31.7861 173.128 28.5982 169.529 29.9086 165.481C32.3838 162.707 36.1082 161.541 38.9896 159.239C51.4961 150.146 61.1442 137.724 69.934 125.102Z" fill="white"/>
<path d="M97.6589 232.604C98.8053 232.903 99.9702 233.125 101.146 233.268C102.614 233.465 104.094 233.565 105.575 233.57C108.349 233.57 109.736 233.147 109.736 232.303C109.736 231.674 108.137 231.087 104.939 230.541C102.79 230.211 100.694 229.601 98.7011 228.726C97.1276 227.928 96.3434 226.977 96.3485 225.875C96.3485 224.469 97.4341 223.321 99.6054 222.43C101.777 221.539 104.776 221.073 108.602 221.032C110.189 221.027 111.775 221.104 113.353 221.263C114.523 221.374 115.685 221.557 116.833 221.812L115.116 225.141C114.932 225.095 114.756 225.056 114.572 225.026C114.388 224.995 114.15 224.941 113.943 224.91C113.461 224.802 112.963 224.724 112.449 224.662C111.146 224.492 109.832 224.407 108.518 224.408C105.951 224.408 104.686 224.786 104.686 225.559C104.686 226.074 106.51 226.676 110.158 227.366C115.43 228.365 118.069 229.91 118.074 232.001C118.074 233.423 117.019 234.579 114.909 235.47C112.615 236.443 109.343 236.933 105.092 236.938C103.354 236.936 101.616 236.836 99.889 236.636C98.6272 236.506 97.3753 236.292 96.1416 235.995L97.6589 232.604Z" fill="white"/>
<path d="M168.407 220.962H169.357C175.355 220.962 179.307 221.851 181.212 223.627C181.549 223.929 181.822 224.296 182.016 224.706C182.209 225.116 182.319 225.561 182.339 226.014C182.339 228.538 179.912 230.222 175.059 231.067C173.128 231.36 171.179 231.504 169.227 231.499H169.181V228.332C169.583 228.26 169.991 228.229 170.399 228.239C171.026 228.166 171.646 228.045 172.254 227.876C173.488 227.444 174.108 226.864 174.108 226.13C174.108 225.211 173.235 224.585 171.488 224.292C170.812 224.202 170.131 224.156 169.449 224.153C168.514 224.153 167.717 224.199 167.051 224.245V236.76H166.966H158.904H158.812V221.333C158.812 221.333 159.732 221.24 161.571 221.148C163.656 221.024 165.934 220.962 168.407 220.962Z" fill="white"/>
<path d="M248.051 234.442C245.247 236.049 241.584 236.853 237.062 236.853C232.464 236.853 228.817 236.049 226.119 234.442C223.682 232.975 222.456 231.113 222.456 228.865C222.456 226.455 223.677 224.511 226.119 223.033C228.561 221.554 231.882 220.736 236.081 220.576V223.952C234.692 224.022 233.368 224.567 232.326 225.497C231.896 225.909 231.556 226.409 231.33 226.962C231.105 227.516 230.997 228.112 231.016 228.71C231 229.366 231.139 230.016 231.422 230.607C231.704 231.198 232.122 231.713 232.641 232.109C233.976 233.076 235.596 233.56 237.239 233.485C238.882 233.569 240.505 233.084 241.837 232.109C242.334 231.718 242.74 231.221 243.028 230.655C243.316 230.089 243.478 229.467 243.504 228.831C243.529 228.195 243.417 227.562 243.176 226.974C242.934 226.386 242.569 225.858 242.105 225.427C240.98 224.491 239.584 223.949 238.127 223.882V220.506C242.465 220.584 245.901 221.41 248.435 222.986C250.846 224.469 252.054 226.329 252.059 228.564C252.059 230.922 250.716 232.867 248.028 234.396" fill="white"/>
<path d="M301.111 220.985H301.157V227.853H303.602C305.533 227.853 306.928 227.49 307.809 226.771C308.017 226.566 308.145 226.292 308.169 225.999V225.79C308.169 225.087 307.472 224.578 306.085 224.245C305.385 224.113 304.674 224.051 303.962 224.06H303.326H303.28V220.97L303.326 220.924H303.464C310.039 220.924 314.093 221.812 315.626 223.589C316.12 224.124 316.394 224.828 316.392 225.559C316.392 226.941 315.066 228.092 312.407 229.027C311.979 229.168 311.541 229.277 311.097 229.352V229.398C311.622 229.528 312.134 229.704 312.629 229.923C313.801 230.514 314.741 231.485 315.296 232.681C315.963 234.083 316.731 235.434 317.595 236.721H309.165C308.462 235.986 307.894 235.131 307.487 234.195C307.166 233.324 306.708 232.51 306.131 231.785C305.533 231.159 304.414 230.843 302.79 230.843H301.165V236.698H301.073H293.027H292.935V221.356C292.935 221.356 293.854 221.263 295.693 221.171C298.284 221.047 300.092 220.985 301.119 220.985" fill="white"/>
<path d="M365.799 224.747H358.021V221.263H381.899V224.747H373.983V236.737H365.799V224.747Z" fill="white"/>
<path d="M208.44 159.818H118.519C115.439 159.735 112.436 160.802 110.089 162.815C107.816 164.803 106.181 167.749 105.185 171.653L102.426 182.793C101.736 185.543 101.552 187.721 101.859 189.297C101.971 190.025 102.261 190.713 102.703 191.299C103.144 191.886 103.723 192.352 104.388 192.657C106.227 193.397 108.204 193.724 110.181 193.615H125.554C126.286 193.586 127.019 193.643 127.738 193.785C127.931 193.808 128.115 193.879 128.273 193.992C128.431 194.106 128.558 194.258 128.642 194.434C128.746 194.885 128.72 195.357 128.566 195.794L127.73 199.224C127.631 199.731 127.419 200.209 127.11 200.622C126.782 200.963 126.35 201.184 125.883 201.248C125.139 201.369 124.385 201.421 123.63 201.402H118.266H97.9431L95.0693 209.637H131.524C134.073 209.717 136.609 209.229 138.949 208.208C140.872 207.301 142.505 205.869 143.662 204.075C144.928 202.021 145.843 199.768 146.367 197.408L149.364 185.257C149.954 182.862 149.969 180.915 149.364 179.432C149.061 178.685 148.604 178.011 148.022 177.455C147.441 176.9 146.749 176.476 145.992 176.211C143.901 175.464 141.687 175.125 139.471 175.214H126.144C125.405 175.246 124.665 175.194 123.937 175.06C123.439 174.952 123.117 174.751 123.002 174.434C122.877 173.974 122.893 173.486 123.048 173.036L123.745 170.232C123.845 169.732 124.06 169.263 124.374 168.864C124.711 168.521 125.149 168.296 125.623 168.223C126.382 168.093 127.152 168.036 127.922 168.053H206.317L208.44 159.818ZM158.82 173.059L155.326 182.167C156.475 181.726 157.456 181.394 158.276 181.101C159.031 180.863 159.799 180.67 160.575 180.521C161.312 180.388 162.057 180.306 162.805 180.274C163.572 180.236 164.491 180.22 165.541 180.22H176.898L147.984 209.66H196.179L199.704 200.39C199.027 200.757 198.325 201.077 197.604 201.348C196.61 201.705 195.583 201.963 194.539 202.121C192.997 202.358 191.439 202.469 189.88 202.453H177.021L205.229 173.02L158.82 173.059ZM227.146 192.603L231.338 209.66H253.362C252.88 208.888 252.512 208.216 252.213 207.675C251.931 207.174 251.675 206.658 251.447 206.13C251.247 205.651 251.025 205.103 250.818 204.485C250.611 203.867 250.328 203.094 250.052 202.167L243.239 181.611L252.726 175.376C253.529 174.876 254.375 174.452 255.255 174.11C256.129 173.77 257.018 173.461 257.907 173.198L257.945 173.043H241.477C241.212 173.637 240.905 174.21 240.557 174.758C240.123 175.421 239.608 176.025 239.024 176.558C238.135 177.383 237.181 178.134 236.174 178.806L225.698 185.89L232.143 159.803H213.919L211.85 168.215L203.689 201.248C203.428 202.323 203.108 203.383 202.731 204.423C202.457 205.188 202.127 205.932 201.742 206.648C201.435 207.21 201.092 207.752 200.716 208.27C200.355 208.733 199.949 209.205 199.589 209.66H221.813C221.652 209.205 221.514 208.733 221.384 208.27C221.247 207.739 221.164 207.195 221.138 206.648C221.114 205.904 221.152 205.16 221.253 204.423C221.403 203.353 221.615 202.293 221.889 201.248L223.422 195.068L227.146 192.603ZM259.233 201.248C258.968 202.322 258.649 203.382 258.275 204.423C258.001 205.188 257.67 205.932 257.286 206.648C256.978 207.21 256.635 207.752 256.259 208.27C255.891 208.733 255.493 209.205 255.133 209.66H277.356C277.203 209.205 277.065 208.733 276.935 208.27C276.798 207.739 276.716 207.195 276.69 206.648C276.665 205.904 276.704 205.16 276.805 204.423C276.954 203.353 277.167 202.293 277.441 201.248L284.399 173.059H264.183C264.353 173.514 264.496 173.978 264.612 174.449C264.75 174.98 264.832 175.524 264.857 176.072C264.89 176.808 264.851 177.545 264.742 178.273C264.596 179.35 264.389 180.418 264.122 181.472L259.233 201.248ZM237.561 159.818L235.515 168.076H291.457L293.488 159.818H237.561ZM296.285 173.059H288.445L286.683 180.22H294.484L290.024 198.212C289.509 200.041 289.335 201.95 289.51 203.843C289.63 205.139 290.153 206.364 291.005 207.343C291.818 208.213 292.855 208.839 294.001 209.151C295.306 209.511 296.656 209.683 298.009 209.66H320.876L324.156 201.093C323.834 201.232 323.39 201.418 322.731 201.626C321.977 201.873 321.21 202.072 320.432 202.221C319.389 202.403 318.333 202.494 317.274 202.491H310.86C310.086 202.532 309.31 202.449 308.561 202.244C308.36 202.185 308.181 202.068 308.045 201.907C307.909 201.747 307.822 201.55 307.795 201.34C307.759 200.729 307.834 200.117 308.017 199.533L312.807 180.22H327.221L328.984 173.059H314.477L317.88 159.718L299.633 159.818L296.285 173.059ZM324.01 159.818L321.857 168.076H362.756C363.389 168.038 364.022 168.152 364.603 168.408C364.792 168.507 364.953 168.654 365.07 168.834C365.187 169.014 365.255 169.221 365.27 169.436C365.158 170.557 364.958 171.668 364.672 172.758C364.535 173.409 364.297 174.035 363.967 174.612C363.699 175.075 363.287 175.436 362.794 175.639C362.149 175.86 361.468 175.962 360.787 175.94H344.165C342.351 175.906 340.547 176.204 338.839 176.821C337.345 177.417 336.009 178.356 334.938 179.563C333.734 180.96 332.766 182.547 332.072 184.26C331.176 186.445 330.454 188.697 329.911 190.997L329.015 194.596C328.23 197.36 327.823 200.219 327.804 203.094C327.88 205.319 328.57 206.957 329.812 208.046C331.053 209.135 333.084 209.629 335.781 209.629H348.763C350.118 209.677 351.473 209.529 352.786 209.189C353.816 208.898 354.745 208.323 355.468 207.528C356.334 206.508 357.037 205.359 357.553 204.121H357.706L357.262 209.629H375.5C375.287 208.918 375.153 208.185 375.102 207.443C375.032 206.477 375.068 205.505 375.209 204.546C375.4 203.117 375.679 201.7 376.044 200.305L381.409 178.567C382.553 174.025 383.064 170.378 382.941 167.628C382.788 164.87 381.983 162.846 380.497 161.618C379.01 160.39 376.803 159.795 373.899 159.795L324.01 159.818ZM361.476 185.689L359.714 192.796C359.32 194.372 358.968 195.639 358.656 196.597C358.426 197.366 358.068 198.089 357.599 198.737C357.252 199.198 356.765 199.532 356.212 199.687C355.518 199.862 354.803 199.935 354.089 199.904H349.836C349.103 199.912 348.374 199.791 347.682 199.548C347.431 199.454 347.21 199.291 347.043 199.079C346.877 198.866 346.772 198.612 346.74 198.343C346.655 197.44 346.748 196.529 347.016 195.663L348.441 189.93C348.64 188.983 348.998 188.077 349.499 187.25C349.858 186.68 350.398 186.25 351.031 186.029C351.777 185.802 352.551 185.688 353.33 185.689H361.476Z" fill="white"/>
</svg>
