<svg width="216" height="251" viewBox="0 0 216 251" fill="none" xmlns="http://www.w3.org/2000/svg">
<path d="M131.963 68.022V50.3844H84.0454V68.022H103.601V112.078L81.5649 134.242V93.1912H72.7686V143.102L49.1943 166.815V93.1912H40.3829V170.545C40.3805 172.095 40.5555 173.64 40.9046 175.15L17.9344 198.248C10.2264 189.406 6.18099 179.634 3.6742 170.373C-6.61566 132.471 12.2078 116.788 24.314 86.2488C31.9056 67.0876 26.1452 38.3645 8.43633 25.9281C14.7859 19.5786 25.8901 7.67508 25.8901 7.67508C25.8901 7.67508 68.3367 25.2114 108.025 0.544983C147.721 25.2226 190.156 7.67508 190.156 7.67508C190.156 7.67508 194.063 11.8706 198.57 16.5989L112.427 103.226V68.022H131.963Z" fill="white"/>
<path d="M81.5631 134.245V170.545C81.5552 176.006 79.3834 181.241 75.5232 185.104C71.6631 188.967 66.4295 191.143 60.9685 191.155C56.3051 191.151 51.7809 189.566 48.1344 186.659C44.488 183.752 41.9348 179.695 40.8916 175.15L49.1813 166.815V170.545C49.1833 173.671 50.4256 176.668 52.6356 178.879C54.8456 181.09 57.8426 182.333 60.9685 182.336C64.0963 182.336 67.0961 181.094 69.3086 178.883C71.521 176.672 72.7649 173.673 72.7669 170.545V143.102L81.5631 134.245Z" fill="white"/>
<path d="M112.407 103.226V191.155H103.6V112.082L112.407 103.226Z" fill="white"/>
<path d="M165.865 162.428C164.575 168.901 162.702 174.272 160.458 177.964C158.792 180.704 156.987 182.34 155.624 182.34C151.496 182.34 143.499 168.162 143.499 142.186C143.499 116.21 151.511 102.014 155.624 102.014C156.987 102.014 158.792 103.65 160.458 106.389C162.709 110.082 164.586 115.452 165.865 121.925L166.732 126.245L175.364 124.518L174.5 120.199C171.07 103.042 164.188 93.2023 155.617 93.2023C151.114 93.2023 144.682 95.9681 139.796 109.132C136.497 118.03 134.681 129.772 134.681 142.186C134.681 154.6 136.497 166.338 139.796 175.236C144.674 188.404 151.095 191.166 155.617 191.166C164.188 191.166 171.07 181.327 174.5 164.169L175.364 159.85L166.732 158.124L165.865 162.428Z" fill="white"/>
<path d="M91.8447 205.164H94.5091C94.5441 205.163 94.5789 205.17 94.6112 205.184C94.6435 205.197 94.6726 205.217 94.6967 205.243C94.7217 205.267 94.7413 205.296 94.7542 205.329C94.7672 205.361 94.7732 205.396 94.7718 205.43V220.321C94.7734 220.356 94.7675 220.391 94.7546 220.423C94.7416 220.455 94.7219 220.485 94.6967 220.509C94.6726 220.534 94.6435 220.554 94.6112 220.568C94.5789 220.582 94.5441 220.588 94.5091 220.588H91.931C91.896 220.588 91.8613 220.581 91.8291 220.567C91.7968 220.554 91.7677 220.534 91.7433 220.509C91.7189 220.484 91.6996 220.455 91.6868 220.423C91.6739 220.39 91.6676 220.356 91.6683 220.321V208.181C91.6664 208.15 91.6546 208.119 91.6345 208.095C91.631 208.088 91.6261 208.082 91.6202 208.077C91.6143 208.072 91.6074 208.069 91.6 208.067C91.5926 208.064 91.5849 208.064 91.5773 208.065C91.5697 208.066 91.5623 208.068 91.5557 208.072L89.7507 208.425L89.6644 208.448C89.5293 208.448 89.4655 208.369 89.4655 208.204V206.327C89.4613 206.262 89.4783 206.196 89.5141 206.141C89.5499 206.085 89.6026 206.043 89.6644 206.02L91.5144 205.228C91.6196 205.186 91.7316 205.165 91.8447 205.164Z" fill="white"/>
<path d="M106.605 216.797C106.627 217.342 106.526 217.885 106.308 218.385C106.09 218.884 105.762 219.328 105.348 219.683C104.412 220.432 103.235 220.814 102.038 220.756C100.869 220.809 99.7223 220.423 98.8221 219.676C98.4161 219.32 98.0945 218.879 97.8808 218.384C97.6672 217.888 97.567 217.351 97.5875 216.812V216.174C97.5866 216.139 97.5931 216.104 97.6067 216.072C97.6203 216.04 97.6406 216.011 97.6663 215.987C97.6902 215.961 97.7193 215.941 97.7516 215.927C97.784 215.913 97.8188 215.907 97.8539 215.908H100.428C100.463 215.907 100.498 215.914 100.53 215.927C100.563 215.941 100.592 215.961 100.616 215.987C100.642 216.011 100.662 216.04 100.675 216.072C100.689 216.104 100.696 216.139 100.695 216.174V216.505C100.67 216.914 100.804 217.318 101.07 217.63C101.188 217.768 101.335 217.878 101.5 217.953C101.666 218.027 101.845 218.065 102.027 218.062C102.223 218.067 102.418 218.03 102.598 217.954C102.779 217.878 102.941 217.763 103.074 217.619C103.35 217.311 103.496 216.907 103.479 216.493V214.332C103.479 214.29 103.479 214.264 103.438 214.257C103.421 214.254 103.404 214.255 103.388 214.261C103.372 214.267 103.358 214.277 103.348 214.29C102.799 214.782 102.08 215.041 101.344 215.015C100.628 215.034 99.9223 214.839 99.3175 214.456C98.7409 214.076 98.2882 213.536 98.0153 212.902C97.497 212.039 97.2366 211.045 97.2648 210.039C97.2407 209.125 97.4526 208.22 97.8802 207.412C98.1717 206.668 98.699 206.041 99.3813 205.626C100.154 205.194 101.03 204.982 101.914 205.01C102.777 204.986 103.63 205.197 104.384 205.618C105.073 206.019 105.614 206.633 105.926 207.367L105.971 207.479C106.385 208.217 106.59 209.054 106.564 209.9L106.605 216.797ZM103.475 210.076C103.484 209.638 103.432 209.201 103.322 208.778C103.268 208.459 103.099 208.171 102.847 207.969C102.596 207.766 102.278 207.663 101.956 207.678C101.265 207.678 100.804 208.054 100.571 208.804C100.462 209.228 100.409 209.665 100.413 210.102C100.4 210.604 100.475 211.105 100.635 211.581C100.72 211.86 100.897 212.103 101.136 212.27C101.376 212.437 101.664 212.52 101.956 212.504C102.244 212.517 102.529 212.434 102.765 212.266C103.001 212.099 103.175 211.858 103.258 211.581C103.422 211.097 103.496 210.587 103.475 210.076Z" fill="white"/>
<path d="M110.987 205.164H113.655C113.69 205.163 113.724 205.17 113.756 205.184C113.787 205.197 113.816 205.217 113.839 205.243C113.864 205.267 113.885 205.296 113.898 205.328C113.912 205.361 113.918 205.395 113.918 205.43V220.321C113.919 220.356 113.912 220.391 113.899 220.423C113.885 220.456 113.865 220.485 113.839 220.509C113.816 220.534 113.787 220.554 113.756 220.568C113.724 220.581 113.69 220.588 113.655 220.588H111.077C111.042 220.588 111.007 220.582 110.975 220.568C110.943 220.554 110.913 220.534 110.889 220.509C110.864 220.485 110.843 220.456 110.83 220.423C110.816 220.391 110.81 220.356 110.811 220.321V208.181C110.809 208.15 110.797 208.119 110.777 208.095C110.774 208.088 110.769 208.082 110.764 208.077C110.758 208.073 110.751 208.069 110.744 208.067C110.737 208.065 110.73 208.064 110.722 208.065C110.715 208.066 110.708 208.068 110.702 208.072L108.897 208.425L108.807 208.448C108.675 208.448 108.608 208.369 108.608 208.204V206.327C108.605 206.262 108.622 206.197 108.658 206.142C108.694 206.086 108.746 206.044 108.807 206.02L110.657 205.228C110.762 205.187 110.874 205.165 110.987 205.164Z" fill="white"/>
<path d="M126.191 215.63C126.204 216.444 126.054 217.253 125.752 218.009C125.464 218.846 124.901 219.561 124.153 220.036C123.336 220.537 122.391 220.79 121.433 220.764C120.341 220.799 119.269 220.474 118.382 219.837C117.567 219.245 117.011 218.362 116.828 217.371C116.709 216.879 116.642 216.376 116.629 215.87C116.624 215.834 116.628 215.797 116.639 215.763C116.651 215.729 116.67 215.697 116.696 215.672C116.722 215.646 116.754 215.627 116.788 215.616C116.823 215.605 116.86 215.602 116.896 215.608H119.47C119.506 215.602 119.543 215.605 119.577 215.616C119.612 215.627 119.644 215.646 119.669 215.672C119.695 215.697 119.715 215.729 119.727 215.763C119.738 215.797 119.742 215.834 119.737 215.87C119.757 216.182 119.801 216.492 119.868 216.797C119.938 217.171 120.136 217.509 120.427 217.754C120.71 217.992 121.071 218.118 121.44 218.107C121.795 218.116 122.143 217.999 122.42 217.777C122.697 217.55 122.894 217.241 122.983 216.895C123.104 216.42 123.163 215.932 123.159 215.442C123.166 214.945 123.107 214.449 122.983 213.968C122.888 213.605 122.684 213.281 122.397 213.041C122.128 212.82 121.788 212.703 121.44 212.711C121.118 212.723 120.809 212.839 120.558 213.041C120.513 213.071 120.459 213.087 120.404 213.086C120.363 213.087 120.323 213.079 120.285 213.063C120.246 213.048 120.212 213.025 120.183 212.996L118.885 211.543C118.857 211.518 118.834 211.488 118.819 211.453C118.803 211.419 118.795 211.382 118.795 211.345C118.797 211.311 118.806 211.277 118.822 211.247C118.837 211.217 118.858 211.19 118.885 211.168L122.168 207.975C122.18 207.963 122.189 207.949 122.193 207.933C122.197 207.917 122.196 207.9 122.191 207.885C122.181 207.87 122.168 207.858 122.152 207.851C122.136 207.844 122.118 207.841 122.101 207.843H117.188C117.153 207.844 117.119 207.837 117.086 207.824C117.054 207.81 117.025 207.79 117.001 207.764C116.975 207.74 116.955 207.711 116.942 207.679C116.928 207.647 116.921 207.612 116.922 207.577V205.442C116.921 205.406 116.928 205.372 116.942 205.339C116.955 205.307 116.975 205.278 117.001 205.254C117.025 205.228 117.054 205.208 117.086 205.195C117.119 205.181 117.153 205.174 117.188 205.175H125.82C125.855 205.174 125.889 205.181 125.922 205.195C125.954 205.208 125.983 205.228 126.007 205.254C126.033 205.278 126.053 205.307 126.066 205.339C126.08 205.372 126.087 205.406 126.086 205.442V207.622C126.078 207.743 126.032 207.859 125.955 207.952L123.223 210.838C123.163 210.898 123.178 210.939 123.264 210.969C123.888 211.063 124.468 211.343 124.93 211.772C125.403 212.227 125.742 212.804 125.91 213.439C126.116 214.15 126.211 214.889 126.191 215.63Z" fill="white"/>
<path d="M108.005 3.17191C122.145 11.6642 138.087 15.9685 155.409 15.9685C172.296 15.9685 185.269 11.8406 189.521 10.317C190.985 11.8781 193.825 14.899 196.921 18.1564C198.959 20.2992 201.698 23.1549 204.187 25.688C196.479 31.955 190.771 41.5581 187.979 53.0376C185.119 64.8135 185.727 77.2199 189.626 87.0782C192.853 95.1877 196.471 102.171 199.984 108.926C204.727 118.042 209.208 126.65 211.474 136.174C213.974 146.682 213.564 157.373 210.187 169.802C207.185 180.891 202.779 189.481 196.355 196.822C187.952 206.44 176.357 213.54 160.911 218.527C146.799 223.118 133.373 229.595 120.997 237.782C116.471 240.764 112.133 244.022 108.009 247.539C103.885 244.022 99.5474 240.764 95.021 237.782C82.6439 229.586 69.2152 223.101 55.0999 218.505C39.6314 213.51 28.0243 206.395 19.6146 196.739C13.235 189.399 8.83685 180.828 5.82344 169.753C2.44603 157.325 2.04072 146.637 4.54001 136.126C6.79162 126.601 11.2949 117.993 16.027 108.877C19.5395 102.123 23.1571 95.1577 26.3844 87.0481C30.291 77.1898 30.8876 64.7835 28.0281 53.0075C25.2398 41.5281 19.5282 31.925 11.824 25.658C16.9614 20.4042 23.8964 13.0527 26.4895 10.272C30.7413 11.8068 43.7143 15.9235 60.6013 15.9235C77.9237 15.9235 93.8652 11.6192 108.005 3.12688M108.005 0.5C91.6098 10.6923 74.749 13.6832 60.6013 13.6832C40.4982 13.6832 25.8778 7.64134 25.8778 7.64134C25.8778 7.64134 14.7623 19.5486 8.4128 25.8982C26.1217 38.3308 31.8858 67.0538 24.2904 86.215C12.1805 116.758 -6.64299 132.444 3.65062 170.339C6.17243 179.608 10.2066 189.369 17.9108 198.214C25.6151 207.059 37.0908 215.041 54.402 220.629C87.9022 231.436 107.998 250.5 107.998 250.5C107.998 250.5 128.09 231.436 161.59 220.629C196.152 209.472 207.305 188.907 212.349 170.343C222.642 132.441 203.819 116.762 191.709 86.2188C184.113 67.0576 189.874 38.3346 207.583 25.9019C205.001 23.3201 201.631 19.8188 198.543 16.5727C194.039 11.8369 190.121 7.6451 190.121 7.6451C190.121 7.6451 175.486 13.6869 155.398 13.6869C141.25 13.6869 124.389 10.6848 107.994 0.503756L108.005 0.5Z" fill="white"/>
</svg>
