<svg width="56" height="62" viewBox="0 0 56 62" fill="none" xmlns="http://www.w3.org/2000/svg">
<g>
<path d="M28.0001 13.969L21.5952 18.6228L24.0418 26.155H31.9602L34.4068 18.6228L28.0001 13.969Z" stroke-width="2" stroke-linecap="round" stroke-linejoin="round"/>
<path d="M38.6777 31.8975H38.6795L43.8104 30.7144" stroke-width="2" stroke-linecap="round" stroke-linejoin="round"/>
<path d="M24.0415 26.1548L19.6445 32.4339" stroke-width="2" stroke-linecap="round" stroke-linejoin="round"/>
<path d="M12.1909 30.7144L19.6426 32.434L20.7332 34.1134" stroke-width="2" stroke-linecap="round" stroke-linejoin="round"/>
<path d="M42.503 32.4287C42.9716 31.8831 43.4081 31.3107 43.8102 30.7144L43.9151 30.5553C43.9501 30.5046 43.9833 30.4522 44.0165 30.3998C45.4219 28.2317 46.3676 25.7984 46.7951 23.2504C46.9739 22.1967 47.0633 21.1298 47.0625 20.061C47.0692 15.718 45.5857 11.5041 42.8596 8.12321C41.1054 5.93921 38.8918 4.16833 36.376 2.93637C33.769 1.65801 30.9033 0.995517 27.9998 1.00002C25.0965 0.995782 22.2309 1.65763 19.6236 2.93462V2.93462C17.1088 4.16742 14.8964 5.93889 13.1435 8.12321C10.4205 11.5053 8.94007 15.719 8.94926 20.061C8.94848 21.1298 9.03793 22.1967 9.21665 23.2504C9.66599 25.9233 10.6839 28.4686 12.2016 30.7144C12.7033 31.4574 13.2569 32.164 13.8583 32.8289" stroke-width="2" stroke-linecap="round" stroke-linejoin="round"/>
<path d="M28 13.9882V6.32324" stroke-width="2" stroke-linecap="round" stroke-linejoin="round"/>
<path d="M36.3797 2.93457L28 6.32315L19.6221 2.93457" stroke-width="2" stroke-linecap="round" stroke-linejoin="round"/>
<path d="M35.5093 31.2228L31.96 26.1548" stroke-width="2" stroke-linecap="round" stroke-linejoin="round"/>
<path d="M34.4067 18.6227L41.8113 16.6392" stroke-width="2" stroke-linecap="round" stroke-linejoin="round"/>
<path d="M46.7969 23.252L41.811 16.6391L42.8596 8.11963" stroke-width="2" stroke-linecap="round" stroke-linejoin="round"/>
<path d="M21.5948 18.6227L14.1885 16.6392" stroke-width="2" stroke-linecap="round" stroke-linejoin="round"/>
<path d="M13.1419 8.11963L14.1887 16.6391L9.20459 23.252" stroke-width="2" stroke-linecap="round" stroke-linejoin="round"/>
</g>
<g>
<path d="M1.63574 26.5078L11.0343 30.4416L5.41055 46.7414L1.63574 45.5374" stroke-width="2" stroke-linecap="round" stroke-linejoin="round"/>
<path d="M21.1491 34.1902L10.4312 32.1909" stroke-width="2" stroke-linecap="round" stroke-linejoin="round"/>
<path d="M10.0155 45.02L6.61816 43.241" stroke-width="2" stroke-linecap="round" stroke-linejoin="round"/>
<path d="M53.7368 26.5078L43.8804 30.4539L49.4902 46.7414L54.3642 45.0201" stroke-width="2" stroke-linecap="round" stroke-linejoin="round"/>
<path d="M44.3695 31.8746L40.1578 33.1258C40.1578 33.1258 39.4762 32.1297 38.5849 31.8676C37.6937 31.6054 29.0448 29.9295 28.2584 30.1392C27.472 30.3489 20.1321 34.5396 19.8699 35.2212C19.6078 35.9028 18.1398 40.3556 18.0874 41.7712C19.136 42.7673 22.7535 45.2821 24.903 38.9943C27.839 38.3127 29.7788 37.7884 29.7788 37.7884" stroke-width="2" stroke-linecap="round" stroke-linejoin="round"/>
<path d="M32.0335 39.833L45.9443 47.9209C46.514 48.2519 46.9316 48.7926 47.108 49.4274C47.2843 50.0622 47.2053 50.7408 46.888 51.3182C46.5746 51.8933 46.05 52.3241 45.425 52.5198C44.7999 52.7154 44.1232 52.6605 43.5379 52.3667L37.6939 49.4273L40.0602 50.6174C40.6639 50.9208 41.1296 51.4425 41.3627 52.0767C41.5957 52.711 41.5787 53.4101 41.315 54.0322V54.0322C41.1685 54.3782 40.9504 54.6893 40.6751 54.9451C40.3998 55.2008 40.0734 55.3954 39.7176 55.5161C39.3617 55.6367 38.9844 55.6807 38.6103 55.6452C38.2362 55.6096 37.8739 55.4953 37.5471 55.3097L33.1782 52.8334L35.4343 54.1143C35.9991 54.4347 36.4159 54.9633 36.5959 55.5871C36.7758 56.2109 36.7045 56.8804 36.3972 57.4523V57.4523C36.0916 58.0222 35.5758 58.4506 34.9594 58.6464C34.343 58.8422 33.6745 58.79 33.096 58.5008L30.3471 57.1307C30.7665 59.7521 29.4558 62.4224 25.7334 59.8552" stroke-width="2" stroke-linecap="round" stroke-linejoin="round"/>
<path d="M48.5063 43.8823L46.6923 44.7369L45.9775 47.9402" stroke-width="2" stroke-linecap="round" stroke-linejoin="round"/>
<path d="M12.7924 54.4904L11.8663 53.5659C11.487 53.1861 11.2739 52.6713 11.2739 52.1346C11.2739 51.5979 11.487 51.0831 11.8663 50.7033L14.5068 48.0645C14.8866 47.6852 15.4014 47.4722 15.9381 47.4722C16.4748 47.4722 16.9897 47.6852 17.3694 48.0645L18.2956 48.9907C18.4838 49.1785 18.6332 49.4016 18.7351 49.6472C18.837 49.8928 18.8894 50.1561 18.8894 50.422C18.8894 50.6879 18.837 50.9511 18.7351 51.1967C18.6332 51.4423 18.4838 51.6654 18.2956 51.8532L15.6568 54.4904C15.4688 54.6786 15.2456 54.828 14.9998 54.9299C14.7541 55.0318 14.4906 55.0843 14.2246 55.0843C13.9586 55.0843 13.6952 55.0318 13.4494 54.9299C13.2037 54.828 12.9804 54.6786 12.7924 54.4904V54.4904Z" stroke-width="2" stroke-linecap="round" stroke-linejoin="round"/>
<path d="M9.89649 49.8102L8.97026 48.8857C8.59099 48.5059 8.37793 47.9911 8.37793 47.4544C8.37793 46.9177 8.59099 46.4029 8.97026 46.0232L10.1761 44.8208C10.3639 44.6326 10.587 44.4833 10.8326 44.3814C11.0782 44.2795 11.3415 44.2271 11.6074 44.2271C11.8732 44.2271 12.1366 44.2795 12.3822 44.3814C12.6278 44.4833 12.8508 44.6326 13.0387 44.8208L13.9649 45.7453C14.3442 46.1251 14.5572 46.6398 14.5572 47.1766C14.5572 47.7133 14.3442 48.2281 13.9649 48.6079L12.7608 49.8102C12.5728 49.9985 12.3496 50.1478 12.1039 50.2497C11.8581 50.3516 11.5947 50.4041 11.3286 50.4041C11.0626 50.4041 10.7992 50.3516 10.5534 50.2497C10.3077 50.1478 10.0845 49.9985 9.89649 49.8102V49.8102Z" stroke-width="2" stroke-linecap="round" stroke-linejoin="round"/>
<path d="M17.4585 57.4018L16.534 56.4756C16.3459 56.2879 16.1966 56.065 16.0947 55.8195C15.9928 55.5741 15.9404 55.3109 15.9404 55.0452C15.9404 54.7794 15.9928 54.5163 16.0947 54.2708C16.1966 54.0254 16.3459 53.8024 16.534 53.6148L18.535 51.6138C18.7228 51.4256 18.9459 51.2762 19.1915 51.1743C19.4371 51.0725 19.7004 51.02 19.9663 51.02C20.2322 51.02 20.4955 51.0725 20.7411 51.1743C20.9867 51.2762 21.2097 51.4256 21.3976 51.6138L22.3238 52.5383C22.512 52.7261 22.6613 52.9492 22.7632 53.1948C22.8651 53.4404 22.9176 53.7036 22.9176 53.9695C22.9176 54.2354 22.8651 54.4987 22.7632 54.7443C22.6613 54.9899 22.512 55.213 22.3238 55.4008L20.3228 57.4018C19.9427 57.7812 19.4277 57.9943 18.8906 57.9943C18.3536 57.9943 17.8386 57.7812 17.4585 57.4018V57.4018Z" stroke-width="2" stroke-linecap="round" stroke-linejoin="round"/>
<path d="M22.0301 60.4076L21.1039 59.4814C20.7247 59.1019 20.5117 58.5874 20.5117 58.051C20.5117 57.5146 20.7247 57.0001 21.1039 56.6206L22.6103 55.1142C22.7983 54.9259 23.0215 54.7765 23.2673 54.6746C23.513 54.5727 23.7764 54.5203 24.0424 54.5203C24.3085 54.5203 24.5719 54.5727 24.8177 54.6746C25.0634 54.7765 25.2866 54.9259 25.4746 55.1142L26.4008 56.0386C26.7801 56.4184 26.9931 56.9332 26.9931 57.4699C26.9931 58.0067 26.7801 58.5214 26.4008 58.9012L24.8926 60.4076C24.5129 60.7869 23.9981 60.9999 23.4614 60.9999C22.9247 60.9999 22.4099 60.7869 22.0301 60.4076V60.4076Z" stroke-width="2" stroke-linecap="round" stroke-linejoin="round"/>
</g>
</svg>
