<svg width="63" height="62" viewBox="0 0 63 62" fill="none" xmlns="http://www.w3.org/2000/svg">
<g>
<path d="M22.9244 15.6837L20.5616 13.9675L14.1548 18.6215L15.2226 21.9071" stroke-width="2" stroke-linecap="round" stroke-linejoin="round"/>
<path d="M15.9406 27.0975L12.2041 32.4331" stroke-width="2" stroke-linecap="round" stroke-linejoin="round"/>
<path d="M4.75049 30.7134L12.2042 32.4331L16.2255 38.6267" stroke-width="2" stroke-linecap="round" stroke-linejoin="round"/>
<path d="M39.1652 15.8934C38.5306 13.0489 37.2491 10.3889 35.42 8.1199V8.1199C33.6652 5.93825 31.4531 4.16823 28.9397 2.93467V2.93467C26.3323 1.65765 23.4666 0.995782 20.5633 1.00002C17.6597 0.995517 14.7939 1.65803 12.1869 2.93642C9.671 4.16841 7.45731 5.93934 5.7031 8.1234C2.97694 11.5044 1.49331 15.7184 1.50002 20.0615C1.49924 21.1303 1.58869 22.1972 1.76742 23.251C2.21677 25.924 3.2347 28.4694 4.7524 30.7151C7.44231 34.7059 11.5412 37.5325 16.2274 38.6284C17.6489 38.9594 19.1037 39.126 20.5633 39.1248C21.7108 39.1253 22.856 39.0229 23.9852 38.8189" stroke-width="2" stroke-linecap="round" stroke-linejoin="round"/>
<path d="M20.5615 13.9867V6.32153" stroke-width="2" stroke-linecap="round" stroke-linejoin="round"/>
<path d="M28.9398 2.93286L20.5616 6.32153L12.1816 2.93286" stroke-width="2" stroke-linecap="round" stroke-linejoin="round"/>
<path d="M35.42 8.11816V8.11991L34.5112 15.5037" stroke-width="2" stroke-linecap="round" stroke-linejoin="round"/>
<path d="M14.1547 18.6215L6.75 16.6379" stroke-width="2" stroke-linecap="round" stroke-linejoin="round"/>
<path d="M5.70159 8.11816L6.75018 16.6379L1.76416 23.251" stroke-width="2" stroke-linecap="round" stroke-linejoin="round"/>
</g>
<g>
<path d="M37.8457 61.0001H23.9834V27.5118L17.6045 31.243L14.1914 22.746L22.8265 15.7135L30.9408 13.3018" stroke-width="2" stroke-linecap="round" stroke-linejoin="round"/>
<path d="M37.8458 15.9634C34.763 15.9634 32.1118 14.8694 30.9409 13.3018" stroke-width="2" stroke-linecap="round" stroke-linejoin="round"/>
<path d="M37.8456 18.9711C32.7932 18.9711 30.156 16.9019 28.1934 14.1179" stroke-width="2" stroke-linecap="round" stroke-linejoin="round"/>
<path d="M37.8457 61.0001H51.708V27.5118L58.0886 31.243L61.5 22.746L52.8649 15.7135L44.7524 13.3018" stroke-width="2" stroke-linecap="round" stroke-linejoin="round"/>
<path d="M37.8457 15.9634C40.9285 15.9634 43.5797 14.8694 44.7523 13.3018" stroke-width="2" stroke-linecap="round" stroke-linejoin="round"/>
<path d="M37.8457 18.9711C42.8999 18.9711 45.5353 16.9019 47.4997 14.1179" stroke-width="2" stroke-linecap="round" stroke-linejoin="round"/>
</g>
</svg>
