<svg width="21" height="17" viewBox="0 0 21 17" fill="none" xmlns="http://www.w3.org/2000/svg">
<path d="M17.8788 0.64209H3.66829C3.28884 0.64209 2.9131 0.716832 2.56253 0.862041C2.21196 1.00725 1.89344 1.22009 1.62513 1.48841C1.35681 1.75672 1.14397 2.07524 0.99876 2.42581C0.85355 2.77638 0.778809 3.15212 0.778809 3.53157V13.4684C0.778809 13.8479 0.85355 14.2236 0.99876 14.5742C1.14397 14.9247 1.35681 15.2433 1.62513 15.5116C1.89344 15.7799 2.21196 15.9927 2.56253 16.1379C2.9131 16.2831 3.28884 16.3579 3.66829 16.3579H17.8788C18.6447 16.3565 19.3789 16.0516 19.9204 15.51C20.462 14.9685 20.7669 14.2343 20.7683 13.4684V3.53157C20.7669 2.76567 20.462 2.03151 19.9204 1.48993C19.3789 0.948352 18.6447 0.643481 17.8788 0.64209ZM17.8788 2.02103C17.9941 2.02174 18.1089 2.03587 18.2209 2.06315L12.2314 8.87368C12.0497 9.08065 11.8258 9.24645 11.5749 9.36004C11.324 9.47364 11.0516 9.5324 10.7762 9.5324C10.5007 9.5324 10.2284 9.47364 9.97748 9.36004C9.72653 9.24645 9.50268 9.08065 9.3209 8.87368L3.32092 2.06315C3.43287 2.03554 3.54772 2.02139 3.66302 2.02103H17.8788ZM19.3841 13.4684C19.3841 13.8676 19.2255 14.2505 18.9432 14.5328C18.6609 14.8151 18.278 14.9737 17.8788 14.9737H3.66829C3.26859 14.9737 2.88517 14.8153 2.60204 14.5331C2.31891 14.251 2.15915 13.8681 2.15775 13.4684V3.53157C2.15803 3.33457 2.19739 3.13956 2.27354 2.95788L8.28935 9.79998C8.60145 10.1522 8.98473 10.4341 9.41387 10.6272C9.84301 10.8203 10.3082 10.9202 10.7788 10.9202C11.2494 10.9202 11.7146 10.8203 12.1438 10.6272C12.5729 10.4341 12.9562 10.1522 13.2683 9.79998L19.2893 2.95788C19.3638 3.13989 19.4014 3.33491 19.3999 3.53157L19.3841 13.4684Z" fill="#F2A93B"/>
</svg>
