<svg width="21" height="21" viewBox="0 0 21 21" fill="none" xmlns="http://www.w3.org/2000/svg">
<path d="M10.7788 0.5C8.80101 0.5 6.86761 1.08648 5.22312 2.18529C3.57863 3.28411 2.29689 4.8459 1.54002 6.67316C0.783141 8.50042 0.585108 10.5111 0.970961 12.4509C1.35681 14.3907 2.30922 16.1725 3.70774 17.5711C5.10627 18.9696 6.88811 19.922 8.82792 20.3079C10.7677 20.6937 12.7784 20.4957 14.6056 19.7388C16.4329 18.9819 17.9947 17.7002 19.0935 16.0557C20.1923 14.4112 20.7788 12.4778 20.7788 10.5C20.7788 7.84783 19.7252 5.3043 17.8499 3.42893C15.9745 1.55357 13.431 0.5 10.7788 0.5V0.5ZM19.3735 9.78947H15.6104C15.5157 6.67368 14.7893 4 13.6788 2.36316C15.2412 2.923 16.6093 3.92113 17.6192 5.23816C18.6291 6.55519 19.2382 8.13532 19.3735 9.78947V9.78947ZM10.7788 19.1C9.19988 19.1 7.48933 15.8789 7.33143 11.1737H14.2262C14.0736 15.9 12.342 19.1211 10.7788 19.1211V19.1ZM7.33143 9.78947C7.48933 5.08421 9.22093 1.86316 10.7788 1.86316C12.3367 1.86316 14.0736 5.08421 14.2262 9.78947H7.33143ZM7.88409 2.36316C6.77356 4.02632 6.04723 6.67368 5.95249 9.78947H2.18935C2.32858 8.13903 2.93944 6.56343 3.94912 5.25046C4.95881 3.9375 6.32474 2.94255 7.88409 2.3842V2.36316ZM2.18935 11.1737H5.93145C6.02618 14.2895 6.75249 16.9368 7.86302 18.6C6.30795 18.0378 4.94683 17.0413 3.94116 15.7287C2.93548 14.4161 2.3275 12.8425 2.18935 11.1947V11.1737ZM13.6788 18.6C14.7893 16.9368 15.5157 14.2895 15.6104 11.1737H19.3735C19.2415 12.8313 18.6339 14.4157 17.6238 15.7367C16.6137 17.0577 15.2439 18.0592 13.6788 18.621V18.6Z" fill="#F2A93B"/>
</svg>
