<svg width="17" height="21" viewBox="0 0 17 21" fill="none" xmlns="http://www.w3.org/2000/svg">
<path d="M8.51829 20.5269C8.41986 20.5297 8.32195 20.5115 8.23117 20.4734C8.14038 20.4352 8.05883 20.3781 7.99197 20.3058C7.69724 19.99 0.78144 12.5005 0.78144 8.39528C0.754527 7.36472 0.934267 6.33922 1.31005 5.37924C1.68584 4.41926 2.25007 3.54425 2.96945 2.80584C3.68884 2.06742 4.54882 1.48055 5.49865 1.07983C6.44849 0.679108 7.46894 0.472656 8.49985 0.472656C9.53076 0.472656 10.5512 0.679108 11.5011 1.07983C12.4509 1.48055 13.3109 2.06742 14.0303 2.80584C14.7497 3.54425 15.3139 4.41926 15.6897 5.37924C16.0654 6.33922 16.2452 7.36472 16.2183 8.39528C16.2183 12.5005 9.29723 19.9742 9.00249 20.3058C8.94103 20.3736 8.8664 20.4282 8.78315 20.4662C8.6999 20.5042 8.60978 20.5248 8.51829 20.5269ZM8.51829 2.05845C6.84537 2.06537 5.24293 2.73301 4.05999 3.91595C2.87705 5.0989 2.20941 6.70132 2.20248 8.37423C2.20248 11.0953 6.41303 16.369 8.51829 18.79C10.6709 16.369 14.8341 11.0953 14.8341 8.37423C14.8272 6.70132 14.1595 5.0989 12.9766 3.91595C11.7936 2.73301 10.1912 2.06537 8.51829 2.05845Z" fill="#F2A93B"/>
<path d="M8.51839 11.5321C7.82987 11.5332 7.15652 11.3299 6.58361 10.948C6.01069 10.5661 5.56397 10.0228 5.3 9.38694C5.03604 8.75103 4.9667 8.05109 5.10077 7.37575C5.23484 6.70041 5.56629 6.08004 6.05315 5.59319C6.54 5.10633 7.16035 4.77488 7.83569 4.64081C8.51103 4.50674 9.21096 4.57608 9.84687 4.84004C10.4828 5.10401 11.0261 5.55073 11.408 6.12365C11.7898 6.69656 11.9931 7.36991 11.9921 8.05843C11.9907 8.97928 11.6242 9.86201 10.9731 10.5131C10.322 11.1643 9.43924 11.5307 8.51839 11.5321ZM8.51839 5.96368C8.10201 5.96368 7.69497 6.08716 7.34876 6.31849C7.00255 6.54982 6.7327 6.87861 6.57336 7.2633C6.41402 7.64799 6.37234 8.07129 6.45357 8.47967C6.5348 8.88805 6.73531 9.26317 7.02974 9.5576C7.32417 9.85202 7.69927 10.0525 8.10765 10.1338C8.51603 10.215 8.93933 10.1733 9.32402 10.014C9.70871 9.85462 10.0375 9.58478 10.2688 9.23857C10.5002 8.89237 10.6237 8.48533 10.6237 8.06895C10.6181 7.51425 10.3938 6.98418 9.99962 6.5939C9.6054 6.20363 9.07311 5.98471 8.51839 5.98474V5.96368Z" fill="#F2A93B"/>
</svg>
