<svg width="175" height="202" viewBox="0 0 175 202" fill="none" xmlns="http://www.w3.org/2000/svg">
<path d="M167.279 129.268C166.114 127.328 160.787 118.667 157.617 113.585C159.664 110.74 162.463 106.866 163.147 105.926L166.727 101.005L162.488 99.3593L162.676 99.1844C163.045 98.8419 163.389 98.4735 163.705 98.0821C167.552 93.3063 166.082 86.7608 165.601 84.6095L159.446 57.1717C158.512 52.9928 156.757 49.6476 154.231 47.2319C151.635 44.7502 148.316 43.326 144.575 43.0722L143.735 38.8806L143.132 35.8722L140.126 35.2177L133.341 33.7508C132.077 29.6215 130.252 25.684 127.918 22.0478C125.091 17.6341 121.556 13.7135 117.454 10.4428C113.323 7.1395 108.669 4.54551 103.684 2.76734C98.5165 0.927403 93.0698 -0.0102311 87.5831 -0.0043672C82.0956 -0.0102208 76.6482 0.92741 71.4802 2.76734C66.4952 4.5455 61.8419 7.13951 57.7116 10.4428C53.6063 13.7127 50.0676 17.6332 47.2371 22.0478C44.9024 25.6839 43.0771 29.6214 41.8118 33.7508L35.0355 35.224L32.0278 35.8786L31.4421 38.8806L30.6041 43.0573C26.8077 43.2833 23.443 44.7182 20.8159 47.2426C18.3063 49.654 16.5619 52.9992 15.6278 57.1653L13.6911 65.8003C12.8895 69.3736 11.4487 76.1707 11.3397 76.7357L9.57186 84.5754C9.09303 86.7288 7.63515 93.2679 11.4722 98.0416C11.8001 98.4454 12.1573 98.8245 12.541 99.1759L12.68 99.3059L12.7249 99.3465L8.44959 101.005L12.0301 105.926C12.7142 106.866 15.5124 110.74 17.5602 113.585C14.3901 118.67 9.06311 127.328 7.90023 129.268L0.59375 141.434L13.7381 136.003C15.2045 135.398 21.7564 132.984 26.579 131.298C30.0332 140.818 34.642 149.88 40.3026 158.284C50.9545 174.097 65.4328 187.894 83.3398 199.286L85.0649 200.382L87.5938 201.991L90.1226 200.382L91.8455 199.286C109.753 187.894 124.233 174.097 134.883 158.284C140.542 149.883 145.15 140.823 148.604 131.306C153.425 132.993 159.977 135.406 161.445 136.012L174.598 141.434L167.279 129.268Z" fill="white"/>
<path d="M85.6356 195.7C68.2266 184.613 54.1673 171.238 43.8467 155.915C37.5986 146.639 32.6815 136.538 29.2381 125.904C25.1894 127.183 14.2083 131.2 12.0984 132.072L10.9014 132.567L11.5662 131.46C12.9471 129.162 20.1937 117.388 22.7033 113.423C21.0381 111.099 16.4058 104.681 15.4909 103.421L15.166 102.973L15.6811 102.773C17.1219 102.212 20.5208 100.982 22.1497 100.4L17.0664 97.1356C16.5296 96.888 16.0308 96.5657 15.585 96.1783L15.4439 96.0482C15.2141 95.8386 14.9998 95.6128 14.8026 95.3724C12.5132 92.526 13.0925 88.3791 13.7337 85.5072L15.5507 77.3946L15.7987 77.3264L18.7914 76.4928C18.5661 76.1872 18.3679 75.8626 18.1993 75.5227C17.1305 73.3757 17.0129 70.5016 17.8573 66.7385L19.794 58.0993C20.5421 54.7583 21.8824 52.1401 23.7764 50.3193C25.8649 48.313 28.5198 47.296 31.6686 47.296H34.1098L35.6831 39.4499L45.2576 37.369C47.5658 28.0608 52.8803 19.7685 60.3814 13.7711C68.0896 7.57995 77.6991 4.22302 87.5958 4.26417C97.4875 4.22576 107.091 7.58257 114.795 13.7711C122.299 19.7669 127.614 28.0597 129.921 37.369L139.498 39.4499L141.071 47.296H143.365C146.524 47.296 149.188 48.3109 151.274 50.3108C153.183 52.1337 154.528 54.7562 155.276 58.1035L161.43 85.5349C162.071 88.4132 162.661 92.5708 160.361 95.415C160.173 95.6478 159.969 95.8672 159.75 96.0717C159.31 96.481 154.895 99.2464 153.035 100.404C154.671 100.99 158.05 102.214 159.489 102.773L160.006 102.973L159.681 103.421C158.771 104.673 154.139 111.096 152.467 113.423C154.977 117.39 162.223 129.16 163.604 131.46L164.269 132.567L163.074 132.072C160.962 131.2 149.983 127.189 145.934 125.904C142.489 136.537 137.571 146.639 131.323 155.915C121.003 171.238 106.944 184.626 89.5368 195.7L87.583 196.943L85.6356 195.7Z" fill="black"/>
<path d="M87.5959 4.69063C107.974 4.69063 125.05 18.7837 129.566 37.7379L139.13 39.8167L140.718 47.731H143.363C146.409 47.731 148.974 48.7054 150.983 50.6285C152.828 52.3917 154.134 54.9417 154.863 58.2038L161.018 85.6373C161.642 88.4304 162.217 92.46 160.041 95.1571C159.866 95.3746 159.675 95.5791 159.47 95.769C158.959 96.2444 152.069 100.519 152.069 100.519C152.687 100.732 157.546 102.479 159.348 103.178C158.437 104.43 153.519 111.244 151.965 113.412C154.34 117.15 161.855 129.358 163.249 131.68C161.065 130.778 149.355 126.503 145.669 125.373C142.237 136.118 137.292 146.321 130.982 155.678C120.693 170.955 106.677 184.299 89.3188 195.335L87.5959 196.442L85.8708 195.344C68.5131 184.302 54.4966 170.957 44.2081 155.687C37.8987 146.329 32.9534 136.126 29.5203 125.382C25.8308 126.512 14.1293 130.786 11.9403 131.688C13.3341 129.366 20.8522 117.158 23.225 113.421C21.6709 111.246 16.7522 104.432 15.8437 103.187C17.6457 102.487 22.5025 100.741 23.1117 100.528L17.2674 96.7604C16.7577 96.5274 16.2841 96.223 15.8608 95.8564L15.7304 95.7349C15.5174 95.5405 15.3194 95.3302 15.1383 95.1059C12.9643 92.4024 13.5393 88.3856 14.1592 85.5989L15.9228 77.738C15.9228 77.738 19.0245 76.8702 19.5418 76.7295C19.1583 76.3112 18.8359 75.8411 18.5842 75.333C17.556 73.2798 17.4533 70.4953 18.2763 66.8302L20.213 58.1931C20.942 54.9353 22.2417 52.3896 24.0758 50.6264C26.0809 48.7075 28.6354 47.7225 31.6708 47.7225H34.4626L36.0487 39.8082L45.6125 37.7294C50.1315 18.7837 67.2027 4.68209 87.5852 4.68209M87.5852 3.82926C82.5392 3.82269 77.5299 4.68463 72.7777 6.37712C68.1939 8.01042 63.9148 10.394 60.1164 13.43C56.3463 16.44 53.0967 20.0463 50.497 24.1054C47.9503 28.0747 46.0654 32.4294 44.9157 37.0002L35.8734 38.966L35.3262 39.0854L35.2172 39.6312L33.7678 46.8611H31.6772C28.4131 46.8611 25.6576 47.9272 23.4879 50.0038C21.532 51.8843 20.1511 54.575 19.3858 57.9991L17.4469 66.6362C16.5919 70.4995 16.7052 73.4589 17.8253 75.7061C17.9151 75.8852 18.0113 76.0621 18.116 76.2327L15.6983 76.9086L15.2045 77.045L15.0934 77.5439L13.332 85.4049C12.6714 88.3643 12.0729 92.6412 14.4777 95.6389C14.6854 95.8962 14.9119 96.1378 15.1554 96.3617L15.2879 96.4832C15.7566 96.8896 16.2796 97.229 16.842 97.4917L21.175 100.263C19.405 100.903 16.7458 101.867 15.5081 102.349L14.4756 102.749L15.1169 103.643C15.9997 104.856 20.3712 110.911 22.1711 113.41C19.529 117.597 12.5368 128.959 11.1836 131.213L9.854 133.426L12.2439 132.439C14.2854 131.597 24.6273 127.814 28.9453 126.413C32.3973 136.937 37.2888 146.935 43.4813 156.124C53.8361 171.498 67.936 184.924 85.3941 196.03L87.1192 197.128L87.5788 197.42L88.0384 197.128L89.7613 196.03C107.219 184.924 121.321 171.498 131.674 156.124C137.867 146.935 142.759 136.937 146.21 126.413C150.53 127.814 160.872 131.597 162.912 132.439L165.301 133.426L163.974 131.213C162.621 128.959 155.626 117.597 152.984 113.41C154.776 110.909 159.147 104.854 160.038 103.643L160.68 102.749L159.647 102.349C158.418 101.871 155.778 100.909 154.01 100.274C156.095 98.9714 159.183 97.0227 159.923 96.4534L159.953 96.4385L160.043 96.3553C160.277 96.1375 160.496 95.9031 160.697 95.6539C163.104 92.6689 162.503 88.3771 161.841 85.4199L155.686 57.9863C154.921 54.5558 153.534 51.863 151.565 49.9804C149.389 47.9016 146.627 46.8462 143.352 46.8462H141.409L139.968 39.6397L139.859 39.0939L139.312 38.9745L130.272 37.0087C129.122 32.4375 127.237 28.0827 124.688 24.1139C122.089 20.0548 118.839 16.4485 115.069 13.4386C111.271 10.4028 106.993 8.01914 102.41 6.38563C97.6575 4.69352 92.6483 3.83161 87.6023 3.8378L87.5852 3.82926Z" fill="black"/>
<path d="M136.392 42.4861L87.596 31.8768L38.7935 42.4861L27.3999 99.2976C31.6218 141.146 55.0204 171.923 87.596 192.644C120.163 171.923 143.562 141.146 147.792 99.2976L136.392 42.4861Z" fill="#F2A93B"/>
<path d="M38.7871 42.4861L87.596 31.8768V192.636C55.0268 171.914 31.6282 141.138 27.3999 99.289L38.7871 42.4861Z" fill="url(#paint0_linear_487_13941)"/>
<path d="M120.451 164.635C111.518 175.204 100.548 184.651 87.7025 192.824L87.5892 192.896L87.4738 192.824C74.6309 184.651 63.6605 175.204 54.7251 164.637L59.9901 137.099L70.1012 112.794L73.1324 137.099L69.7292 171.087L71.8669 160.9L76.1293 150.075L78.4038 160.9L78.8506 152.689L87.5957 140.421L96.3322 152.689L96.7811 160.9L99.0535 150.073L103.314 160.898L105.451 171.083L102.046 137.099L105.077 112.794L115.188 137.099L120.451 164.635Z" fill="black"/>
<path d="M87.5956 140.421V192.896L87.4802 192.824C74.6372 184.651 63.6668 175.204 54.7314 164.637L59.9965 137.099L70.1075 112.794L73.1387 137.099L69.7356 171.087L71.8732 160.902L76.1335 150.075L78.4037 160.9L78.8526 152.689L87.5956 140.421Z" fill="url(#paint1_linear_487_13941)"/>
<path d="M120.451 164.635C111.518 175.204 100.548 184.651 87.7027 192.824L87.5894 192.896V140.421L96.3259 152.689L96.7748 160.9L99.0493 150.077L103.31 160.902L105.447 171.087L102.046 137.099L105.077 112.794L115.189 137.099L120.451 164.635Z" fill="black"/>
<path d="M87.5894 90.7542C111.417 90.7542 130.733 71.4882 130.733 47.7224C130.733 23.9566 111.417 4.69055 87.5894 4.69055C63.7616 4.69055 44.4453 23.9566 44.4453 47.7224C44.4453 71.4882 63.7616 90.7542 87.5894 90.7542Z" fill="black"/>
<path d="M68.9981 77.3968C65.5779 76.1517 58.9191 69.233 56.9439 66.1223C55.8323 66.9752 54.7863 67.8429 53.8059 68.7256C58.8504 76.7749 66.6347 82.7412 75.7317 85.5307C73.4701 83.6843 70.7232 80.9297 68.9981 77.3968ZM81.2639 70.5976C81.6765 70.7617 82.3327 71.024 83.1985 71.3161C85.3374 72.055 87.5299 72.6295 89.7568 73.0345C92.9483 73.6038 95.9025 73.7253 98.5446 73.3885C101.764 70.4526 105.272 66.3526 109.261 60.8838C109.058 55.2338 105.173 48.2576 103.489 45.5051C103.32 45.2279 103.168 44.9763 103.029 44.7589C102.337 44.6245 101.619 44.4923 100.909 44.3623C97.7024 43.7909 94.8401 43.422 92.0761 43.0638C90.3916 42.8506 88.797 42.6502 87.1595 42.4008C86.9458 42.582 86.5418 42.9018 86.0309 43.341C84.8103 44.3793 83.641 45.4731 82.5401 46.5647C80.2378 48.8674 77.196 52.3213 75.6996 55.7711C77.0463 60.4297 78.6923 65.7663 81.1014 70.54C81.1549 70.5592 81.2062 70.5763 81.2554 70.5976H81.2639ZM75.7338 85.535C75.7912 85.5472 75.8477 85.5636 75.9027 85.584C75.8471 85.5648 75.7894 85.5456 75.7317 85.5307L75.7338 85.535ZM67.3628 23.5062C63.6732 27.2587 59.7891 31.4184 56.386 36.4437C56.4202 36.7507 56.4843 37.2582 56.5827 37.9085C56.7323 38.9745 57.0102 40.6482 57.4377 42.5457C58.1218 45.5307 59.3509 49.6925 61.3582 52.7435C62.1491 52.8906 63.0448 53.0548 64.0922 53.2424C65.4176 53.4791 66.8156 53.72 68.2435 53.9716C70.4453 54.3554 72.7026 54.7477 74.8232 55.1357C77.4717 49.2682 84.0001 43.6224 86.3087 41.7292C85.1737 37.9618 84.2716 33.9662 83.3866 30.105C83.1215 28.9303 82.8479 27.7235 82.5722 26.5338C80.3576 25.3398 77.1575 24.2908 73.9639 23.7194L74.0002 23.5062H73.9874L73.9468 23.7194C71.2255 23.2333 68.8378 23.1544 67.3543 23.5062H67.3628ZM98.3244 74.4865C95.6588 74.7829 92.7153 74.6464 89.5601 74.0835C86.5903 73.5429 83.6816 72.7095 80.877 71.5954C78.1301 74.2157 72.6513 76.9256 70.2016 77.4394C72.4504 81.6716 76.1357 84.6885 78.4508 86.2663C79.0921 86.4198 79.7547 86.552 80.4174 86.6714C85.4645 87.5741 90.6393 87.4908 95.6545 86.4262C96.0585 86.213 96.4562 85.9997 96.8431 85.7673C98.9692 84.5546 100.973 83.1409 102.828 81.5458C101.116 80.4393 99.637 78.111 98.3244 74.4865ZM53.2479 67.8301C53.2434 67.8213 53.2384 67.8128 53.233 67.8045C53.2383 67.8114 53.2433 67.8185 53.2479 67.8259V67.8301ZM60.3022 53.0868C56.8199 47.6031 55.5994 39.0641 55.33 36.7209C54.0474 36.4245 51.6255 35.8062 49.8512 34.9619C49.2076 36.8549 48.7074 38.7935 48.3549 40.7612C46.6726 50.0669 48.4025 59.6657 53.2287 67.8045C54.2569 66.8984 55.3493 65.9944 56.5014 65.1181C56.1038 60.5853 58.6391 55.7242 60.3129 53.0825L60.3022 53.0868ZM121.798 28.0071C121.836 28.0796 121.877 28.1393 121.913 28.2053C121.864 28.1371 121.826 28.0732 121.798 28.0071ZM97.6126 19.5469C100.605 20.7558 108.162 27.3674 110.081 29.9302C114.571 29.9046 118.457 30.6253 121.432 32.0175C121.503 31.2628 121.569 30.4952 121.646 29.8065C121.723 29.1179 121.764 28.5124 121.809 28.0092C116.792 19.2924 108.632 12.8112 98.9914 9.88649C98.0708 10.2271 97.1184 10.4749 96.1483 10.6263C96.6785 12.6689 97.448 16.4085 97.6019 19.5427L97.6126 19.5469ZM67.4526 22.4146C69.0922 22.1055 71.4478 22.2014 74.1562 22.6833C77.4354 23.2653 80.7295 24.3463 83.0275 25.5722C85.1266 24.1949 92.7623 20.242 96.546 19.5406C96.3814 16.3424 95.5412 12.3469 94.9683 10.4152C93.7178 9.82039 92.4887 9.10613 91.1911 8.35351C91.1848 8.35105 91.1796 8.34655 91.1762 8.34073C82.8239 7.53783 74.432 9.40449 67.2132 13.6709C66.8874 16.5808 66.9643 19.5214 67.4419 22.4103L67.4526 22.4146ZM120.81 62.2377C120.776 65.7599 119.797 69.3887 117.895 73.0516C122.306 67.7828 125.258 61.4551 126.46 54.6965C126.757 53.061 126.947 51.408 127.029 49.7479C126.255 53.0015 124.508 58.3168 120.8 62.2334L120.81 62.2377ZM99.4339 85.4283C103.655 84.0858 107.622 82.0486 111.17 79.4009C108.935 80.5947 106.53 81.4389 104.038 81.904C102.602 83.2013 101.061 84.3787 99.4318 85.4241L99.4339 85.4283ZM110.295 30.992C109.256 35.8958 107.035 40.6141 104.011 44.3282C105.607 46.8867 109.947 54.349 110.304 60.564C110.56 60.6322 110.872 60.694 111.234 60.7559C113.741 61.2057 118.098 61.5341 119.945 61.6087C124.421 56.9437 125.968 49.8972 126.338 47.8354C126.375 47.6372 126.398 47.4751 126.42 47.3472C125.941 42.7227 123.553 36.6868 121.52 33.2754C119.768 32.4007 117.895 31.7934 115.962 31.4738C114.091 31.1483 112.195 30.9871 110.295 30.992Z" fill="white"/>
<path d="M50.6143 32.8682C50.6143 32.8682 53.9554 22.6619 62.1276 16.5663C57.8331 20.5554 50.6143 29.5379 55.8023 34.9576C52.8246 34.9576 50.6143 32.8682 50.6143 32.8682Z" fill="white"/>
<path d="M127.444 46.2876C127.444 46.2876 126.161 34.2328 122.452 28.8578C123.465 32.655 123.038 32.7979 123.038 32.7979C123.038 32.7979 127.232 40.2836 127.444 46.2876Z" fill="white"/>
<path d="M61.4478 53.9438C61.4478 53.9438 73.1471 56.0162 74.4147 56.8243C75.3638 57.4319 76.9927 64.8665 79.4339 70.2394C75.6353 64.8217 74.8615 61.3166 71.764 59.1163C70.4151 58.1568 61.4478 53.9438 61.4478 53.9438Z" fill="white"/>
<path d="M84.3315 26.2715C84.3315 26.2715 94.3507 23.3293 97.0976 24.0904C100.732 25.0989 108.451 30.169 108.451 30.169C108.451 30.169 100.712 23.261 99.4597 22.3272C98.1557 21.355 96.8282 20.7558 94.2353 21.9498C91.6423 23.1438 84.3315 26.2715 84.3315 26.2715Z" fill="white"/>
<path d="M119.282 63.8814C119.282 63.8814 116.608 69.5847 105.067 69.4674C105.067 69.4674 108.898 64.6489 110.52 62.1736C110.52 62.1736 113.964 63.6724 119.282 63.8814Z" fill="white"/>
<path d="M153.606 88.7117L143.356 47.7224H35.8926L21.5725 88.7117L15.7153 95.7583L27.8978 103.583H147.281L159.463 95.7583L153.606 88.7117Z" fill="black"/>
<g opacity="0.3">
<path d="M136.414 126.601C137.32 125.062 138.224 123.528 139.126 122C105.372 112.909 69.8049 112.909 36.0511 122C36.9531 123.527 37.8574 125.06 38.7637 126.601C30.7647 128.636 22.9013 131.169 15.2197 134.185C18.4974 128.816 21.8001 123.539 25.1277 118.352C22.9245 115.249 20.7306 112.188 18.5459 109.169C23.6577 107.267 28.8251 105.584 34.0481 104.12C34.2205 102.442 34.393 100.764 34.5654 99.0886C69.2545 89.4558 105.923 89.4558 140.612 99.0886L141.131 104.12C146.349 105.586 151.516 107.269 156.633 109.169C154.449 112.191 152.254 115.252 150.049 118.352C153.376 123.539 156.678 128.816 159.958 134.185C152.276 131.168 144.413 128.636 136.414 126.601Z" fill="black"/>
</g>
<path d="M159.801 129.153C152.136 126.147 144.289 123.622 136.308 121.591L135.757 121.45L136.046 120.962C136.855 119.581 137.664 118.208 138.474 116.842C105.135 107.964 70.044 107.964 36.7049 116.842C37.5129 118.21 38.3224 119.583 39.1333 120.962L39.4197 121.45L38.8682 121.591C30.8878 123.621 23.0424 126.147 15.3776 129.153L14.1934 129.618L14.856 128.535C18.0433 123.313 21.3245 118.066 24.6122 112.936C22.4938 109.952 20.3369 106.95 18.1993 103.982L17.8722 103.528L18.3981 103.331C23.3917 101.474 28.5241 99.8007 33.6545 98.353L34.1718 93.317L34.454 93.2403C69.2182 83.5888 105.965 83.5888 140.729 93.2403L141.009 93.317L141.529 98.353C146.659 99.8007 151.789 101.474 156.785 103.331L157.309 103.528L156.982 103.982C154.844 106.933 152.689 109.952 150.569 112.936C153.852 118.053 157.136 123.309 160.327 128.537L160.988 129.62L159.801 129.153Z" fill="#F2A93B"/>
<path d="M87.5959 86.4369C105.514 86.4368 123.348 88.8669 140.61 93.6604L141.129 98.6921C146.346 100.158 151.514 101.84 156.631 103.741C154.446 106.761 152.252 109.822 150.047 112.924C153.373 118.112 156.676 123.389 159.955 128.757C152.274 125.742 144.412 123.212 136.413 121.179C137.32 119.64 138.224 118.106 139.126 116.578C105.372 107.487 69.8048 107.487 36.0509 116.578C36.953 118.105 37.8572 119.638 38.7636 121.179C30.7646 123.213 22.9012 125.744 15.2196 128.759C18.4973 123.39 21.7999 118.113 25.1275 112.926C22.9243 109.824 20.7304 106.763 18.5457 103.743C23.6576 101.841 28.825 100.158 34.0479 98.6942C34.2204 97.0156 34.3928 95.3383 34.5653 93.6625C51.8265 88.8694 69.6611 86.4393 87.5788 86.439M87.5788 85.5862C69.5805 85.5838 51.6653 88.0225 34.3258 92.8353L33.7658 92.9909L33.7059 93.5708L33.2463 98.0269C28.1972 99.4596 23.1502 101.112 18.2358 102.931L17.1841 103.321L17.8403 104.227C19.9245 107.11 22.0237 110.037 24.0865 112.937C20.8501 117.992 17.6201 123.158 14.4799 128.302L13.1567 130.467L15.5231 129.539C23.1718 126.54 31.0008 124.02 38.9645 121.994L40.0654 121.712L39.4989 120.753C38.7864 119.535 38.0738 118.322 37.3613 117.115C70.2875 108.449 104.904 108.449 137.831 117.115L135.693 120.753L135.118 121.729L136.219 122.011C144.183 124.037 152.013 126.557 159.662 129.556L162.027 130.484L160.706 128.32C157.563 123.173 154.331 118.007 151.097 112.954C153.162 110.054 155.261 107.127 157.343 104.244L157.999 103.338L156.948 102.948C152.031 101.121 146.986 99.4682 141.939 98.0439L141.48 93.5879L141.42 93.008L140.857 92.8523C123.519 88.0395 105.604 85.6008 87.6066 85.6032L87.5788 85.5862Z" fill="black"/>
<path d="M139.182 94.8671L139.701 99.8966C144.478 101.2 149.215 102.685 153.912 104.351C151.995 107.021 150.071 109.722 148.14 112.452C150.991 116.859 153.829 121.336 156.657 125.885C150.851 123.724 144.974 121.846 139.026 120.25C139.929 118.72 140.831 117.199 141.732 115.685C106.343 105.637 68.8447 105.637 33.4558 115.685C34.3564 117.2 35.2578 118.722 36.1599 120.25C30.2201 121.846 24.343 123.724 18.5286 125.885C21.3503 121.336 24.1898 116.859 27.0471 112.452C25.1132 109.719 23.1894 107.019 21.2755 104.351C25.9669 102.683 30.7039 101.199 35.4865 99.8966L36.006 94.8671C69.795 85.7567 105.403 85.7567 139.192 94.8671M142.05 92.4621C141.098 92.192 140.146 91.9276 139.192 91.6689C105.403 82.5586 69.795 82.5586 36.006 91.6689C35.0526 91.9262 34.1006 92.1906 33.1501 92.4621C33.0503 93.4443 32.9491 94.4264 32.8465 95.4086C32.7767 96.1051 32.7055 96.8023 32.6328 97.5002C28.8221 98.6003 25.037 99.8178 21.2776 101.152C19.4606 101.798 17.6514 102.47 15.8501 103.169C16.7593 104.422 17.6714 105.68 18.5863 106.943C20.1297 109.075 21.6781 111.231 23.2314 113.41C20.8586 117.148 18.4965 120.931 16.1451 124.759C14.74 127.049 13.3405 129.355 11.9468 131.677C14.1315 130.775 16.3282 129.914 18.5371 129.093C24.3444 126.933 30.2215 125.055 36.1684 123.458C37.9042 122.991 39.645 122.548 41.3907 122.13C40.5955 120.77 39.801 119.414 39.0072 118.062C38.8939 117.872 38.7828 117.68 38.6716 117.491C70.7768 109.312 104.428 109.312 136.533 117.491C136.42 117.68 136.319 117.872 136.197 118.062C135.402 119.414 134.607 120.77 133.812 122.13C135.559 122.548 137.3 122.991 139.034 123.458C144.974 125.055 150.851 126.933 156.665 129.093C158.873 129.914 161.07 130.775 163.256 131.677C161.862 129.355 160.463 127.049 159.057 124.759C156.709 120.93 154.347 117.147 151.971 113.41C153.524 111.235 155.073 109.08 156.616 106.943C157.531 105.678 158.444 104.42 159.354 103.169C157.552 102.47 155.742 101.798 153.925 101.152C150.168 99.8178 146.383 98.6003 142.57 97.5002C142.497 96.803 142.426 96.1058 142.356 95.4086L142.055 92.4621H142.05Z" fill="black"/>
<path d="M40.7816 110.237C40.5298 110.159 40.2963 110.031 40.0948 109.861C39.8932 109.691 39.7278 109.482 39.608 109.248C39.3381 108.682 39.2407 108.05 39.328 107.429C39.5888 104.675 39.8481 101.919 40.1061 99.1632C40.1135 99.1046 40.1397 99.05 40.1809 99.0075C40.2215 98.9611 40.2751 98.9277 40.3348 98.9116C41.3203 98.6728 41.8141 98.5555 42.7974 98.3274C42.8216 98.3203 42.8472 98.3189 42.872 98.3233C42.8969 98.3277 42.9204 98.3379 42.9406 98.353C42.959 98.3683 42.973 98.3882 42.9813 98.4107C42.9895 98.4331 42.9917 98.4573 42.9876 98.4809C42.7382 101.324 42.4867 104.166 42.2331 107.009C42.2127 107.12 42.2149 107.234 42.2395 107.344C42.2641 107.453 42.3106 107.557 42.3763 107.649C42.4391 107.72 42.5215 107.771 42.6132 107.795C42.7048 107.819 42.8017 107.816 42.8914 107.785C43.1199 107.731 43.3202 107.594 43.4536 107.402C43.6063 107.19 43.6967 106.941 43.7144 106.681L44.4455 98.1718C44.4501 98.1128 44.4759 98.0576 44.5182 98.0161C44.5574 97.9698 44.6107 97.9376 44.67 97.9244C45.6554 97.7112 46.1471 97.6004 47.1304 97.3957C47.1544 97.3889 47.1798 97.3878 47.2043 97.3926C47.2288 97.3974 47.2518 97.408 47.2715 97.4234C47.2903 97.439 47.3047 97.4591 47.3133 97.4819C47.3219 97.5047 47.3244 97.5294 47.3206 97.5535C47.0997 100.291 46.8803 103.029 46.6623 105.766C46.6076 106.475 46.3982 107.163 46.0488 107.783C45.6992 108.403 45.222 108.941 44.6486 109.363C44.0611 109.797 43.389 110.105 42.6755 110.265C42.0539 110.431 41.3981 110.422 40.7816 110.237Z" fill="black"/>
<path d="M57.4788 95.5493C57.4969 95.5659 57.511 95.5865 57.5199 95.6095C57.5288 95.6324 57.5323 95.657 57.5301 95.6815C57.4831 96.464 57.4595 96.8563 57.4104 97.6452C57.4073 97.7024 57.3828 97.7563 57.342 97.7966C57.302 97.8399 57.2485 97.8685 57.1902 97.8776C56.3351 98.014 55.9076 98.0908 55.0526 98.2272C55.0274 98.2288 55.0038 98.2398 54.9864 98.258C54.9689 98.2761 54.959 98.3002 54.9585 98.3253C54.7575 101.403 54.5573 104.479 54.3578 107.553C54.3531 107.612 54.3274 107.668 54.2851 107.711C54.2452 107.756 54.1909 107.787 54.1312 107.798C53.1265 107.971 52.6242 108.06 51.6195 108.246C51.5945 108.253 51.5682 108.253 51.5429 108.247C51.5176 108.242 51.4941 108.23 51.4741 108.214C51.4549 108.197 51.4402 108.176 51.4312 108.152C51.4223 108.128 51.4194 108.103 51.4228 108.077C51.6409 104.997 51.8596 101.916 52.0791 98.8327C52.0791 98.7773 52.0556 98.7539 51.9979 98.7645C51.1706 98.9159 50.758 98.9948 49.9308 99.1547C49.9062 99.1612 49.8805 99.1619 49.8556 99.1568C49.8307 99.1516 49.8074 99.1406 49.7875 99.1248C49.7689 99.1091 49.7546 99.0889 49.746 99.0662C49.7374 99.0434 49.7348 99.0188 49.7384 98.9948C49.7961 98.2017 49.826 97.8072 49.8859 97.0205C49.8911 96.9628 49.916 96.9086 49.9564 96.867C49.9962 96.8223 50.0495 96.7916 50.1082 96.7795C52.5194 96.3297 54.9264 95.9075 57.3462 95.5152C57.3695 95.5116 57.3933 95.5128 57.416 95.5187C57.4388 95.5245 57.4602 95.535 57.4788 95.5493Z" fill="black"/>
<path d="M63.6674 106.193C63.6032 105.602 63.5711 105.308 63.5091 104.722C63.5091 104.664 63.4792 104.641 63.4087 104.649C62.6498 104.745 62.2693 104.794 61.5105 104.896C61.4399 104.896 61.4036 104.939 61.4014 104.997C61.2839 105.606 61.2261 105.913 61.1107 106.525C61.1026 106.583 61.0741 106.637 61.0303 106.676C60.9864 106.715 60.9301 106.737 60.8713 106.738C59.8687 106.877 59.375 106.952 58.366 107.101C58.2121 107.124 58.1522 107.058 58.2035 106.903C59.2552 102.967 60.3098 99.0317 61.3672 95.0973C61.3766 95.0409 61.4047 94.9893 61.4469 94.9506C61.4891 94.912 61.5431 94.8886 61.6002 94.8841C62.7246 94.7327 63.2868 94.6602 64.4091 94.5259C64.4335 94.5192 64.459 94.518 64.4839 94.5224C64.5088 94.5268 64.5324 94.5368 64.5529 94.5515C64.5734 94.5663 64.5904 94.5854 64.6025 94.6075C64.6146 94.6297 64.6216 94.6542 64.6229 94.6794L66.6237 105.802C66.6299 105.824 66.6349 105.846 66.6387 105.869C66.6387 105.973 66.5681 106.031 66.4399 106.046C65.4181 106.159 64.9072 106.218 63.8747 106.344C63.7464 106.372 63.6716 106.316 63.6674 106.193ZM61.829 93.7989C61.7962 93.7605 61.8047 93.7051 61.8546 93.6326L62.9512 91.8608C62.9751 91.8155 63.0103 91.777 63.0533 91.749C63.0963 91.721 63.1458 91.7044 63.1971 91.7009C63.9645 91.6028 64.3471 91.5559 65.1209 91.4664C65.2364 91.4536 65.292 91.4856 65.2877 91.5602C65.2793 91.6095 65.2596 91.6562 65.23 91.6966L63.8148 93.4961C63.7497 93.5773 63.6554 93.6301 63.5519 93.6432C62.932 93.72 62.622 93.7605 62.0043 93.8415C61.9739 93.8507 61.9416 93.8516 61.9108 93.8441C61.8799 93.8366 61.8517 93.821 61.829 93.7989ZM61.9743 102.66C62.4425 102.598 62.6776 102.566 63.1458 102.508C63.1928 102.508 63.2163 102.47 63.2206 102.412C63.0431 100.892 62.9555 100.138 62.793 98.6408C62.793 98.5982 62.7674 98.5769 62.7439 98.5811C62.7204 98.5854 62.7033 98.6088 62.6904 98.6536C62.3826 100.214 62.2287 100.999 61.9187 102.583C61.9059 102.641 61.9273 102.666 61.9743 102.66Z" fill="black"/>
<path d="M74.6588 93.6238C74.6978 93.5837 74.7503 93.5594 74.8063 93.5556C75.7682 93.4895 76.2513 93.4597 77.2133 93.4064C77.2396 93.4043 77.266 93.4076 77.291 93.416C77.316 93.4244 77.339 93.4378 77.3586 93.4554C77.3775 93.4726 77.3923 93.4937 77.4019 93.5173C77.4115 93.541 77.4157 93.5664 77.4142 93.5919L77.1705 104.958C77.1698 104.986 77.1636 105.014 77.1523 105.039C77.1409 105.065 77.1246 105.088 77.1042 105.107C77.0851 105.128 77.0619 105.145 77.0363 105.156C77.0106 105.168 76.9828 105.175 76.9546 105.175C75.8366 105.239 75.2765 105.276 74.1586 105.355C74.1326 105.361 74.1057 105.361 74.0794 105.357C74.0531 105.352 74.028 105.343 74.0055 105.328C73.9831 105.314 73.9636 105.295 73.9484 105.274C73.9332 105.252 73.9226 105.227 73.917 105.201L72.3587 99.4124C72.3554 99.3989 72.3482 99.3865 72.3379 99.377C72.3277 99.3675 72.3148 99.3613 72.3009 99.3591C72.271 99.3591 72.256 99.3762 72.256 99.421C72.1962 101.749 72.1663 102.926 72.1064 105.306C72.1041 105.362 72.0804 105.416 72.0401 105.457C72.0008 105.5 71.9464 105.526 71.8884 105.529C70.9029 105.613 70.4091 105.655 69.4237 105.743C69.3973 105.747 69.3704 105.745 69.3449 105.737C69.3194 105.729 69.2959 105.716 69.2762 105.698C69.2571 105.68 69.2422 105.658 69.2326 105.634C69.2229 105.609 69.2189 105.583 69.2206 105.557C69.3631 101.761 69.5056 97.9633 69.6481 94.1654C69.6506 94.1103 69.6743 94.0584 69.7144 94.0204C69.7531 93.9792 69.8055 93.9534 69.8619 93.9479C70.9435 93.8477 71.4822 93.8008 72.5617 93.7155C72.6124 93.7045 72.6654 93.7134 72.7096 93.7404C72.7538 93.7674 72.7859 93.8105 72.799 93.8605C73.4147 96.112 73.7289 97.2505 74.3595 99.5596C74.3621 99.5731 74.3697 99.5852 74.3807 99.5935C74.3918 99.6018 74.4056 99.6056 74.4193 99.6043C74.4478 99.6043 74.4628 99.5809 74.4642 99.534C74.5198 97.1887 74.5476 96.0438 74.6032 93.7603C74.6049 93.7097 74.6246 93.6613 74.6588 93.6238Z" fill="black"/>
<path d="M85.8859 93.5621C86.3966 93.8604 86.81 94.2994 87.0766 94.8264C87.3717 95.4118 87.5185 96.0604 87.5041 96.7154C87.5175 97.3555 87.3768 97.9894 87.0937 98.5639C86.8348 99.0816 86.4318 99.5139 85.9329 99.8091C85.4087 100.114 84.8127 100.275 84.2057 100.276L83.0749 100.304C83.0151 100.304 82.9873 100.334 82.9873 100.391C82.968 102.097 82.9595 102.971 82.9424 104.715C82.9416 104.771 82.9185 104.825 82.8783 104.864C82.8388 104.904 82.785 104.927 82.7286 104.928C81.7303 104.956 81.2323 104.973 80.2319 105.013C80.2049 105.016 80.1777 105.012 80.1522 105.003C80.1267 104.994 80.1036 104.979 80.0844 104.96C80.0648 104.942 80.0493 104.92 80.039 104.895C80.0287 104.871 80.0237 104.844 80.0245 104.817C80.0843 101.031 80.1449 97.2442 80.2062 93.4576C80.2065 93.4312 80.2122 93.4051 80.2228 93.3809C80.2335 93.3567 80.2489 93.335 80.2682 93.3169C80.3071 93.2772 80.3601 93.2543 80.4157 93.2529C81.9121 93.1932 82.6431 93.1698 84.1266 93.1399C84.7412 93.1128 85.351 93.2591 85.8859 93.5621ZM84.3404 97.7793C84.547 97.5016 84.6505 97.161 84.6333 96.8156C84.6596 96.4629 84.5613 96.1121 84.3554 95.8242C84.2665 95.713 84.1522 95.6247 84.022 95.5669C83.8917 95.509 83.7495 95.4832 83.6072 95.4916L83.1241 95.5044C83.1124 95.5027 83.1004 95.5037 83.0891 95.5073C83.0778 95.5109 83.0676 95.5171 83.0591 95.5254C83.0506 95.5336 83.0441 95.5437 83.0402 95.5549C83.0363 95.566 83.035 95.5779 83.0365 95.5897C83.0365 96.5768 83.0215 97.0821 83.0108 98.0693C83.0108 98.1268 83.0386 98.1524 83.0963 98.1524L83.5815 98.1396C83.7284 98.1411 83.8737 98.1095 84.0066 98.0471C84.1395 97.9847 84.2565 97.8932 84.349 97.7793H84.3404Z" fill="black"/>
<path d="M91.031 104.043C90.3555 103.395 90.0164 102.534 90.0135 101.459C90.0135 99.4104 90.0135 98.3955 89.9985 96.3871C89.9985 95.3467 90.3256 94.5208 90.9797 93.9096C91.6338 93.2977 92.5167 93.0035 93.6261 93.0334C94.7355 93.0632 95.6141 93.4043 96.296 94.0504C96.6363 94.3783 96.9051 94.7726 97.0857 95.2088C97.2663 95.645 97.3548 96.1136 97.3456 96.5854C97.382 98.596 97.3991 99.6108 97.4354 101.66C97.4539 102.734 97.1269 103.578 96.4542 104.191C95.7787 104.802 94.8788 105.09 93.7523 105.06C92.6257 105.031 91.7065 104.692 91.031 104.043ZM92.3842 92.0718C92.3478 92.027 92.3542 91.9716 92.3991 91.9076L93.3931 90.3022C93.4158 90.2603 93.4505 90.2262 93.4928 90.2042C93.5351 90.1821 93.583 90.1732 93.6304 90.1785C94.3957 90.1998 94.7783 90.2126 95.5436 90.2403C95.6569 90.2403 95.7146 90.283 95.7167 90.3597C95.7113 90.4058 95.6944 90.4498 95.6676 90.4876L94.3529 92.0718C94.3218 92.1081 94.2825 92.1366 94.2384 92.1551C94.1942 92.1736 94.1463 92.1816 94.0985 92.1784C93.4808 92.1613 93.1729 92.1528 92.5551 92.14C92.5233 92.1421 92.4915 92.137 92.4619 92.1252C92.4323 92.1134 92.4058 92.0952 92.3842 92.0718ZM94.3273 102.383C94.4824 102.178 94.5583 101.924 94.541 101.668C94.5154 99.5213 94.5025 98.4702 94.479 96.3594C94.4915 96.1046 94.4161 95.8533 94.2653 95.6473C94.1919 95.5605 94.1002 95.491 93.9967 95.4438C93.8932 95.3966 93.7805 95.3729 93.6667 95.3744C93.5572 95.3648 93.447 95.3817 93.3454 95.4236C93.2438 95.4656 93.1539 95.5313 93.0832 95.6153C92.9356 95.8183 92.8644 96.0667 92.8822 96.3168C92.8993 98.4169 92.91 99.4787 92.9292 101.624C92.9171 101.883 92.9923 102.139 93.143 102.351C93.2141 102.44 93.305 102.511 93.4084 102.56C93.5119 102.608 93.6251 102.632 93.7394 102.63C93.8499 102.637 93.9606 102.619 94.0627 102.576C94.1647 102.533 94.2553 102.467 94.3273 102.383Z" fill="black"/>
<path d="M107.309 94.0566C107.349 94.0946 107.373 94.1466 107.376 94.2016C107.403 94.9798 107.418 95.37 107.448 96.1546C107.45 96.1801 107.446 96.2055 107.436 96.2291C107.426 96.2528 107.412 96.2739 107.393 96.2911C107.373 96.3083 107.35 96.3211 107.325 96.3284C107.3 96.3358 107.273 96.3376 107.247 96.3337C106.392 96.2527 105.965 96.2143 105.11 96.1418C105.053 96.1418 105.025 96.1674 105.026 96.2186C105.126 99.2675 105.226 102.317 105.326 105.367C105.328 105.394 105.323 105.42 105.313 105.444C105.303 105.469 105.288 105.491 105.268 105.508C105.249 105.527 105.225 105.541 105.2 105.549C105.174 105.558 105.147 105.56 105.12 105.557C104.122 105.472 103.624 105.433 102.622 105.361C102.564 105.357 102.511 105.332 102.472 105.291C102.451 105.271 102.435 105.248 102.423 105.222C102.412 105.196 102.406 105.168 102.406 105.139C102.322 102.093 102.239 99.0464 102.158 95.999C102.159 95.9872 102.157 95.9753 102.153 95.9641C102.149 95.953 102.142 95.9429 102.134 95.9344C102.126 95.9259 102.116 95.9193 102.105 95.915C102.094 95.9107 102.082 95.9088 102.07 95.9094C101.247 95.8519 100.837 95.8263 100.014 95.7772C99.9576 95.7753 99.9047 95.7516 99.8661 95.7111C99.8268 95.6728 99.8039 95.6209 99.802 95.5662C99.7849 94.7858 99.7763 94.3957 99.7592 93.6196C99.7574 93.5939 99.7617 93.5682 99.7718 93.5445C99.7818 93.5208 99.7972 93.4998 99.8169 93.4831C99.8357 93.465 99.8583 93.4513 99.8831 93.4428C99.9078 93.4343 99.9341 93.4314 99.9602 93.4341C102.367 93.5897 104.763 93.7731 107.166 93.9842C107.221 93.9913 107.271 94.0169 107.309 94.0566Z" fill="black"/>
<path d="M110.503 106.024C110.462 105.983 110.438 105.928 110.434 105.871C110.275 102.068 110.113 98.267 109.949 94.4662C109.947 94.441 109.951 94.4158 109.961 94.3925C109.971 94.3691 109.986 94.3484 110.005 94.3319C110.024 94.315 110.047 94.3027 110.072 94.2957C110.097 94.2887 110.123 94.2872 110.148 94.2914C111.125 94.398 111.614 94.4534 112.593 94.5728C112.651 94.5802 112.704 94.6073 112.743 94.6495C112.784 94.688 112.807 94.7409 112.809 94.7967C112.952 97.8313 113.098 100.864 113.248 103.894C113.247 103.919 113.256 103.944 113.273 103.962C113.291 103.98 113.314 103.991 113.339 103.992C114.772 104.171 115.488 104.267 116.92 104.474C116.978 104.483 117.032 104.512 117.072 104.555C117.113 104.597 117.138 104.652 117.142 104.711C117.187 105.521 117.209 105.928 117.256 106.745C117.258 106.77 117.254 106.796 117.245 106.82C117.236 106.844 117.221 106.866 117.202 106.883C117.182 106.901 117.158 106.913 117.133 106.919C117.107 106.926 117.081 106.927 117.055 106.922C114.928 106.611 112.795 106.337 110.655 106.101C110.596 106.095 110.542 106.067 110.503 106.024Z" fill="black"/>
<path d="M125.176 108.075C125.041 107.453 124.975 107.144 124.84 106.523C124.84 106.466 124.8 106.431 124.729 106.419C123.968 106.278 123.587 106.205 122.826 106.078C122.756 106.065 122.722 106.088 122.726 106.146C122.681 106.732 122.658 107.026 122.613 107.615C122.613 107.741 122.538 107.792 122.399 107.766C121.394 107.596 120.903 107.512 119.889 107.353C119.858 107.353 119.828 107.346 119.8 107.332C119.772 107.319 119.748 107.299 119.73 107.274C119.711 107.249 119.699 107.22 119.693 107.19C119.688 107.16 119.69 107.128 119.699 107.099C120.303 103.415 120.908 99.7296 121.512 96.044C121.527 95.9267 121.597 95.8777 121.726 95.899C122.85 96.0887 123.414 96.1868 124.541 96.3936C124.597 96.4011 124.65 96.4255 124.693 96.4635C124.735 96.5016 124.765 96.5515 124.778 96.6068C125.903 100.607 127.026 104.606 128.147 108.604C128.147 108.634 128.162 108.649 128.171 108.679C128.171 108.783 128.117 108.822 127.989 108.796C126.961 108.583 126.448 108.491 125.424 108.299C125.363 108.295 125.306 108.27 125.261 108.23C125.216 108.189 125.186 108.135 125.176 108.075ZM121.824 94.8564C121.805 94.8335 121.795 94.8049 121.795 94.7754C121.795 94.7458 121.805 94.7172 121.824 94.6944L122.728 93.2211C122.751 93.1816 122.786 93.151 122.829 93.1347C122.871 93.1184 122.918 93.1173 122.961 93.1315C123.729 93.2659 124.113 93.3447 124.885 93.4769C125 93.4983 125.06 93.5473 125.067 93.6241C125.065 93.668 125.05 93.7104 125.024 93.7456C124.534 94.3042 124.291 94.5856 123.799 95.1506C123.767 95.1831 123.727 95.2067 123.683 95.2191C123.64 95.2314 123.593 95.2321 123.549 95.221C122.927 95.1101 122.617 95.0568 121.997 94.9502C121.929 94.941 121.867 94.9059 121.824 94.8521V94.8564ZM123.03 103.943C123.5 104.024 123.735 104.067 124.205 104.157C124.252 104.157 124.274 104.139 124.269 104.084L123.374 100.095C123.359 100.048 123.34 100.022 123.316 100.018C123.295 100.018 123.277 100.033 123.269 100.076C123.145 101.568 123.081 102.329 122.955 103.85C122.959 103.909 122.983 103.931 123.03 103.939V103.943Z" fill="black"/>
<path d="M132.138 109.416C131.59 109.04 131.126 108.555 130.777 107.99C130.444 107.454 130.244 106.848 130.191 106.22L130.148 105.685C130.145 105.66 130.148 105.635 130.157 105.612C130.166 105.589 130.18 105.569 130.199 105.553C130.219 105.537 130.243 105.526 130.267 105.521C130.292 105.516 130.318 105.516 130.343 105.523C131.328 105.736 131.822 105.841 132.807 106.062C132.867 106.076 132.921 106.109 132.961 106.156C133.004 106.2 133.03 106.257 133.036 106.318C133.051 106.476 133.057 106.557 133.07 106.715C133.086 106.97 133.177 107.216 133.331 107.421C133.463 107.601 133.654 107.73 133.872 107.783C133.958 107.812 134.05 107.816 134.138 107.796C134.227 107.775 134.307 107.731 134.372 107.668C134.437 107.593 134.484 107.505 134.51 107.41C134.536 107.315 134.541 107.215 134.524 107.118C134.485 106.819 134.351 106.541 134.141 106.325C133.715 105.873 133.263 105.446 132.788 105.045C132.168 104.5 131.657 104.025 131.255 103.621C130.838 103.197 130.479 102.721 130.187 102.203C129.88 101.665 129.696 101.066 129.65 100.449C129.582 99.8948 129.688 99.3335 129.956 98.8432C130.21 98.4118 130.625 98.0977 131.11 97.969C131.704 97.815 132.328 97.815 132.923 97.969C133.606 98.1195 134.252 98.4051 134.823 98.8091C135.372 99.197 135.834 99.6943 136.181 100.27C136.521 100.831 136.729 101.462 136.788 102.116C136.805 102.278 136.811 102.361 136.826 102.523C136.83 102.547 136.828 102.572 136.82 102.594C136.812 102.617 136.798 102.638 136.779 102.653C136.759 102.668 136.735 102.678 136.71 102.683C136.685 102.687 136.66 102.685 136.636 102.677C135.663 102.438 135.178 102.323 134.208 102.097C134.147 102.083 134.093 102.05 134.054 102.003C134.011 101.96 133.985 101.905 133.979 101.845L133.936 101.37C133.918 101.129 133.826 100.899 133.673 100.711C133.539 100.534 133.347 100.409 133.13 100.357C133.046 100.329 132.956 100.325 132.87 100.347C132.783 100.368 132.706 100.414 132.645 100.478C132.584 100.561 132.54 100.655 132.516 100.755C132.493 100.856 132.49 100.959 132.508 101.061C132.543 101.367 132.668 101.657 132.869 101.892C133.272 102.341 133.704 102.763 134.163 103.154C134.947 103.856 135.541 104.434 135.948 104.86C136.333 105.255 136.663 105.701 136.929 106.184C137.183 106.657 137.337 107.176 137.382 107.711C137.48 108.751 137.224 109.5 136.615 109.958C136.003 110.414 135.152 110.512 134.062 110.26C133.373 110.104 132.72 109.817 132.138 109.416Z" fill="black"/>
<path d="M40.14 109.598C39.8882 109.519 39.6547 109.391 39.4532 109.221C39.2516 109.051 39.0861 108.843 38.9664 108.608C38.6965 108.043 38.5991 107.41 38.6864 106.79C38.9472 104.035 39.2065 101.28 39.4645 98.5235C39.4719 98.4649 39.4981 98.4103 39.5393 98.3679C39.5799 98.3214 39.6335 98.288 39.6932 98.2719C40.6787 98.0331 41.1725 97.9159 42.1558 97.6878C42.18 97.6806 42.2056 97.6792 42.2304 97.6837C42.2553 97.6881 42.2788 97.6983 42.299 97.7133C42.3174 97.7287 42.3314 97.7486 42.3397 97.771C42.3479 97.7935 42.3501 97.8177 42.346 97.8413C42.0966 100.684 41.8451 103.527 41.5915 106.37C41.5711 106.48 41.5733 106.594 41.5979 106.704C41.6225 106.814 41.669 106.918 41.7347 107.009C41.7975 107.08 41.8799 107.131 41.9716 107.155C42.0632 107.179 42.1601 107.176 42.2498 107.146C42.4783 107.091 42.6786 106.955 42.812 106.762C42.9647 106.551 43.0551 106.301 43.0728 106.041L43.8039 97.5321C43.8085 97.4732 43.8343 97.4179 43.8766 97.3765C43.9158 97.3302 43.9691 97.298 44.0284 97.2848C45.0138 97.0716 45.5055 96.9607 46.4888 96.756C46.5128 96.7492 46.5382 96.7482 46.5627 96.753C46.5872 96.7578 46.6102 96.7683 46.6299 96.7837C46.6487 96.7993 46.6631 96.8195 46.6717 96.8423C46.6803 96.8651 46.6828 96.8897 46.679 96.9138C46.4581 99.6514 46.2387 102.389 46.0207 105.127C45.966 105.835 45.7566 106.524 45.4071 107.144C45.0576 107.763 44.5804 108.301 44.007 108.723C43.4195 109.158 42.7474 109.465 42.0339 109.625C41.4123 109.792 40.7565 109.782 40.14 109.598Z" fill="white"/>
<path d="M56.8372 94.9097C56.8553 94.9263 56.8694 94.9469 56.8783 94.9698C56.8872 94.9927 56.8907 95.0174 56.8885 95.0419C56.8414 95.8243 56.8179 96.2167 56.7688 97.0055C56.7656 97.0627 56.7412 97.1167 56.7004 97.1569C56.6604 97.2003 56.6069 97.2288 56.5486 97.2379C55.6935 97.3744 55.266 97.4511 54.411 97.5876C54.3858 97.5892 54.3622 97.6002 54.3448 97.6183C54.3273 97.6365 54.3174 97.6605 54.3169 97.6857C54.1159 100.763 53.9157 103.839 53.7162 106.913C53.7115 106.973 53.6858 107.029 53.6435 107.071C53.6036 107.117 53.5493 107.148 53.4896 107.159C52.4849 107.331 51.9826 107.421 50.9779 107.606C50.9529 107.613 50.9266 107.613 50.9013 107.608C50.876 107.602 50.8525 107.591 50.8325 107.574C50.8133 107.558 50.7986 107.536 50.7896 107.512C50.7807 107.489 50.7778 107.463 50.7812 107.438C50.9993 104.358 51.218 101.276 51.4375 98.1931C51.4375 98.1377 51.414 98.1142 51.3563 98.1249C50.529 98.2762 50.1164 98.3551 49.2892 98.515C49.2646 98.5216 49.2389 98.5223 49.214 98.5171C49.1891 98.5119 49.1658 98.501 49.1459 98.4852C49.1273 98.4695 49.113 98.4493 49.1044 98.4265C49.0958 98.4038 49.0932 98.3792 49.0968 98.3551C49.1545 97.562 49.1844 97.1676 49.2443 96.3808C49.2495 96.3231 49.2744 96.2689 49.3148 96.2273C49.3546 96.1826 49.4079 96.1519 49.4666 96.1399C51.8778 95.69 54.2848 95.2679 56.7046 94.8756C56.7279 94.872 56.7517 94.8731 56.7744 94.879C56.7972 94.8849 56.8186 94.8953 56.8372 94.9097Z" fill="white"/>
<path d="M63.0258 105.553C62.9616 104.962 62.9295 104.668 62.8675 104.082C62.8675 104.024 62.8376 104.001 62.7671 104.009C62.0082 104.105 61.6277 104.154 60.8688 104.257C60.7983 104.257 60.762 104.299 60.7598 104.357C60.6423 104.967 60.5845 105.274 60.4691 105.886C60.461 105.944 60.4325 105.997 60.3887 106.036C60.3448 106.075 60.2885 106.097 60.2297 106.099C59.2271 106.237 58.7334 106.312 57.7244 106.461C57.5705 106.485 57.5106 106.419 57.5619 106.263C58.6136 102.327 59.6682 98.3921 60.7256 94.4577C60.735 94.4013 60.7631 94.3496 60.8053 94.311C60.8475 94.2723 60.9015 94.2489 60.9586 94.2444C62.083 94.0931 62.6452 94.0206 63.7675 93.8863C63.7919 93.8795 63.8174 93.8783 63.8423 93.8828C63.8672 93.8872 63.8908 93.8971 63.9113 93.9119C63.9318 93.9266 63.9488 93.9458 63.9609 93.9679C63.973 93.99 63.98 94.0146 63.9813 94.0398L65.9821 105.163C65.9883 105.185 65.9933 105.207 65.9971 105.229C65.9971 105.333 65.9265 105.391 65.7983 105.406C64.7765 105.519 64.2656 105.579 63.2331 105.704C63.1048 105.732 63.03 105.677 63.0258 105.553ZM61.1874 93.1592C61.1546 93.1208 61.1631 93.0654 61.213 92.9929L62.3096 91.2212C62.3335 91.1758 62.3687 91.1373 62.4117 91.1093C62.4547 91.0814 62.5042 91.0648 62.5555 91.0612C63.3229 90.9632 63.7055 90.9163 64.4793 90.8267C64.5948 90.8139 64.6504 90.8459 64.6461 90.9205C64.6377 90.9699 64.618 91.0166 64.5884 91.057L63.1732 92.8565C63.1081 92.9377 63.0138 92.9904 62.9103 93.0036C62.2904 93.0803 61.9804 93.1208 61.3627 93.2019C61.3323 93.211 61.3 93.2119 61.2692 93.2044C61.2383 93.1969 61.2101 93.1813 61.1874 93.1592ZM61.3327 102.02C61.8009 101.958 62.036 101.926 62.5042 101.869C62.5512 101.869 62.5747 101.83 62.579 101.773C62.4015 100.253 62.3139 99.4979 62.1514 98.0012C62.1514 97.9585 62.1258 97.9372 62.1023 97.9415C62.0788 97.9457 62.0617 97.9692 62.0488 98.014C61.741 99.5747 61.5871 100.359 61.2771 101.943C61.2643 102.001 61.2857 102.027 61.3327 102.02Z" fill="white"/>
<path d="M74.0172 92.9842C74.0562 92.944 74.1087 92.9197 74.1647 92.916C75.1266 92.8499 75.6097 92.82 76.5717 92.7667C76.598 92.7646 76.6244 92.7679 76.6494 92.7763C76.6744 92.7848 76.6974 92.7982 76.717 92.8158C76.7359 92.8329 76.7507 92.8541 76.7603 92.8777C76.7699 92.9013 76.7741 92.9268 76.7726 92.9522L76.5289 104.318C76.5282 104.346 76.522 104.374 76.5107 104.4C76.4993 104.425 76.483 104.448 76.4626 104.468C76.4435 104.488 76.4203 104.505 76.3947 104.517C76.369 104.528 76.3412 104.535 76.313 104.536C75.195 104.6 74.6349 104.636 73.517 104.715C73.491 104.721 73.4641 104.722 73.4378 104.717C73.4115 104.713 73.3864 104.703 73.3639 104.689C73.3415 104.674 73.322 104.656 73.3068 104.634C73.2916 104.612 73.281 104.587 73.2754 104.561L71.7171 98.7728C71.7138 98.7592 71.7066 98.7469 71.6963 98.7374C71.6861 98.7279 71.6732 98.7217 71.6593 98.7195C71.6294 98.7195 71.6144 98.7366 71.6144 98.7813C71.5546 101.11 71.5247 102.286 71.4648 104.666C71.4625 104.723 71.4388 104.777 71.3985 104.817C71.3592 104.86 71.3048 104.886 71.2468 104.89C70.2613 104.973 69.7675 105.016 68.7821 105.103C68.7557 105.107 68.7288 105.105 68.7033 105.097C68.6778 105.089 68.6543 105.076 68.6346 105.058C68.6155 105.04 68.6006 105.018 68.591 104.994C68.5813 104.97 68.5773 104.944 68.579 104.917C68.7215 101.121 68.864 97.3237 69.0065 93.5257C69.009 93.4707 69.0327 93.4187 69.0728 93.3808C69.1115 93.3395 69.1639 93.3138 69.2203 93.3083C70.3019 93.2081 70.8406 93.1612 71.9201 93.0759C71.9708 93.0648 72.0238 93.0738 72.068 93.1008C72.1122 93.1278 72.1443 93.1708 72.1574 93.2209C72.7731 95.4723 73.0873 96.6109 73.7179 98.9199C73.7205 98.9335 73.7281 98.9456 73.7391 98.9539C73.7502 98.9621 73.764 98.966 73.7777 98.9647C73.8062 98.9647 73.8212 98.9412 73.8226 98.8943C73.8782 96.549 73.906 95.4041 73.9616 93.1207C73.9633 93.07 73.983 93.0217 74.0172 92.9842Z" fill="white"/>
<path d="M85.2443 92.9224C85.755 93.2207 86.1684 93.6598 86.435 94.1867C86.7301 94.7721 86.8769 95.4207 86.8625 96.0758C86.8759 96.7158 86.7352 97.3497 86.4521 97.9243C86.1932 98.4419 85.7902 98.8742 85.2913 99.1694C84.7671 99.4746 84.1711 99.6357 83.5641 99.6363L82.4333 99.6641C82.3735 99.6641 82.3457 99.6939 82.3457 99.7515C82.3264 101.457 82.3179 102.331 82.3008 104.075C82.3 104.132 82.2769 104.185 82.2367 104.225C82.1972 104.265 82.1434 104.288 82.087 104.289C81.0887 104.316 80.5907 104.333 79.5903 104.374C79.5633 104.376 79.5361 104.373 79.5106 104.363C79.4851 104.354 79.462 104.34 79.4428 104.321C79.4232 104.302 79.4077 104.28 79.3974 104.256C79.3871 104.231 79.3821 104.204 79.3829 104.178C79.4427 100.391 79.5033 96.6045 79.5646 92.8179C79.5649 92.7915 79.5706 92.7655 79.5812 92.7413C79.5919 92.7171 79.6073 92.6953 79.6266 92.6772C79.6655 92.6376 79.7185 92.6146 79.7741 92.6133C81.2705 92.5536 82.0015 92.5301 83.485 92.5003C84.0996 92.4732 84.7094 92.6195 85.2443 92.9224ZM83.6988 97.1397C83.9054 96.862 84.0089 96.5213 83.9917 96.176C84.018 95.8233 83.9197 95.4725 83.7138 95.1846C83.6249 95.0734 83.5106 94.9851 83.3804 94.9272C83.2501 94.8693 83.1079 94.8435 82.9656 94.8519L82.4825 94.8647C82.4708 94.863 82.4588 94.864 82.4475 94.8676C82.4362 94.8713 82.426 94.8775 82.4175 94.8857C82.409 94.894 82.4025 94.9041 82.3986 94.9152C82.3947 94.9264 82.3934 94.9383 82.3949 94.95C82.3949 95.9372 82.3799 96.4425 82.3692 97.4296C82.3692 97.4872 82.397 97.5128 82.4547 97.5128L82.9399 97.5C83.0868 97.5015 83.2321 97.4698 83.365 97.4074C83.4979 97.3451 83.6149 97.2535 83.7074 97.1397H83.6988Z" fill="white"/>
<path d="M90.3894 103.404C89.7139 102.756 89.3748 101.894 89.3719 100.82C89.3719 98.7708 89.3719 97.7559 89.3569 95.7475C89.3569 94.707 89.684 93.8812 90.3381 93.27C90.9922 92.6581 91.8751 92.3639 92.9845 92.3937C94.0939 92.4236 94.9725 92.7647 95.6544 93.4107C95.9947 93.7386 96.2635 94.133 96.4441 94.5691C96.6247 95.0053 96.7132 95.474 96.704 95.9458C96.7404 97.9563 96.7575 98.9712 96.7938 101.02C96.8123 102.095 96.4853 102.938 95.8126 103.551C95.1371 104.163 94.2372 104.451 93.1107 104.421C91.9841 104.391 91.0649 104.052 90.3894 103.404ZM91.7426 91.4321C91.7062 91.3874 91.7126 91.3319 91.7575 91.268L92.7515 89.6625C92.7742 89.6207 92.8089 89.5865 92.8512 89.5645C92.8935 89.5425 92.9414 89.5335 92.9888 89.5388C93.7541 89.5602 94.1367 89.573 94.9127 89.6007C95.026 89.6007 95.0837 89.6433 95.0858 89.7201C95.0804 89.7662 95.0635 89.8101 95.0367 89.848L93.722 91.4321C93.6909 91.4684 93.6516 91.497 93.6075 91.5155C93.5633 91.534 93.5154 91.5419 93.4676 91.5387C92.8498 91.5217 92.542 91.5132 91.9242 91.5004C91.8907 91.5041 91.8568 91.4999 91.8252 91.488C91.7936 91.4762 91.7653 91.457 91.7426 91.4321ZM93.6857 101.743C93.8408 101.538 93.9167 101.285 93.8994 101.029C93.8738 98.8816 93.8609 97.8305 93.8374 95.7198C93.8499 95.465 93.7745 95.2136 93.6237 95.0076C93.5503 94.9208 93.4586 94.8513 93.3551 94.8042C93.2516 94.757 93.1389 94.7332 93.0251 94.7347C92.9156 94.7252 92.8054 94.7421 92.7038 94.784C92.6022 94.8259 92.5123 94.8917 92.4416 94.9757C92.294 95.1786 92.2228 95.427 92.2406 95.6771C92.2577 97.7772 92.2684 98.839 92.2876 100.984C92.2754 101.243 92.3507 101.499 92.5014 101.711C92.5725 101.8 92.6634 101.872 92.7668 101.92C92.8703 101.969 92.9835 101.993 93.0978 101.99C93.2083 101.997 93.319 101.979 93.4211 101.936C93.5231 101.893 93.6137 101.827 93.6857 101.743Z" fill="white"/>
<path d="M106.668 93.417C106.708 93.455 106.732 93.5069 106.734 93.562C106.762 94.3402 106.777 94.7304 106.807 95.515C106.808 95.5404 106.804 95.5659 106.794 95.5895C106.785 95.6131 106.77 95.6343 106.751 95.6514C106.731 95.6687 106.708 95.6814 106.683 95.6888C106.658 95.6962 106.632 95.698 106.606 95.6941C105.751 95.613 105.323 95.5747 104.468 95.5022C104.411 95.5022 104.383 95.5278 104.385 95.5789C104.485 98.6278 104.584 101.677 104.684 104.728C104.686 104.754 104.682 104.78 104.672 104.805C104.662 104.829 104.646 104.851 104.626 104.868C104.607 104.887 104.584 104.901 104.558 104.91C104.533 104.918 104.506 104.921 104.479 104.917C103.481 104.832 102.982 104.794 101.98 104.721C101.923 104.718 101.869 104.693 101.83 104.651C101.81 104.631 101.793 104.608 101.782 104.582C101.77 104.556 101.764 104.528 101.764 104.5C101.68 101.454 101.597 98.4068 101.516 95.3593C101.517 95.3475 101.515 95.3356 101.511 95.3245C101.507 95.3134 101.501 95.3032 101.493 95.2947C101.484 95.2862 101.474 95.2796 101.463 95.2753C101.452 95.271 101.44 95.2691 101.428 95.2698C100.605 95.2122 100.195 95.1866 99.372 95.1376C99.316 95.1357 99.263 95.1119 99.2245 95.0715C99.1852 95.0332 99.1623 94.9813 99.1604 94.9265C99.1433 94.1462 99.1347 93.756 99.1176 92.9799C99.1158 92.9543 99.1201 92.9285 99.1302 92.9048C99.1402 92.8811 99.1556 92.8601 99.1753 92.8435C99.1941 92.8254 99.2167 92.8116 99.2415 92.8032C99.2662 92.7947 99.2925 92.7917 99.3186 92.7944C101.726 92.9501 104.122 93.1334 106.525 93.3445C106.579 93.3517 106.63 93.3772 106.668 93.417Z" fill="white"/>
<path d="M109.861 105.385C109.821 105.343 109.796 105.289 109.793 105.231C109.633 101.429 109.471 97.6273 109.308 93.8265C109.306 93.8014 109.31 93.7761 109.319 93.7528C109.329 93.7295 109.344 93.7087 109.363 93.6922C109.383 93.6754 109.405 93.663 109.43 93.656C109.455 93.649 109.481 93.6476 109.506 93.6517C110.483 93.7583 110.973 93.8138 111.952 93.9331C112.009 93.9406 112.062 93.9677 112.101 94.0099C112.142 94.0484 112.166 94.1012 112.168 94.157C112.31 97.1917 112.456 100.224 112.606 103.255C112.605 103.28 112.615 103.304 112.632 103.322C112.649 103.341 112.673 103.352 112.698 103.353C114.13 103.532 114.846 103.628 116.278 103.835C116.337 103.844 116.39 103.872 116.43 103.916C116.471 103.958 116.496 104.013 116.501 104.071C116.546 104.881 116.567 105.289 116.614 106.105C116.616 106.131 116.613 106.157 116.603 106.181C116.594 106.205 116.58 106.226 116.561 106.244C116.54 106.261 116.517 106.273 116.491 106.28C116.466 106.286 116.439 106.287 116.413 106.282C114.287 105.971 112.153 105.697 110.013 105.461C109.955 105.455 109.901 105.428 109.861 105.385Z" fill="white"/>
<path d="M124.534 107.436C124.399 106.813 124.333 106.504 124.199 105.884C124.199 105.826 124.158 105.792 124.087 105.779C123.326 105.638 122.946 105.566 122.185 105.438C122.114 105.425 122.08 105.449 122.084 105.506C122.04 106.092 122.016 106.387 121.971 106.975C121.971 107.101 121.896 107.152 121.757 107.127C120.753 106.956 120.261 106.873 119.248 106.713C119.217 106.713 119.186 106.706 119.158 106.693C119.131 106.679 119.107 106.659 119.088 106.634C119.069 106.61 119.057 106.581 119.052 106.55C119.046 106.52 119.048 106.489 119.057 106.459C119.662 102.775 120.266 99.09 120.87 95.4043C120.885 95.287 120.956 95.238 121.084 95.2593C122.208 95.4491 122.773 95.5472 123.899 95.754C123.956 95.7614 124.009 95.7858 124.051 95.8239C124.093 95.8619 124.123 95.9119 124.137 95.9672C125.261 99.967 126.384 103.966 127.505 107.964C127.505 107.994 127.52 108.009 127.529 108.039C127.529 108.144 127.476 108.182 127.347 108.156C126.319 107.943 125.806 107.851 124.782 107.66C124.722 107.655 124.664 107.631 124.619 107.59C124.575 107.55 124.544 107.495 124.534 107.436ZM121.182 94.2167C121.164 94.1939 121.153 94.1653 121.153 94.1357C121.153 94.1062 121.164 94.0776 121.182 94.0547L122.087 92.5814C122.109 92.5419 122.144 92.5114 122.187 92.4951C122.229 92.4787 122.276 92.4776 122.32 92.4919C123.087 92.6262 123.472 92.7051 124.243 92.8373C124.359 92.8586 124.419 92.9076 124.425 92.9844C124.424 93.0283 124.409 93.0708 124.382 93.1059C123.893 93.6645 123.649 93.946 123.158 94.511C123.126 94.5435 123.086 94.5671 123.042 94.5794C122.998 94.5918 122.952 94.5924 122.907 94.5813C122.285 94.4705 121.975 94.4172 121.355 94.3106C121.287 94.3013 121.225 94.2662 121.182 94.2125V94.2167ZM122.388 103.304C122.858 103.385 123.093 103.427 123.564 103.517C123.611 103.517 123.632 103.5 123.628 103.444L122.732 99.4553C122.718 99.4084 122.699 99.3828 122.674 99.3785C122.653 99.3785 122.636 99.3934 122.627 99.4361C122.503 100.929 122.439 101.69 122.313 103.21C122.317 103.27 122.341 103.291 122.388 103.299V103.304Z" fill="white"/>
<path d="M131.497 108.777C130.948 108.401 130.484 107.915 130.135 107.35C129.803 106.815 129.602 106.208 129.549 105.581L129.507 105.045C129.503 105.021 129.506 104.996 129.515 104.973C129.524 104.95 129.539 104.929 129.558 104.913C129.578 104.897 129.601 104.886 129.626 104.881C129.651 104.876 129.676 104.877 129.701 104.883C130.686 105.097 131.18 105.201 132.166 105.423C132.226 105.437 132.28 105.47 132.32 105.517C132.362 105.561 132.389 105.618 132.394 105.679C132.409 105.836 132.416 105.917 132.429 106.075C132.445 106.331 132.535 106.576 132.689 106.781C132.821 106.962 133.013 107.09 133.23 107.143C133.316 107.172 133.408 107.176 133.497 107.156C133.585 107.136 133.666 107.092 133.731 107.028C133.795 106.954 133.842 106.865 133.868 106.77C133.895 106.675 133.899 106.575 133.882 106.478C133.843 106.18 133.709 105.902 133.5 105.685C133.073 105.233 132.621 104.806 132.146 104.406C131.527 103.86 131.016 103.385 130.614 102.982C130.197 102.558 129.838 102.081 129.545 101.564C129.238 101.026 129.055 100.426 129.008 99.809C128.94 99.2552 129.047 98.6938 129.314 98.2035C129.569 97.7721 129.983 97.4581 130.468 97.3294C131.063 97.1754 131.687 97.1754 132.281 97.3294C132.965 97.4798 133.611 97.7655 134.182 98.1694C134.73 98.5573 135.193 99.0546 135.539 99.6299C135.879 100.191 136.087 100.823 136.146 101.476C136.163 101.638 136.17 101.721 136.185 101.884C136.189 101.907 136.187 101.932 136.178 101.955C136.17 101.978 136.156 101.998 136.138 102.014C136.117 102.029 136.094 102.039 136.069 102.043C136.044 102.047 136.018 102.045 135.994 102.037C135.022 101.798 134.536 101.683 133.566 101.457C133.506 101.444 133.452 101.411 133.412 101.363C133.37 101.321 133.343 101.265 133.337 101.206L133.294 100.73C133.276 100.489 133.184 100.259 133.031 100.071C132.897 99.894 132.705 99.7689 132.489 99.7173C132.404 99.6889 132.314 99.6853 132.228 99.7069C132.142 99.7284 132.064 99.7742 132.003 99.8388C131.942 99.9215 131.898 100.016 131.875 100.116C131.851 100.216 131.848 100.32 131.866 100.421C131.901 100.728 132.027 101.017 132.228 101.252C132.63 101.702 133.062 102.123 133.521 102.515C134.306 103.216 134.9 103.794 135.306 104.22C135.691 104.616 136.021 105.061 136.287 105.544C136.541 106.017 136.695 106.537 136.74 107.071C136.839 108.111 136.583 108.86 135.973 109.318C135.362 109.774 134.511 109.872 133.421 109.621C132.731 109.464 132.078 109.177 131.497 108.777Z" fill="white"/>
<path d="M20.1189 97.3553C18.0774 97.3553 16.3096 96.5557 15.1425 95.1059C12.9685 92.4024 13.5435 88.3856 14.1634 85.5989L15.927 77.738L17.9984 77.158C18.5128 77.0159 19.0287 76.8738 19.546 76.7316C19.1625 76.3134 18.8401 75.8432 18.5883 75.3351C17.5601 73.2819 17.4575 70.4974 18.2805 66.8323L20.2172 58.1953C20.9462 54.9375 22.2458 52.3917 24.0799 50.6285C26.0851 48.7096 28.6395 47.7246 31.675 47.7246H37.701C40.8754 47.7438 43.2824 48.7054 44.86 50.5816C46.4632 52.5005 46.9976 55.1059 46.4397 58.3552L45.264 65.2397L42.9938 65.4358C44.2401 67.3121 44.5799 69.7768 44.0348 72.9706L42.6796 80.9254C41.5766 87.4112 37.8036 91.799 31.4719 93.9311C29.1675 94.7051 26.8375 95.5323 24.5331 96.398C22.8743 97.0376 21.4293 97.3489 20.121 97.3489L20.1189 97.3553Z" fill="black"/>
<path d="M38.9664 78.2773L39.3192 77.6867C42.7394 71.9663 46.1596 66.4783 49.7252 61.0564L46.6919 61.1993L42.2648 61.4125L44.4452 47.7139H69.2419L68.2607 58.1611L67.7434 58.9222C64.5113 63.6917 61.4609 68.3524 58.513 73.0238C59.7443 72.8547 60.9714 72.6976 62.1941 72.5526L66.6297 72.0196L65.3065 85.9315L62.5275 86.3579C55.6473 87.407 48.8338 88.8536 42.1216 90.6903L36.7305 92.1635L38.9664 78.2773Z" fill="black"/>
<path d="M65.0352 47.7224H88.6327L88.4959 60.1994H87.1941L87.0145 71.0325L88.7973 71.0112L88.6712 84.4305L85.1547 84.4817C78.846 84.5752 72.5476 85.0258 66.29 85.8313L61.8779 86.3984L65.0352 47.7224Z" fill="black"/>
<path d="M103.778 85.1938C103.248 85.1938 102.685 85.1661 102.106 85.1128C99.8681 84.9145 97.5808 84.7588 95.3299 84.6522C88.5963 84.3473 84.7229 80.7185 84.7079 74.6954L84.6523 56.5727C84.6523 53.995 85.4347 51.897 87.0038 50.3342C88.7395 48.5965 91.294 47.716 94.5945 47.7139H100.766C106.886 47.7139 110.663 50.912 111.129 56.5002L112.707 75.5013C112.957 78.4862 112.279 80.8678 110.685 82.5905C109.09 84.3132 106.768 85.1938 103.778 85.1938Z" fill="black"/>
<path d="M132.099 90.4643C125.758 88.7637 119.327 87.4114 112.837 86.4133L110.058 85.9869L106.386 47.7224H130.064L132.215 61.3891L130.907 61.3251L133.066 75.4288L128.245 74.7189C126.963 74.5312 125.68 74.3514 124.398 74.1794L124.408 74.2583C127.125 74.7316 129.859 75.2583 132.566 75.8318L134.985 76.3456L137.452 91.9098L132.099 90.4643Z" fill="black"/>
<path d="M155.062 97.3957C153.749 97.3957 152.304 97.0844 150.643 96.4427C145.675 94.5728 140.656 92.9013 135.723 91.4749L133.555 90.8459L126.266 47.7224H143.356C146.402 47.7224 148.967 48.6968 150.977 50.6199C152.822 52.3832 154.128 54.9331 154.857 58.1952L161.011 85.6287C161.635 88.4218 162.21 92.4514 160.034 95.1485C158.869 96.5983 157.103 97.3957 155.062 97.3957Z" fill="black"/>
<path d="M30.7665 80.9745C31.1527 78.9746 31.5346 77.001 31.9123 75.0537C32.0933 74.1226 31.784 73.7367 30.9846 73.8959C29.4497 74.2044 27.9113 74.527 26.3694 74.8639C23.9859 75.3863 22.4618 75.043 21.8162 73.7403C21.1706 72.4376 21.1749 70.3844 21.7948 67.6148L23.7315 58.9778C24.8923 53.7861 27.5579 51.2809 31.7605 51.315H37.6796C41.8823 51.3406 43.6244 53.4471 42.8891 57.7497C42.6568 59.1185 42.421 60.5015 42.1815 61.8987C39.5337 62.1261 36.8823 62.3756 34.2273 62.6471C34.4326 61.5938 34.6356 60.5484 34.8366 59.5108C34.999 58.6736 34.7083 58.2784 33.9644 58.3253L32.669 58.4085C31.9237 58.4554 31.4627 58.9131 31.2859 59.7816C30.9012 61.6748 30.51 63.5937 30.1124 65.5382C29.9285 66.4486 30.2214 66.8494 30.9974 66.7385C32.451 66.5338 33.9031 66.337 35.3539 66.1479C37.6326 65.8559 39.1503 66.2631 39.9178 67.3121C40.6852 68.361 40.8818 70.0411 40.4864 72.3694C40.0417 74.9734 39.5893 77.6242 39.129 80.322C38.2483 85.503 35.309 88.8504 30.3112 90.539C27.9683 91.3264 25.6169 92.1636 23.257 93.0506C18.0946 95.0462 16.2391 92.8757 17.6991 86.3814C18.1352 84.437 18.5627 82.5181 18.9817 80.6248C21.8675 79.8174 24.7419 79.0627 27.6049 78.3605C27.357 79.5758 27.1076 80.8018 26.8567 82.0384C26.6501 83.0532 26.9636 83.4413 27.7973 83.2025C28.2804 83.0603 28.7635 82.9239 29.2466 82.7931C30.0689 82.5543 30.5755 81.9481 30.7665 80.9745Z" fill="white"/>
<path d="M25.2385 97.6451L18.7593 93.494L20.4331 92.5942L25.2385 97.6451Z" fill="white" stroke="white" stroke-miterlimit="10"/>
<path d="M149.938 97.6451L156.419 93.494L154.746 92.5942L149.938 97.6451Z" fill="white" stroke="white" stroke-miterlimit="10"/>
<path d="M65.2786 51.3149C65.1062 53.1627 64.9309 55.0326 64.7528 56.9244C60.5416 63.1373 56.0761 69.9856 51.3284 77.7869C55.102 77.1316 58.8636 76.5794 62.613 76.1302C62.4064 78.3263 62.1926 80.5536 61.9717 82.8122C54.9563 83.8814 48.0094 85.3572 41.166 87.232C41.585 84.6209 41.9983 82.0517 42.4058 79.5245C47.4614 71.0601 52.192 63.7279 56.634 57.1824C53.2637 57.3075 49.889 57.4496 46.5101 57.6088C46.8479 55.4768 47.182 53.3759 47.5127 51.3064L65.2786 51.3149Z" fill="white"/>
<path d="M74.7271 75.0301C78.2072 74.8169 81.6852 74.6897 85.161 74.6485C85.1424 76.7038 85.1232 78.7861 85.1033 80.8955C78.6571 80.9891 72.2216 81.4497 65.8281 82.2749C66.7302 71.2116 67.5724 60.9178 68.3548 51.3149H84.9921C84.9736 53.059 84.9543 54.8265 84.9344 56.6174C81.8391 56.6274 78.7438 56.6544 75.6485 56.6985C75.5501 58.6301 75.4518 60.5874 75.3535 62.5702C78.0868 62.4892 80.8208 62.4359 83.5556 62.4103C83.5242 64.3007 83.4929 66.2196 83.4616 68.1669C80.6612 68.2067 77.8609 68.2892 75.0606 68.4143C74.9509 70.5861 74.8397 72.7914 74.7271 75.0301Z" fill="white"/>
<path d="M107.903 61.2121C105.274 61.1012 102.646 61.0117 100.018 60.9434C99.9535 59.694 99.8893 58.4567 99.8252 57.2315C99.791 56.5919 99.3977 56.2593 98.6709 56.2507L97.0826 56.2337C96.3472 56.2251 95.991 56.5407 96.0138 57.1803C96.2076 62.6498 96.4114 68.3354 96.6252 74.237C96.6508 74.9619 97.0527 75.3393 97.8564 75.3798C98.4265 75.4096 99.0001 75.4416 99.5773 75.4757C100.372 75.5226 100.753 75.1836 100.717 74.4523C100.624 72.6912 100.534 70.9507 100.445 69.2309C99.6685 69.1925 98.8918 69.1584 98.1151 69.1285C98.0424 67.3759 97.9712 65.644 97.9013 63.9326C101.322 64.0293 104.745 64.1714 108.173 64.359C108.481 68.0731 108.798 71.8853 109.124 75.7955C109.485 80.1386 107.26 81.9786 102.452 81.5245C100.138 81.3198 97.8237 81.1634 95.5093 81.0554C90.7253 80.8422 88.329 78.7869 88.3183 74.6762C88.2997 68.3837 88.2812 62.3428 88.2627 56.5535C88.2627 53.027 90.3661 51.2979 94.6008 51.2979H100.736C104.968 51.2872 107.236 53.0931 107.544 56.7901C107.66 58.2556 107.779 59.7296 107.903 61.2121Z" fill="white"/>
<path d="M121.172 77.3562C124.708 77.9248 128.257 78.5878 131.82 79.3454C132.217 81.8528 132.622 84.4027 133.034 86.9954C126.565 85.2564 120.004 83.8748 113.382 82.857C112.297 71.574 111.288 61.0863 110.349 51.3149H126.984C127.309 53.3745 127.638 55.4661 127.972 57.5897C124.861 57.4376 121.753 57.3047 118.647 57.191C118.91 59.3031 119.178 61.4473 119.451 63.6235C122.206 63.8367 124.964 64.0776 127.726 64.3462C128.068 66.5849 128.416 68.8591 128.769 71.1689C125.919 70.751 123.081 70.3765 120.255 70.0453C120.557 72.4375 120.863 74.8745 121.172 77.3562Z" fill="white"/>
<path d="M130.524 51.315H143.271C147.501 51.2809 150.182 53.7861 151.342 58.9778L157.497 86.4134C158.948 92.9163 157.095 95.0889 151.939 93.089C146.824 91.1644 141.756 89.4765 136.736 88.0253C134.483 74.753 132.424 62.5575 130.524 51.315ZM148.469 82.7462C146.784 74.4709 145.182 66.6184 143.666 59.1888C143.491 58.326 143.032 57.8719 142.29 57.8264L139.297 57.6537C140.827 65.6135 142.45 74.0487 144.164 82.9594C145.28 83.2664 146.398 83.5827 147.518 83.9082C148.36 84.1541 148.678 83.7668 148.469 82.7462Z" fill="white"/>
<path d="M22.1986 65.8088C22.0661 66.408 21.9293 67.0092 21.7947 67.6147C21.1726 70.3864 21.1726 72.4545 21.816 73.7402C22.4595 75.0258 23.9857 75.3862 26.3692 74.8638C27.9111 74.5269 29.4496 74.2043 30.9844 73.8958C31.7839 73.7366 32.0931 74.1225 31.9121 75.0535C31.5359 77.0009 31.154 78.9745 30.7663 80.9743C30.5754 81.9494 30.0652 82.5521 29.2358 82.7824C28.7527 82.9174 28.2696 83.0538 27.7864 83.1917C26.9499 83.4305 26.6364 83.0425 26.8459 82.0276C27.0967 80.791 27.3461 79.565 27.5941 78.3498C24.7325 79.0505 21.858 79.8053 18.9708 80.614C18.5433 82.5116 18.1157 84.4305 17.6882 86.3707C16.2389 92.865 18.0944 95.0354 23.2461 93.0398C25.6103 92.1514 27.9617 91.3142 30.3003 90.5282C35.2981 88.8225 38.2374 85.4922 39.1181 80.3113C39.5741 77.6447 40.0216 75.0223 40.4606 72.4439C33.8815 71.9298 27.5677 69.6358 22.1986 65.8088Z" fill="white"/>
<path d="M51.3283 77.7869C52.9686 75.0863 54.5761 72.4993 56.1509 70.0261C53.1492 71.2235 49.9977 72.0068 46.7837 72.3544C45.3586 74.6527 43.9014 77.0435 42.4122 79.5267C42.0061 82.0525 41.5928 84.6216 41.1724 87.2342C48.0157 85.3594 54.9627 83.8836 61.9781 82.8144C62.1918 80.5543 62.4056 78.327 62.6194 76.1324C58.8657 76.5816 55.102 77.1331 51.3283 77.7869Z" fill="white"/>
<path d="M74.7271 75.0302C74.8397 72.7901 74.9509 70.5819 75.0606 68.4058C77.8609 68.2821 80.6612 68.1997 83.4616 68.1585C83.4872 66.5821 83.5129 65.025 83.5385 63.4871C77.9995 63.7573 72.5056 64.62 67.1513 66.0605C66.7238 71.2727 66.2827 76.674 65.8281 82.2643C72.2216 81.4391 78.6571 80.9785 85.1033 80.8849C85.1232 78.7741 85.1424 76.6918 85.161 74.6379C81.688 74.6791 78.2101 74.8098 74.7271 75.0302Z" fill="white"/>
<path d="M109.113 75.8062L108.258 65.5722C108.226 65.1714 108.192 64.7727 108.16 64.374C104.893 64.1906 101.63 64.052 98.3693 63.9582L97.8883 63.9433C97.961 65.649 98.0322 67.3809 98.1021 69.1392C98.8802 69.169 99.6569 69.2031 100.432 69.2415C100.522 70.9628 100.612 72.7033 100.704 74.463C100.74 75.1943 100.359 75.529 99.5642 75.4864C98.9942 75.4523 98.4206 75.4203 97.8434 75.3904C97.0482 75.3499 96.6378 74.964 96.6121 74.2477C96.4839 70.6615 96.3578 67.1592 96.2338 63.7407C93.5774 63.5034 90.921 63.3811 88.2646 63.374C88.2746 67.0497 88.286 70.8221 88.2989 74.6911C88.3095 78.8018 90.7058 80.8528 95.4899 81.0703C97.8028 81.1783 100.117 81.3347 102.433 81.5394C107.249 81.985 109.474 80.1493 109.113 75.8062Z" fill="white"/>
<path d="M131.819 79.3455C128.256 78.5893 124.707 77.9262 121.171 77.3562C120.859 74.8787 120.554 72.4404 120.254 70.0411C123.087 70.3737 125.926 70.7482 128.769 71.1646L128.108 66.8429C123.734 67.9473 119.096 68.3759 114.203 67.0241C113.403 66.8024 112.602 66.5892 111.798 66.3845C112.307 71.6792 112.835 77.1679 113.382 82.8506C120.004 83.8684 126.564 85.25 133.033 86.989C132.621 84.4006 132.217 81.8528 131.819 79.3455Z" fill="white"/>
<path d="M157.497 86.4134C155.502 77.4885 153.608 69.0454 151.815 61.0842C149.41 60.4553 146.845 60.726 144.119 61.4382C145.499 68.2082 146.947 75.3109 148.463 82.7462C148.67 83.7668 148.355 84.1541 147.52 83.9082C146.4 83.5813 145.282 83.265 144.166 82.9594C142.805 75.8823 141.504 69.1151 140.261 62.6577C137.909 63.4935 135.451 64.4849 132.895 65.3783C134.107 72.562 135.383 80.1109 136.721 88.0252C141.742 89.4793 146.809 91.1672 151.924 93.0889C157.095 95.0888 158.948 92.9162 157.497 86.4134Z" fill="white"/>
<path d="M22.1986 65.8088C22.0661 66.408 21.9293 67.0092 21.7947 67.6147C21.1726 70.3864 21.1726 72.4545 21.816 73.7402C22.4595 75.0258 23.9857 75.3862 26.3692 74.8638C27.9111 74.5269 29.4496 74.2043 30.9844 73.8958C31.7839 73.7366 32.0931 74.1225 31.9121 75.0535C31.5359 77.0009 31.154 78.9745 30.7663 80.9743C30.5754 81.9494 30.0652 82.5521 29.2358 82.7824C28.7527 82.9174 28.2696 83.0538 27.7864 83.1917C26.9499 83.4305 26.6364 83.0425 26.8459 82.0276C27.0967 80.791 27.3461 79.565 27.5941 78.3498C24.7325 79.0505 21.858 79.8053 18.9708 80.614C18.5433 82.5116 18.1157 84.4305 17.6882 86.3707C16.2389 92.865 18.0944 95.0354 23.2461 93.0398C25.6103 92.1514 27.9617 91.3142 30.3003 90.5282C35.2981 88.8225 38.2374 85.4922 39.1181 80.3113C39.5741 77.6447 40.0216 75.0223 40.4606 72.4439C33.8815 71.9298 27.5677 69.6358 22.1986 65.8088Z" fill="url(#paint2_linear_487_13941)"/>
<path d="M51.3283 77.7869C52.9686 75.0863 54.5761 72.4993 56.1509 70.0261C53.1492 71.2235 49.9977 72.0068 46.7837 72.3544C45.3586 74.6527 43.9014 77.0435 42.4122 79.5267C42.0061 82.0525 41.5928 84.6216 41.1724 87.2342C48.0157 85.3594 54.9627 83.8836 61.9781 82.8144C62.1918 80.5543 62.4056 78.327 62.6194 76.1324C58.8657 76.5816 55.102 77.1331 51.3283 77.7869Z" fill="url(#paint3_linear_487_13941)"/>
<path d="M74.7271 75.0302C74.8397 72.7901 74.9509 70.5819 75.0606 68.4058C77.8609 68.2821 80.6612 68.1997 83.4616 68.1585C83.4872 66.5821 83.5129 65.025 83.5385 63.4871C77.9995 63.7573 72.5056 64.62 67.1513 66.0605C66.7238 71.2727 66.2827 76.674 65.8281 82.2643C72.2216 81.4391 78.6571 80.9785 85.1033 80.8849C85.1232 78.7741 85.1424 76.6918 85.161 74.6379C81.688 74.6791 78.2101 74.8098 74.7271 75.0302Z" fill="url(#paint4_linear_487_13941)"/>
<path d="M109.113 75.8062L108.258 65.5722C108.226 65.1714 108.192 64.7727 108.16 64.374C104.893 64.1906 101.63 64.052 98.3693 63.9582L97.8883 63.9433C97.961 65.649 98.0322 67.3809 98.1021 69.1392C98.8802 69.169 99.6569 69.2031 100.432 69.2415C100.522 70.9628 100.612 72.7033 100.704 74.463C100.74 75.1943 100.359 75.529 99.5642 75.4864C98.9942 75.4523 98.4206 75.4203 97.8434 75.3904C97.0482 75.3499 96.6378 74.964 96.6121 74.2477C96.4839 70.6615 96.3578 67.1592 96.2338 63.7407C93.5774 63.5034 90.921 63.3811 88.2646 63.374C88.2746 67.0497 88.286 70.8221 88.2989 74.6911C88.3095 78.8018 90.7058 80.8528 95.4899 81.0703C97.8028 81.1783 100.117 81.3347 102.433 81.5394C107.249 81.985 109.474 80.1493 109.113 75.8062Z" fill="url(#paint5_linear_487_13941)"/>
<path d="M131.819 79.3455C128.256 78.5893 124.707 77.9262 121.171 77.3562C120.859 74.8787 120.554 72.4404 120.254 70.0411C123.087 70.3737 125.926 70.7482 128.769 71.1646L128.108 66.8429C123.734 67.9473 119.096 68.3759 114.203 67.0241C113.403 66.8024 112.602 66.5892 111.798 66.3845C112.307 71.6792 112.835 77.1679 113.382 82.8506C120.004 83.8684 126.564 85.25 133.033 86.989C132.621 84.4006 132.217 81.8528 131.819 79.3455Z" fill="url(#paint6_linear_487_13941)"/>
<path d="M157.497 86.4134C155.502 77.4885 153.608 69.0454 151.815 61.0842C149.41 60.4553 146.845 60.726 144.119 61.4382C145.499 68.2082 146.947 75.3109 148.463 82.7462C148.67 83.7668 148.355 84.1541 147.52 83.9082C146.4 83.5813 145.282 83.265 144.166 82.9594C142.805 75.8823 141.504 69.1151 140.261 62.6577C137.909 63.4935 135.451 64.4849 132.895 65.3783C134.107 72.562 135.383 80.1109 136.721 88.0252C141.742 89.4793 146.809 91.1672 151.924 93.0889C157.095 95.0888 158.948 92.9162 157.497 86.4134Z" fill="url(#paint7_linear_487_13941)"/>
<path d="M30.7665 80.9745C31.1527 78.9746 31.5346 77.001 31.9123 75.0537C32.0933 74.1226 31.784 73.7367 30.9846 73.8959C29.4497 74.2044 27.9113 74.527 26.3694 74.8639C23.9859 75.3863 22.4618 75.043 21.8162 73.7403C21.1706 72.4376 21.1749 70.3844 21.7948 67.6148L23.7315 58.9778C24.8923 53.7861 27.5579 51.2809 31.7605 51.315H37.6796C41.8823 51.3406 43.6244 53.4471 42.8891 57.7497C42.6568 59.1185 42.421 60.5015 42.1815 61.8987C39.5337 62.1261 36.8823 62.3756 34.2273 62.6471C34.4326 61.5938 34.6356 60.5484 34.8366 59.5108C34.999 58.6736 34.7083 58.2784 33.9644 58.3253L32.669 58.4085C31.9237 58.4554 31.4627 58.9131 31.2859 59.7816C30.9012 61.6748 30.51 63.5937 30.1124 65.5382C29.9285 66.4486 30.2214 66.8494 30.9974 66.7385C32.451 66.5338 33.9031 66.337 35.3539 66.1479C37.6326 65.8559 39.1503 66.2631 39.9178 67.3121C40.6852 68.361 40.8818 70.0411 40.4864 72.3694C40.0417 74.9734 39.5893 77.6242 39.129 80.322C38.2483 85.503 35.309 88.8504 30.3112 90.539C27.9683 91.3264 25.6169 92.1636 23.257 93.0506C18.0946 95.0462 16.2391 92.8757 17.6991 86.3814C18.1352 84.437 18.5627 82.5181 18.9817 80.6248C21.8675 79.8174 24.7419 79.0627 27.6049 78.3605C27.357 79.5758 27.1076 80.8018 26.8567 82.0384C26.6501 83.0532 26.9636 83.4413 27.7973 83.2025C28.2804 83.0603 28.7635 82.9239 29.2466 82.7931C30.0689 82.5543 30.5755 81.9481 30.7665 80.9745Z" stroke="white" stroke-miterlimit="10"/>
<path d="M65.2786 51.3149C65.1062 53.1627 64.9309 55.0326 64.7528 56.9244C60.5416 63.1373 56.0761 69.9856 51.3284 77.7869C55.102 77.1316 58.8636 76.5794 62.613 76.1302C62.4064 78.3263 62.1926 80.5536 61.9717 82.8122C54.9563 83.8814 48.0094 85.3572 41.166 87.232C41.585 84.6209 41.9983 82.0517 42.4058 79.5245C47.4614 71.0601 52.192 63.7279 56.634 57.1824C53.2637 57.3075 49.889 57.4496 46.5101 57.6088C46.8479 55.4768 47.182 53.3759 47.5127 51.3064L65.2786 51.3149Z" stroke="white" stroke-miterlimit="10"/>
<path d="M74.7271 75.0301C78.2072 74.8169 81.6852 74.6897 85.161 74.6485C85.1424 76.7038 85.1232 78.7861 85.1032 80.8955C78.6571 80.9891 72.2216 81.4497 65.8281 82.2749C66.7302 71.2116 67.5724 60.9178 68.3548 51.3149H84.9921C84.9736 53.059 84.9543 54.8265 84.9344 56.6174C81.8391 56.6274 78.7438 56.6544 75.6485 56.6985C75.5501 58.6301 75.4518 60.5874 75.3535 62.5702C78.0868 62.4892 80.8208 62.4359 83.5556 62.4103C83.5242 64.3007 83.4929 66.2196 83.4616 68.1669C80.6612 68.2067 77.8609 68.2892 75.0606 68.4143C74.9509 70.5861 74.8397 72.7914 74.7271 75.0301Z" stroke="white" stroke-miterlimit="10"/>
<path d="M107.903 61.2121C105.274 61.1012 102.646 61.0117 100.018 60.9434C99.9535 59.694 99.8893 58.4567 99.8252 57.2315C99.791 56.5919 99.3977 56.2593 98.6709 56.2507L97.0826 56.2337C96.3472 56.2251 95.991 56.5407 96.0138 57.1803C96.2076 62.6498 96.4114 68.3354 96.6252 74.237C96.6508 74.9619 97.0527 75.3393 97.8564 75.3798C98.4265 75.4096 99.0001 75.4416 99.5773 75.4757C100.372 75.5226 100.753 75.1836 100.717 74.4523C100.624 72.6912 100.534 70.9507 100.445 69.2309C99.6685 69.1925 98.8918 69.1584 98.1151 69.1285C98.0424 67.3759 97.9712 65.644 97.9013 63.9326C101.322 64.0293 104.745 64.1714 108.173 64.359C108.481 68.0731 108.798 71.8853 109.124 75.7955C109.485 80.1386 107.26 81.9786 102.452 81.5245C100.138 81.3198 97.8237 81.1634 95.5093 81.0554C90.7253 80.8422 88.329 78.7869 88.3183 74.6762C88.2997 68.3837 88.2812 62.3428 88.2627 56.5535C88.2627 53.027 90.3661 51.2979 94.6008 51.2979H100.736C104.968 51.2872 107.236 53.0931 107.544 56.7901C107.66 58.2556 107.779 59.7296 107.903 61.2121Z" stroke="white" stroke-miterlimit="10"/>
<path d="M121.172 77.3562C124.708 77.9248 128.257 78.5878 131.82 79.3454C132.217 81.8528 132.622 84.4027 133.034 86.9954C126.565 85.2564 120.004 83.8748 113.382 82.857C112.297 71.574 111.288 61.0863 110.349 51.3149H126.984C127.309 53.3745 127.638 55.4661 127.972 57.5897C124.861 57.4376 121.753 57.3047 118.647 57.191C118.91 59.3031 119.178 61.4473 119.451 63.6235C122.206 63.8367 124.964 64.0776 127.726 64.3462C128.068 66.5849 128.416 68.8591 128.769 71.1689C125.919 70.751 123.081 70.3765 120.255 70.0453C120.557 72.4375 120.863 74.8745 121.172 77.3562Z" stroke="white" stroke-miterlimit="10"/>
<path d="M130.524 51.315H143.271C147.501 51.2809 150.182 53.7861 151.342 58.9778L157.497 86.4134C158.948 92.9163 157.095 95.0889 151.939 93.089C146.824 91.1644 141.756 89.4765 136.736 88.0253C134.483 74.753 132.424 62.5575 130.524 51.315ZM148.469 82.7462C146.784 74.4709 145.182 66.6184 143.666 59.1888C143.491 58.326 143.032 57.8719 142.29 57.8264L139.297 57.6537C140.827 65.6135 142.45 74.0487 144.164 82.9594C145.28 83.2664 146.398 83.5827 147.518 83.9082C148.36 84.1541 148.678 83.7668 148.469 82.7462Z" stroke="white" stroke-miterlimit="10"/>
<defs>
<linearGradient id="paint0_linear_487_13941" x1="40.8713" y1="37.5034" x2="107.903" y2="183.709" gradientUnits="userSpaceOnUse">
<stop offset="0.37" stop-color="#F2A93B"/>
<stop offset="1" stop-color="#F2D09D"/>
</linearGradient>
<linearGradient id="paint1_linear_487_13941" x1="52.7926" y1="127.283" x2="99.4192" y2="182.995" gradientUnits="userSpaceOnUse">
<stop stop-color="#141413"/>
<stop offset="0.33" stop-color="#262625"/>
<stop offset="0.99" stop-color="#535352"/>
<stop offset="1" stop-color="#545453"/>
</linearGradient>
<linearGradient id="paint2_linear_487_13941" x1="87.5892" y1="93.8052" x2="87.5892" y2="60.7323" gradientUnits="userSpaceOnUse">
<stop offset="0.29" stop-color="#FFF1C2"/>
<stop offset="0.68" stop-color="#F2A93B"/>
<stop offset="1" stop-color="#F2A93B"/>
</linearGradient>
<linearGradient id="paint3_linear_487_13941" x1="87.5892" y1="93.8052" x2="87.5892" y2="60.7324" gradientUnits="userSpaceOnUse">
<stop offset="0.29" stop-color="#FFF1C2"/>
<stop offset="0.68" stop-color="#F2A93B"/>
<stop offset="1" stop-color="#F2A93B"/>
</linearGradient>
<linearGradient id="paint4_linear_487_13941" x1="87.5893" y1="93.8053" x2="87.5893" y2="60.7324" gradientUnits="userSpaceOnUse">
<stop offset="0.29" stop-color="#FFF1C2"/>
<stop offset="0.68" stop-color="#F2A93B"/>
<stop offset="1" stop-color="#F2A93B"/>
</linearGradient>
<linearGradient id="paint5_linear_487_13941" x1="87.5892" y1="93.8053" x2="87.5892" y2="60.7324" gradientUnits="userSpaceOnUse">
<stop offset="0.29" stop-color="#FFF1C2"/>
<stop offset="0.68" stop-color="#F2A93B"/>
<stop offset="1" stop-color="#F2A93B"/>
</linearGradient>
<linearGradient id="paint6_linear_487_13941" x1="87.589" y1="93.8053" x2="87.589" y2="60.7324" gradientUnits="userSpaceOnUse">
<stop offset="0.29" stop-color="#FFF1C2"/>
<stop offset="0.68" stop-color="#F2A93B"/>
<stop offset="1" stop-color="#F2A93B"/>
</linearGradient>
<linearGradient id="paint7_linear_487_13941" x1="87.5893" y1="93.8053" x2="87.5893" y2="60.7324" gradientUnits="userSpaceOnUse">
<stop offset="0.29" stop-color="#FFF1C2"/>
<stop offset="0.68" stop-color="#F2A93B"/>
<stop offset="1" stop-color="#F2A93B"/>
</linearGradient>
</defs>
</svg>
