<?xml version="1.0" encoding="utf-8"?>
<svg width="90px" height="90" fill="none" viewBox="0 0 90 90" xmlns="http://www.w3.org/2000/svg">
  <g clip-path="url(#clip0_24_366)" transform="matrix(1, 0, 0, 1, 9, 0)">
    <path d="M51.5898 11.8787L51.6436 11.9787L51.6974 12.0697L51.5898 11.8787ZM51.796 12.2516V12.197C51.796 12.197 51.7959 12.2789 51.8587 12.3244L51.796 12.2516ZM52.1006 12.8883V12.8428C52.1194 12.8775 52.1344 12.9141 52.1454 12.952C52.1256 12.9228 52.0975 12.9006 52.0648 12.8883H52.1006Z" fill="#f2a93b"/>
    <path d="M70.3996 59.2209C69.7813 58.1749 66.5821 52.854 65.3813 50.944C66.1968 49.7797 68.1952 46.9692 68.5984 46.3962L68.8941 45.9869L68.4192 45.7959C67.8636 45.5776 66.6269 45.1228 65.8473 44.8318C66.8151 44.2133 68.2579 43.2856 68.5357 43.0127C68.6442 42.9105 68.746 42.8011 68.8404 42.6853C69.9336 41.2937 69.6648 39.3017 69.3601 37.9283L66.5463 25.1946C66.2964 23.7899 65.6414 22.4921 64.6644 21.4654C63.6552 20.4956 62.3079 19.9721 60.9186 20.0102H60.0225L59.3594 16.6539V16.3992L59.1084 16.3447L54.9773 15.4351C53.88 11.0315 51.3669 7.12533 47.8357 4.33489C44.3046 1.54446 39.9573 0.0292969 35.4821 0.0292969C31.0069 0.0292969 26.6596 1.54446 23.1285 4.33489C19.5974 7.12533 17.0842 11.0315 15.9869 15.4351L11.8558 16.3447L11.6138 16.3992L11.56 16.6539L10.8969 20.0102H9.94702C9.25962 19.9907 8.57526 20.1102 7.93375 20.3616C7.29223 20.613 6.70635 20.9913 6.21017 21.4745C5.23778 22.4961 4.58596 23.7876 4.33727 25.1855L3.44114 29.2057C3.02521 30.5884 3.08526 32.0735 3.61141 33.4169L3.74582 33.6625L2.64361 33.9809L2.41958 34.0445L2.36581 34.2719L1.5593 37.9101C1.26358 39.2835 0.98578 41.2754 2.08801 42.6671C2.17763 42.7762 2.28516 42.8944 2.39269 43.0036L2.45543 43.0582C2.66944 43.2448 2.90762 43.4009 3.16335 43.522L5.1438 44.8136L2.55399 45.7868L2.08801 45.9778L2.38372 46.3871L5.60081 50.9349C4.39104 52.8813 1.20083 58.2113 0.582503 59.2118L-0.0268555 60.2396L1.06642 59.7848C1.96254 59.3937 6.72098 57.6383 8.69245 56.9834C10.265 61.8769 12.4966 66.5263 15.3238 70.7994C20.3723 78.2605 26.8898 84.5784 34.465 89.3543L35.2536 89.8636L35.4687 90.0001L35.6748 89.8636L36.4634 89.3543C44.0535 84.5817 50.5863 78.2638 55.6494 70.7994C58.4727 66.5272 60.704 61.8814 62.2807 56.9925C64.2522 57.6474 68.9748 59.4028 69.9157 59.7939L71 60.2487L70.3996 59.2209ZM29.2764 9.24108C30.6449 9.47573 31.9709 9.91722 33.2104 10.5508L33.5868 12.2062C33.6675 12.6064 33.7571 12.9975 33.8556 13.3977C33.9542 13.7979 34.0259 14.1526 34.1065 14.5256C34.1514 14.6802 34.1872 14.8348 34.223 14.9894C34.2589 15.1441 34.3037 15.3078 34.3396 15.4715C34.3754 15.6352 34.4381 15.8626 34.4919 16.0536C34.5457 16.2446 34.5725 16.381 34.6173 16.5448C34.6622 16.7085 34.7338 16.9632 34.7876 17.1633L34.922 17.6181C34.5188 17.9455 33.8377 18.5276 33.076 19.2825C33.0478 19.3203 33.0147 19.3539 32.9775 19.3826L32.8699 19.4917L32.7624 19.6009L32.5832 19.7919L32.4398 19.9465C32.3233 20.0738 32.1978 20.2012 32.0813 20.3376H22.4121C22.3842 20.2632 22.3602 20.1873 22.3404 20.1102C22.3215 20.0662 22.3065 20.0205 22.2956 19.9738C22.2956 19.9101 22.2956 19.8464 22.2329 19.7919C22.1702 19.7373 22.1702 19.6009 22.1433 19.5099L22.0985 19.3553C22.0178 19.0915 21.9461 18.8277 21.8834 18.5731L21.8297 18.3366C21.8297 18.2001 21.7579 18.0637 21.7311 17.9273C21.7042 17.7909 21.6504 17.5817 21.6146 17.4088C21.5787 17.236 21.6146 17.2724 21.6146 17.1996L21.5339 16.8085L21.4801 16.4811C21.4801 16.4811 21.4801 16.4174 21.4801 16.3811V16.2173C21.4801 16.1719 21.4801 16.1355 21.4801 16.09C21.4801 16.0445 21.4802 15.8717 21.4354 15.7716C21.4354 15.4715 21.3547 15.235 21.3457 15.0895C22.8289 12.9327 24.5059 10.92 26.3551 9.07736C27.3561 8.92062 28.3772 8.95454 29.3661 9.1774V9.07736V9.1774L29.2764 9.24108ZM60.2286 51.9899C44.0646 47.3147 26.9354 47.3147 10.7715 51.9899L12.0081 54.1001C11.327 54.282 10.646 54.4821 9.96494 54.6822C7.93969 55.2916 5.94134 55.9647 3.95194 56.7196C5.24236 54.6095 6.53875 52.5266 7.84112 50.471C6.945 49.2067 6.04887 47.9424 5.20651 46.7055C5.97718 46.4235 6.75682 46.1507 7.54541 45.896L8.15477 45.6959C9.3287 45.3139 10.5116 44.9591 11.6945 44.6317L11.9364 42.2941L12.7071 42.085L13.3165 41.9303L14.2664 41.6938L14.7144 41.5847L15.0549 41.5028C15.727 41.3391 16.3991 41.1936 17.0712 41.0481L17.7612 40.9025L18.3617 40.7843L19.2578 40.6206L19.885 40.5023L20.5482 40.3841L20.9873 40.3113L21.4443 40.2386L22.1522 40.1294L22.8602 40.0294H22.9408L23.6308 39.9293L24.3657 39.8384L25.0288 39.7565H25.217L25.6561 39.711L26.4716 39.6201L27.0182 39.5746L27.4842 39.5291L28.685 39.4291H29.0703H29.2944H29.832H30.065H30.773H31.5526H32.61H32.8699H33.9184H37.0638H38.1212H38.3811H39.4295H40.2092H40.9261H41.1322H41.6788H41.867H42.2882L43.4621 39.5291L43.937 39.5746L44.4837 39.6201L45.2992 39.711L45.7293 39.7565H45.9444L46.5896 39.8384L47.3334 39.9293L48.113 40.0385L48.803 40.1385L49.502 40.2476L49.9321 40.3204L50.425 40.4023L51.0702 40.5114L51.6885 40.6297L52.1993 40.7206L52.5488 40.7843L53.1851 40.9116L53.8661 41.0572L55.8018 41.4938L56.2588 41.5938L57.6209 41.9394L58.2392 42.094L59.0099 42.3032C59.0816 43.0855 59.1622 43.8677 59.2429 44.6408C60.4347 44.9682 61.6087 45.3229 62.8274 45.7049L63.4367 45.9051C64.2164 46.1597 64.996 46.4326 65.7756 46.7146C64.8795 47.9516 63.9834 49.2158 63.1321 50.4801C64.4404 52.5357 65.7308 54.6186 67.0212 56.7287C65.0408 55.9738 63.0335 55.3007 61.0082 54.6913L58.974 54.1092L60.2286 51.9899ZM42.4584 36.1274H42.2882C41.2308 36.0243 40.1733 35.9515 39.1159 35.9091C36.9293 35.8091 35.8361 34.854 35.8271 32.944V32.0344C35.8271 29.4331 35.8271 26.9258 35.8271 24.5124C35.8271 22.8752 36.786 22.0657 38.7126 22.0657H41.5175C43.4532 22.0657 44.4927 22.9025 44.6271 24.6216C44.6898 25.2946 44.7436 25.9768 44.7973 26.6681C43.5965 26.6135 42.3957 26.5771 41.2128 26.5407C41.2128 25.9677 41.1501 25.3856 41.1232 24.8217C41.1232 24.5215 40.935 24.3669 40.5945 24.3669H39.8687C39.5371 24.3669 39.3758 24.5124 39.3847 24.8035C39.4744 27.2502 39.555 29.7787 39.6536 32.4164C39.6536 32.5256 39.6536 32.6256 39.6536 32.7348C39.6442 32.792 39.6442 32.8504 39.6536 32.9076C39.6896 33.0209 39.7623 33.1186 39.8599 33.1846C39.9576 33.2507 40.0743 33.2813 40.1912 33.2714H40.5676H40.9798C41.3383 33.2714 41.5175 33.1441 41.4996 32.7984C41.4817 32.4528 41.4458 31.8889 41.4279 31.3977L41.3741 30.3699L40.3077 30.3244C40.3077 29.5149 40.245 28.7055 40.2092 27.9141C41.5444 27.9141 42.8976 28.0051 44.2328 28.0779H44.8959C44.8959 28.2234 44.8959 28.378 44.9407 28.5327C44.9855 29.1421 45.0393 29.7515 45.0841 30.3518C45.1647 31.3432 45.2543 32.3528 45.335 33.3714C45.4963 35.4179 44.5375 36.282 42.4584 36.1365V36.1274ZM32.6907 20.4467C32.8609 20.2557 33.0312 20.0738 33.2015 19.9101C33.7033 19.4008 34.232 18.8914 34.7966 18.4094C35.0296 18.2002 35.2088 18.0546 35.3074 17.9728L37.5477 18.282C38.8112 18.4457 40.1196 18.6185 41.5892 18.8823L42.557 19.0642L42.7631 19.4098L42.9155 19.6736C42.9595 19.737 42.9985 19.804 43.032 19.8737L43.1843 20.1466L43.2649 20.2921L43.3456 20.4467H32.6907ZM43.9012 20.4467C43.5428 19.7646 43.2202 19.2098 43.0051 18.8641C43.8754 17.7602 44.5846 16.5349 45.111 15.2259C45.4363 14.4007 45.6911 13.5487 45.8727 12.6792C46.7406 12.6742 47.6073 12.7472 48.4625 12.8975C49.3442 13.0465 50.199 13.3285 50.9985 13.7343C51.561 14.7204 52.0292 15.759 52.3965 16.8358C52.8095 17.9474 53.0922 19.1044 53.2388 20.283C53.2423 20.298 53.2423 20.3135 53.2388 20.3285C53.2388 20.3285 53.2388 20.3922 53.2388 20.4286L43.9012 20.4467ZM39.8417 9.45939C38.6051 9.11376 34.1424 10.4326 34.0169 10.469C34.1155 10.4235 37.3684 9.0137 38.4976 8.45888C38.8634 8.22646 39.2929 8.11877 39.7233 8.15149C40.1537 8.18422 40.5626 8.35563 40.8902 8.64077C41.4548 9.06826 44.8869 12.188 44.9945 12.279C44.8959 12.1698 41.4817 9.87776 39.8417 9.41389V9.45939ZM25.6113 35.9091C25.674 35.1087 25.7367 34.3083 25.7995 33.5261C26.0414 30.4791 26.2744 27.5685 26.4985 24.7762C26.4985 24.4943 26.4984 24.2032 26.5701 23.9212C26.6418 23.6393 26.5702 23.5301 26.615 23.3391C26.615 22.9298 26.6866 22.5205 26.7135 22.1112H34.3127V24.5761H30.2263H30.074L30.0202 25.7312C30.0202 26.2466 29.9933 26.7742 29.9396 27.3138H30.5131H31.0508L33.6764 27.2684C33.6764 28.1779 33.6764 29.042 33.6764 29.9425H32.1082H31.463H31.2479L29.841 29.997C29.7872 31.0066 29.7424 32.0344 29.6887 33.0713H30.298C31.687 32.9985 33.076 32.9531 34.4561 32.9349C34.4561 33.8899 34.4561 34.854 34.4561 35.8363C32.616 35.8363 30.779 35.9303 28.9449 36.1183L28.3534 36.1729C27.7351 36.2275 27.1168 36.3002 26.4985 36.373L25.6471 36.4821L25.6113 35.9091ZM60.9365 22.1112C62.8722 22.1112 64.0909 23.2663 64.6286 25.6767C65.5068 29.6666 66.4417 33.9111 67.4334 38.4104C67.8098 40.1385 67.7023 41.2027 67.0929 41.6302H67.0392L63.1769 44.3588H63.0604L65.4889 41.7575C65.2849 41.6998 65.0844 41.63 64.8885 41.5483C63.9923 41.2118 63.0962 40.8844 62.2001 40.5842C60.7573 40.0749 59.3235 39.6201 57.9076 39.2017C56.8861 33.0713 55.9541 27.4412 55.0848 22.2477C55.0891 22.2084 55.0891 22.1687 55.0848 22.1294L60.9365 22.1112ZM57.7912 18.0092L58.275 20.4467H55.2103C55.2106 19.4235 55.1327 18.4017 54.9773 17.3907L57.7912 18.0092ZM53.9468 24.9945L52.9789 24.949H52.2262H51.6796C51.0164 24.9126 50.3533 24.8853 49.6902 24.8671C49.7708 25.5311 49.8515 26.2133 49.9411 26.8955C49.9411 27.2138 50.0218 27.5321 50.0576 27.8596L50.6401 27.9051C51.0792 27.9051 51.5362 27.9778 51.9484 28.0142L53.6869 28.1779H53.8572C54.0095 29.2239 54.1708 30.279 54.3321 31.3522C53.6331 31.2431 52.9342 31.1431 52.2352 31.0521L50.4429 30.8247C50.5325 31.5978 50.6311 32.38 50.7297 33.1713L50.8641 34.2264C52.4771 34.4932 54.0961 34.7964 55.7211 35.136C55.9093 36.3002 56.0885 37.4826 56.2767 38.6923C53.3263 37.8852 50.3348 37.2415 47.3155 36.7641V36.4912C47.1123 34.3265 46.9122 32.2224 46.715 30.1789C46.6254 29.2057 46.5358 28.2507 46.4462 27.3048L46.3656 26.4952C46.2222 24.9945 46.0877 23.5392 45.9533 22.1021H53.5525C53.6421 23.0299 53.7944 24.0031 53.9468 24.9945ZM51.581 11.8788L51.6348 11.9788L51.6885 12.0698L51.7333 12.1516V12.1971C51.7333 12.1971 51.7334 12.279 51.7961 12.3245L51.8946 12.5246C51.9478 12.6281 51.9957 12.7344 52.038 12.8429C52.0567 12.8776 52.0718 12.9142 52.0828 12.9521L52.1366 13.0612C52.1366 13.134 52.1993 13.2158 52.2262 13.2977C52.2531 13.3796 52.2262 13.4159 52.2979 13.4796V13.5342V13.616C52.361 13.7702 52.4149 13.9282 52.4592 14.089V14.1345C52.4592 14.2163 52.504 14.2982 52.5309 14.38C52.5269 14.4345 52.5269 14.4893 52.5309 14.5438L52.5936 14.7712C52.5898 14.8074 52.5898 14.844 52.5936 14.8803C52.5936 14.9985 52.6564 15.1168 52.6832 15.235C52.7083 15.3157 52.7293 15.3977 52.746 15.4806C52.746 15.5534 52.7908 15.6352 52.8087 15.7171L52.8894 16.0627C52.8894 16.1264 52.8894 16.181 52.8894 16.2446C52.8894 16.3083 52.9521 16.5175 52.9789 16.6448C52.9887 16.7216 53.0037 16.7976 53.0238 16.8722L53.0775 17.1542C53.0775 17.236 53.0775 17.3179 53.0775 17.3997C53.0775 17.4816 53.1402 17.7727 53.1761 17.9455L53.1223 17.7272C53.1223 17.6726 53.1223 17.618 53.0775 17.5635V17.4725C53.0816 17.4271 53.0816 17.3815 53.0775 17.3361C53.0608 17.2621 53.0398 17.1893 53.0148 17.1178C52.9868 17.0372 52.9629 16.9553 52.9431 16.8722L52.8894 16.7176C52.8798 16.6646 52.8648 16.6128 52.8445 16.563L52.7729 16.3719C52.756 16.31 52.735 16.2492 52.7101 16.1901C52.6653 16.0718 52.6295 15.9536 52.5846 15.8444C52.5846 15.8444 52.5846 15.8444 52.5846 15.7899L52.504 15.5806V15.5079L52.4592 15.3988C52.4391 15.3426 52.4151 15.2878 52.3875 15.235C52.3691 15.1752 52.3451 15.1173 52.3158 15.0622L52.2441 14.8985C52.0649 14.4983 51.9036 14.1618 51.7781 13.9162V13.8525C51.7671 13.8232 51.7521 13.7956 51.7333 13.7706C51.738 13.7497 51.738 13.7279 51.7333 13.707C51.7333 13.707 51.7333 13.707 51.7333 13.6615L51.6796 13.5524C51.6796 13.5524 51.8677 13.4887 51.4107 11.7333C51.4698 11.7757 51.5266 11.8212 51.581 11.8697V11.8788ZM40.702 2.78326C45.1262 4.13965 48.8712 7.16297 51.1688 11.233C51.1688 11.4695 51.124 11.7514 51.0971 12.0698C51.0702 12.3881 51.0344 12.7429 50.9985 13.0976C49.3621 12.3952 47.5946 12.0631 45.8189 12.1244C44.9228 10.9329 41.4817 7.85856 40.1196 7.30373C40.0252 5.90276 39.8001 4.51404 39.4475 3.15618C39.8754 3.08099 40.2954 2.96527 40.702 2.81055V2.78326ZM26.1848 4.54779C29.4835 2.56315 33.3182 1.69365 37.1355 2.06474C37.7269 2.41037 38.2915 2.73779 38.856 3.01975C39.2383 4.40409 39.4815 5.82418 39.5819 7.25826C37.4127 7.91618 35.3372 8.85788 33.4076 10.0597C32.1252 9.4172 30.7578 8.96683 29.3481 8.72263C28.3442 8.50277 27.3106 8.45971 26.2923 8.5953C26.0795 7.26615 26.0433 5.914 26.1848 4.57508V4.54779ZM23.8728 5.89394C21.9103 7.71304 18.6126 11.9243 20.9873 14.4437C20.1105 14.4068 19.2725 14.0666 18.6126 13.4796C19.657 10.5143 21.4751 7.89245 23.8728 5.89394ZM17.2953 20.1375C17.2953 19.9556 17.2953 19.7646 17.2953 19.5736C17.2953 19.3826 17.2953 19.0097 17.349 18.7186L17.4028 18.2365C17.4446 17.8727 17.4984 17.5089 17.5641 17.1451V16.9723C17.5598 16.9056 17.5598 16.8388 17.5641 16.7722L17.6716 16.2537C17.6716 16.1264 17.7344 15.9899 17.7702 15.8626C17.7858 15.7854 17.8067 15.7094 17.8329 15.6352C17.8496 15.5583 17.8706 15.4824 17.8956 15.4078C17.9124 15.3339 17.9334 15.261 17.9584 15.1895L18.0121 15.0167L18.0659 14.8439V14.7893C18.0659 14.6984 18.1197 14.6074 18.1555 14.5165C18.9586 14.8768 19.7966 15.1511 20.6557 15.3351C20.6514 15.3804 20.6514 15.4261 20.6557 15.4715C20.6518 15.523 20.6518 15.5747 20.6557 15.6261C20.6557 15.6261 20.6557 15.6261 20.6557 15.6807V15.7353V15.9354V15.99L20.7095 16.2992C20.7633 16.6357 20.826 17.0268 20.9156 17.4634C20.9113 17.527 20.9113 17.5908 20.9156 17.6544C20.9156 17.8272 20.9873 18.0001 21.0321 18.1729L21.0859 18.4366L21.1844 18.8096C21.286 19.2098 21.4025 19.619 21.5339 20.0374L21.5966 20.2375L21.6504 20.3922C21.6504 20.3922 21.6504 20.3922 21.6504 20.4376H17.2953V20.1375ZM17.1967 22.0476H25.3066C25.3066 22.375 25.2528 22.7024 25.217 23.0299C25.217 23.2118 25.217 23.3937 25.1722 23.5756C25.1274 23.7575 25.1722 23.8848 25.1274 24.0304L25.0736 24.658C24.052 26.186 22.9976 27.808 21.9103 29.5241C21.5518 30.088 21.1844 30.6701 20.817 31.2704C20.5303 31.7252 20.2435 32.1799 19.9209 32.6711C19.5983 33.1623 19.2398 33.7808 18.8993 34.3538L21.0321 34.0081L22.9229 33.7353L24.061 33.5898L23.9535 34.6539C23.8997 35.2633 23.8459 35.8727 23.7832 36.473C23.7832 36.5458 23.7832 36.6095 23.7832 36.6731C20.5797 37.1675 17.4078 37.8539 14.2843 38.7287C14.4725 37.5099 14.6606 36.3184 14.8488 35.1451C15.96 33.2472 17.0413 31.4614 18.0928 29.7878L19.0517 28.2871C19.8313 27.0501 20.602 25.8858 21.3457 24.758C20.1808 24.8035 19.0068 24.849 17.8419 24.9126L16.7217 24.9581C16.892 24.0031 17.0443 23.0299 17.1967 22.0657V22.0476ZM13.2089 17.9455L16.0228 17.327C15.8674 18.338 15.7895 19.3598 15.7897 20.3831H12.725L13.2089 17.9455ZM3.96091 41.5938C3.3157 41.1936 3.19025 40.1203 3.57559 38.3558C3.77273 37.4462 3.96986 36.5367 4.167 35.6726C5.48431 35.2997 6.79266 34.945 8.10101 34.6175C7.99347 35.1814 7.87697 35.7545 7.76047 36.3275C7.64398 36.9005 7.81425 36.9824 8.19062 36.8732L8.85375 36.6822C9.03975 36.6274 9.20552 36.5178 9.32998 36.3672C9.45444 36.2166 9.53197 36.0318 9.55272 35.8363C9.73195 34.9268 9.90221 34.0173 10.0814 33.1077C10.1651 32.6711 10.0217 32.4892 9.65131 32.562L7.54541 33.0167C6.45214 33.2623 5.75316 33.0986 5.4664 32.4892C5.16621 31.5647 5.16621 30.5668 5.4664 29.6423C5.7651 28.278 6.06381 26.9409 6.36252 25.6312C6.89124 23.2209 8.10996 22.0566 10.0277 22.0657H12.716C14.6338 22.0657 15.4044 23.0663 15.0908 25.0582L14.7682 26.9864L11.3719 27.3138H11.1389C11.2285 26.8318 11.3181 26.3406 11.4167 25.8586C11.5153 25.3765 11.3539 25.2856 11.0134 25.3128H10.422C10.0814 25.3128 9.87532 25.5493 9.79467 25.9495C9.61544 26.8287 9.43624 27.7201 9.25702 28.6236C9.1674 29.0511 9.257 29.233 9.66026 29.1875L11.0313 28.9874L11.6497 28.9056C12.6892 28.7691 13.3792 28.9601 13.7376 29.4513C14.1229 30.169 14.2162 31.0113 13.9975 31.7979C13.7914 33.0076 13.5853 34.2446 13.3702 35.4998C13.2324 36.6045 12.7775 37.6437 12.062 38.488C11.3466 39.3322 10.4022 39.9442 9.34661 40.2476L8.7731 40.4478C7.87698 40.7479 6.98085 41.0753 6.08472 41.4119C5.88129 41.498 5.67155 41.568 5.45743 41.6211L7.91283 44.2406H7.79633L3.96091 41.5938ZM50.4877 74.5923L48.113 61.9222L43.489 50.6256L42.109 61.9222L43.6592 77.7484L42.6825 73.0097L40.7379 67.9799L39.6984 73.0097L39.4923 69.1895L35.5045 63.4867L31.5078 69.1895L31.3017 73.0097L30.2711 67.9799L28.3176 73.0097L27.3408 77.7484L28.9001 61.9495L27.5111 50.6529L22.896 61.9495L20.5123 74.6196C15.9662 69.1702 12.5222 62.8652 10.3772 56.0647L12.0081 55.6009C12.7967 55.3917 13.5942 55.1825 14.3918 54.9915L13.3075 53.0996L13.1462 52.8358C27.8134 49.0339 43.1867 49.0339 57.8539 52.8358C57.8001 52.9177 57.7553 53.0086 57.7015 53.0996L56.6083 55.0097C57.4058 55.2007 58.2034 55.4099 59.0009 55.6191L60.6319 56.0829C58.4813 62.8774 55.0345 69.176 50.4877 74.6196V74.5923Z" fill="#f2a93b"/>
    <path d="M61.116 25.7311C61.0353 25.3309 60.8292 25.1126 60.4887 25.0944L59.2341 24.9944H59.1714C59.8704 28.6993 60.6112 32.6225 61.3938 36.764L61.5551 36.8094L62.9262 37.2006C63.3115 37.3188 63.4549 37.1369 63.3563 36.6639C62.5558 32.8317 61.809 29.1874 61.116 25.7311Z" fill="#f2a93b"/>
    <path d="M25.3064 41.0935L24.4103 42.2395L23.5142 42.3578C23.7382 41.9849 23.9622 41.6119 24.1773 41.239L25.3064 41.0935Z" fill="#f2a93b"/>
    <path d="M25.683 46.369C25.3425 45.0501 24.993 43.7404 24.6435 42.4397C24.1596 42.4943 23.6667 42.558 23.1828 42.6307C22.8691 43.8768 22.5645 45.1229 22.2867 46.369C22.215 46.6509 22.1433 46.9329 22.0806 47.2148L23.2545 47.042C23.2993 46.8146 23.3531 46.5873 23.3979 46.369L24.4553 46.2325C24.4553 46.278 24.4553 46.3235 24.4553 46.3781L24.5628 46.8692L25.7726 46.7328C25.7457 46.6054 25.7188 46.4872 25.683 46.369ZM23.5592 45.4594L23.9086 43.8222L24.2492 45.3685L23.5592 45.4594Z" fill="#f2a93b"/>
    <path d="M21.238 42.9216V43.7766L20.3418 43.9221V47.4785L19.15 47.6968V44.1404L18.3076 44.2951V43.4401C19.3113 43.2491 20.2791 43.0763 21.238 42.9216Z" fill="#f2a93b"/>
    <path d="M16.9634 43.7222V47.2876C16.9634 47.8606 16.6229 48.1972 15.9598 48.3609L14.9561 48.5883C14.293 48.752 13.9614 48.5883 13.9614 47.9789V44.4134L15.1443 44.1315V47.5332C15.1443 47.6332 15.207 47.6696 15.3146 47.6514L15.6013 47.5787C15.7178 47.5787 15.7716 47.4877 15.7716 47.3877V43.9859L16.9634 43.7222Z" fill="#f2a93b"/>
    <path d="M56.8768 47.0328V47.9424C56.8768 48.5063 56.5542 48.7155 55.8911 48.5517L54.9949 48.3426C54.3318 48.197 54.0003 47.8423 54.0003 47.2693V46.7418L55.1832 47.0055V47.3784C55.1831 47.4251 55.2007 47.4701 55.2324 47.5039C55.2641 47.5378 55.3075 47.558 55.3534 47.5603L55.5506 47.6058C55.6671 47.6058 55.7208 47.6058 55.7208 47.4967V46.8691C55.7208 46.769 55.6671 46.7054 55.5506 46.6781L54.8964 46.5325C54.7388 46.5047 54.5872 46.4493 54.4483 46.3688C54.347 46.3162 54.2583 46.2417 54.1884 46.1505C54.0451 45.9537 53.9724 45.713 53.9823 45.4684V44.5588C53.9823 43.9858 54.3139 43.7766 54.977 43.9221L55.8732 44.1313C56.5273 44.286 56.8589 44.6589 56.8589 45.2228V45.7594L55.676 45.4684V45.0955C55.6762 45.0478 55.6589 45.0018 55.6274 44.9665C55.5959 44.9311 55.5525 44.909 55.5057 44.9045H55.3086C55.1921 44.9045 55.1383 44.9045 55.1383 45.0136V45.6685C55.1383 45.7685 55.1921 45.8322 55.3086 45.8595L55.9448 46.005C56.2172 46.0534 56.4679 46.1869 56.6618 46.387C56.8037 46.5712 56.8796 46.799 56.8768 47.0328Z" fill="#f2a93b"/>
    <path d="M52.2263 42.0939L51.3302 42.958L50.4341 42.8033C50.6581 42.4941 50.8732 42.1849 51.0972 41.8938L52.2263 42.0939Z" fill="#f2a93b"/>
    <path d="M52.3337 46.369C52.0739 45.323 51.823 44.277 51.5631 43.231L50.1114 42.9763C49.8067 44.1042 49.511 45.232 49.2152 46.369C49.1436 46.6509 49.0629 46.9329 48.9912 47.2148L50.1651 47.4059C50.2189 47.1876 50.2637 46.9784 50.3085 46.7692L51.3659 46.9511L51.5004 47.6332L52.7012 47.8606C52.5757 47.3695 52.4502 46.8692 52.3337 46.369ZM50.4877 45.9415L50.8372 44.4134C50.9448 44.9682 51.0613 45.514 51.1688 46.0688L50.4877 45.9415Z" fill="#f2a93b"/>
    <path d="M38.3989 41.821H37.3773C36.6963 41.821 36.3647 42.0848 36.3647 42.6578V45.3865C36.3647 45.9504 36.6963 46.2415 37.3773 46.2505H38.3989C39.08 46.2505 39.4116 46.005 39.4116 45.4411V42.7124C39.4116 42.1394 39.08 41.8392 38.3989 41.821ZM38.2108 45.2228C38.2108 45.3228 38.148 45.3683 38.0315 45.3683H37.7268C37.6104 45.3683 37.5566 45.3137 37.5566 45.2137V42.8125C37.5566 42.7124 37.6104 42.6669 37.7268 42.6669H38.0136C38.1301 42.6669 38.1928 42.7215 38.1928 42.8216L38.2108 45.2228Z" fill="#f2a93b"/>
    <path d="M47.7188 46.1688V47.0783C46.8227 46.9601 45.9983 46.8509 45.147 46.76V42.2759L46.3478 42.4123V45.9778L47.7188 46.1688Z" fill="#f2a93b"/>
    <path d="M39.2952 40.5931L38.3991 41.5936H37.5029L38.175 40.575L39.2952 40.5931Z" fill="#f2a93b"/>
    <path d="M43.7308 42.1485V43.0125L42.8794 42.9398V46.4961L41.6697 46.4052V42.8488C41.3829 42.8488 41.1051 42.8034 40.8184 42.7943V41.9302C41.7951 41.9847 42.763 42.0666 43.7308 42.1485Z" fill="#f2a93b"/>
    <path d="M30.298 41.9211V46.3416H29.8858H29.2675L28.2997 44.1404V46.4598L27.1885 46.5508V42.1303L28.228 42.0394L29.2137 44.3315V41.9666L30.298 41.9211Z" fill="#f2a93b"/>
    <path d="M33.8915 41.7846C33.2104 41.7846 32.5204 41.7846 31.8394 41.8483V46.2596H33.0491V44.8135H33.8915C34.5725 44.8135 34.9041 44.5133 34.9041 43.9039V42.6396C34.9041 42.0575 34.5725 41.7755 33.8915 41.7846ZM33.6943 43.7493C33.6943 43.8493 33.6406 43.9039 33.5241 43.9039H33.0491V42.6578H33.5241C33.6406 42.6578 33.6943 42.7033 33.6943 42.8033V43.7493Z" fill="#f2a93b"/>
  </g>
  <defs>
    <clipPath id="clip0_24_366">
      <rect width="71" height="90" fill="#f2a93b"/>
    </clipPath>
  </defs>
</svg>